<?xml version="1.0" encoding="utf-8"?>
<!-- Generator: Adobe Illustrator 18.0.0, SVG Export Plug-In . SVG Version: 6.00 Build 0)  -->
<!DOCTYPE svg PUBLIC "-//W3C//DTD SVG 1.1//EN" "http://www.w3.org/Graphics/SVG/1.1/DTD/svg11.dtd">
<svg version="1.1" id="Layer_1" xmlns="http://www.w3.org/2000/svg" xmlns:xlink="http://www.w3.org/1999/xlink" x="0px" y="0px"
	 viewBox="0 0 2197 1829.1" style="enable-background:new 0 0 2197 1829.1;" xml:space="preserve">
<path style="fill:none;stroke:#000000;stroke-width:5;stroke-miterlimit:10;" d="M805,915.2h39.5c10.7,0,18.5-5.4,20.4-19.9
	c10.2-125.8,115.5-224.7,243.9-224.7c135.2,0,244.8,109.6,244.8,244.8s-109.6,244.8-244.8,244.8c-129.4,0-235.3-100.5-244.2-227.6
	c-0.7-9.9,3.2-17.3,16.1-17.3H935c8.8,0,14.1-5.8,16.1-17.1c3.2-18.6,11.4-34.9,24.5-49c-7.9-20.5-7.1-42.9,2.6-67.4
	c0.5-0.2,1.4-0.3,2.6-0.5c1.2-0.2,3.9-0.1,8.1,0.3c4.2,0.3,8.8,1.3,13.7,2.7c4.9,1.5,11.4,4.2,19.6,8.3c8.2,4,16.8,9.2,25.9,15.4
	c20.1-5.7,41.3-8.5,63.5-8.5c22,0,43.3,2.8,63.8,8.5c14.5-9.8,27.5-16.9,39.1-21.2s19.7-6.2,24.1-5.7l6.5,0.8
	c9.6,24.3,10.5,46.7,2.6,67.4c17.4,18.8,26.1,41.5,26.1,68.2c0,13.8-1.2,26.4-3.6,37.8c-2.4,11.4-5.7,21.3-9.8,29.4
	c-4.1,8.2-9.2,15.5-15.4,21.9c-6.1,6.5-12.5,11.7-19.1,15.7c-6.6,4-14.1,7.5-22.5,10.5c-8.3,2.9-16.3,5.2-23.8,6.7
	c-7.5,1.5-15.7,2.8-24.6,3.6c14.3,9.8,21.5,25.1,21.5,46v39.6c-22,5.5-44.5,8.4-66.3,8.5c-21.3,0.1-41.7-2.4-63.7-7.7V1089
	c0-21,7.4-36.3,21.5-46c-9-0.9-17-2.1-24.5-3.6c-7.5-1.5-15.3-3.8-23.7-6.7c-8.3-2.9-15.8-6.4-22.4-10.5c-6.6-4-13-9.3-19.1-15.7
	c-6.1-6.5-11.2-13.8-15.4-21.9c-4.1-8.2-7.4-18-9.8-29.4c-1.5-7.3-2.6-15.1-3.1-23.3c-0.9-11.8,3.2-16.7,16.6-16.7H1392"/>
</svg>
