<svg xmlns="http://www.w3.org/2000/svg" xmlns:xlink="http://www.w3.org/1999/xlink" viewBox="0 0 180.28 252.28"><defs><style>.a,.l,.q{fill:#fff;}.a{stroke:#3cb76f;stroke-miterlimit:10;stroke-width:0.28px;}.b{fill:#3cb76f;}.c{font-size:8px;fill:#3db770;}.c,.q{font-family:Transport;}.d{font-family:Futura;}.e{fill:#231f20;}.f{fill:#fae72f;}.g{fill:#f99b1c;}.h{fill:#ecebeb;}.i{fill:#262424;}.j{fill:url(#a);}.k{fill:#fdfdfd;}.m{fill:#00a651;}.n{fill:#ed1c24;}.o{fill:url(#b);}.p{fill:url(#c);}.q{font-size:12px;}</style><linearGradient id="a" x1="104.35" y1="76.02" x2="118.65" y2="76.02" gradientUnits="userSpaceOnUse"><stop offset="0" stop-color="#f6f5c5"/><stop offset="1" stop-color="#ffe69a"/></linearGradient><linearGradient id="b" x1="84.83" y1="77.08" x2="102.32" y2="77.08" xlink:href="#a"/><linearGradient id="c" x1="73.4" y1="71.38" x2="73.44" y2="71.38" xlink:href="#a"/></defs><title>card-trump</title><rect class="a" x="0.14" y="0.14" width="180" height="252"/><rect class="b" x="16.52" y="14.74" width="147.24" height="222.81" rx="12" ry="12"/><text class="c" transform="translate(32.1 157.37)">Donald Trump</text><text class="c" transform="translate(32.1 186.62)">Goal: Gain <tspan class="d" x="44.36" y="0">$</tspan><tspan x="49.3" y="0">30M </tspan></text><text x="-16.04" y="-18.9"/><path class="e" d="M137.08,73.45a0.24,0.24,0,0,1-.27.35l-0.16,0,0-.06,0.27-.35,0.06,0Z" transform="translate(-16.04 -18.9)"/><path class="e" d="M137,73.31l-0.06,0-0.54-.16q-1.67-3.12-3.22-6.3c-0.92-1.89-2-3.85-2.23-6a32.91,32.91,0,0,1,.06-3.34,10,10,0,0,0-.42-3,9.45,9.45,0,0,0-3.37-4.88c-1.55-1.12-3.88-1.54-5.27.08a0.21,0.21,0,0,1-.13.08l-0.23-.12a0.24,0.24,0,0,1,0-.29c1.41-1.64,3.83-1.45,5.52-.37a9.64,9.64,0,0,1,3.63,4.59,10.22,10.22,0,0,1,.68,2.88c0.1,1.2-.06,2.4-0.06,3.6,0,2.49,1.29,4.71,2.36,6.89S135.88,71.21,137,73.31Z" transform="translate(-16.04 -18.9)"/><path class="e" d="M136.94,73.34l-0.27.35-0.27-.51Z" transform="translate(-16.04 -18.9)"/><path class="e" d="M136.4,73.18l0.27,0.51,0,0.06-2-.61c0-.12,0-0.24-0.06-0.35a0.18,0.18,0,0,0-.12-0.16v0Z" transform="translate(-16.04 -18.9)"/><path class="f" d="M136.4,73.18l-2-.59-3.11-.94a24.8,24.8,0,0,1-5-1.8,5.76,5.76,0,0,1-2.93-3.45c-0.36-1.44.31-2.79-.24-4.16a13.38,13.38,0,0,0,2-2.54,7.46,7.46,0,0,0,.48-6.33,0.24,0.24,0,0,0,0-.07l0-.06a8.37,8.37,0,0,0-3.81-3.44,0.21,0.21,0,0,0,.13-0.08c1.39-1.62,3.71-1.2,5.27-.08a9.45,9.45,0,0,1,3.37,4.88,10,10,0,0,1,.42,3,32.91,32.91,0,0,0-.06,3.34c0.19,2.13,1.31,4.09,2.23,6Q134.73,70.06,136.4,73.18Z" transform="translate(-16.04 -18.9)"/><path class="e" d="M135.64,77.09a11.31,11.31,0,0,1-.23,4.36,4.11,4.11,0,0,1-1.88,2.85,2.25,2.25,0,0,1-2.17-.08c0-.18,0-0.35,0-0.53l0,0a1.81,1.81,0,0,0,2.53-.23,5.69,5.69,0,0,0,1.23-3.12,10.8,10.8,0,0,0-.14-4c-0.25-1.13-.74-2.19-0.91-3.34l0.5,0.15C134.86,74.47,135.45,75.73,135.64,77.09Z" transform="translate(-16.04 -18.9)"/><path class="g" d="M135,76.32a10.8,10.8,0,0,1,.14,4,5.69,5.69,0,0,1-1.23,3.12,1.81,1.81,0,0,1-2.53.23l-0.11-.13a0.24,0.24,0,0,0-.4.17c0,0.05,0,.11,0,0.17l-0.07,7.93h0c-0.28,2.94-.47,6-0.75,8.89-0.26,2.75-.5,5.52-1,8.25-0.82,4.8-2.48,9.59-6.15,13a14,14,0,0,1-2.09,1.6,0.21,0.21,0,0,0-.22.12l0,0a11.5,11.5,0,0,1-4.36,1.55c-0.3,0-.3.51,0,0.47a11.89,11.89,0,0,0,3.9-1.24c-2,3.17-4.76,5.7-7.49,8.21-0.74.68-1.47,1.35-2.19,2a9.8,9.8,0,0,1-2.15,1.66,8.27,8.27,0,0,1-1.88.73,0.25,0.25,0,0,0-.26.06,10.24,10.24,0,0,1-2.67.23,0.25,0.25,0,0,0-.22,0,13.82,13.82,0,0,1-9.37-4.64,54.49,54.49,0,0,1-4.62-6.6c-0.74-1.14-1.47-2.29-2.23-3.42a5.09,5.09,0,0,0-.8-1l0,0a15.79,15.79,0,0,1-3.82-4.49,25.51,25.51,0,0,1-1.83-6q-1.51-6.49-2.88-13Q77,94.84,76.38,91.56a2.55,2.55,0,0,0-.08-0.72,0.21,0.21,0,0,0-.1-0.14,0.24,0.24,0,0,0-.44.18l0.14,0.71a2,2,0,0,1-2.8,1.78,2.84,2.84,0,0,1-.67-0.46,6,6,0,0,1-1.5-3.78,20.55,20.55,0,0,1,.12-4.64c1.74-2,4.19-3,6.47-4.18a13.37,13.37,0,0,0,5.79-5,10.92,10.92,0,0,0,1.37-4.13q2.38-.33,4.72-0.89c2.17-.52,4.31-1.14,6.49-1.65a33,33,0,0,1,6.75-.94c2.32-.06,4.63.11,6.95,0.05a19.24,19.24,0,0,0,13.24-5.2,5,5,0,0,1,0,2.09,5.62,5.62,0,0,0,.23,2.28A6.36,6.36,0,0,0,126,70.17,23.26,23.26,0,0,0,131,72.05L134.11,73C134.28,74.13,134.77,75.2,135,76.32Zm-6.73,7.84c0.11-.29-0.35-0.41-0.46-0.13a42.39,42.39,0,0,0-2.72,13c-0.23,4.48.14,9-1,13.42a15.1,15.1,0,0,1-3,6c-0.19.23,0.14,0.57,0.34,0.34,2.6-3.09,3.53-7.13,3.82-11.07,0.18-2.4.14-4.81,0.2-7.22a45.29,45.29,0,0,1,.69-7A42.09,42.09,0,0,1,128.29,84.16Zm-3.12,23.71a0.13,0.13,0,0,0,0,0l0,0.06h0v0h0Zm-9.69,11.64c0.09-.26,4.62-11.61,4.42-13.33,0-.35-4.87,13-5,13.18a15.72,15.72,0,0,1-3.82,5.73c-2.79,2.53-6,3.65-9.74,2.55a11.63,11.63,0,0,1-5.51-4.19c-1.82-2.22-3.27-4.71-5-7A108.24,108.24,0,0,1,83.47,103q-0.06-.3-0.11-0.61c-0.11-.06-0.06.17,0.11,0.61,1.43,7,6.76,13.51,6.84,13.76a0.79,0.79,0,0,0,.12.2,83,83,0,0,0,6.41,8.5,9.67,9.67,0,0,0,7.5,3.23C110.17,128.67,114,123.86,115.47,119.52Zm3.79-39.59a0.24,0.24,0,0,0,.32-0.33l-0.06-.1-2.77-4.71a25.62,25.62,0,0,0-1.39-2.31,1.37,1.37,0,0,0-1.32-.69,1.7,1.7,0,0,0-.74.41,10.2,10.2,0,0,1-1.06.8A7.82,7.82,0,0,1,110,74a11.74,11.74,0,0,1-2.46.25,2.59,2.59,0,0,0-1.82.72c-1.23,1.25-1,3.16-1.81,4.61a0.24,0.24,0,0,0,0,.08c-0.25,0-.44.32-0.18,0.43a2.24,2.24,0,0,0,.34.12,3.28,3.28,0,0,0,3.08-1.38,7.23,7.23,0,0,1,1.75-1.67,2,2,0,0,1,1.38-.28,4.57,4.57,0,0,0,.94.3,1.58,1.58,0,0,0,1.09-.77A0.83,0.83,0,0,1,113.4,76a8.29,8.29,0,0,1,1.13.72l4.63,3.1Zm-3.75,9.21a0.19,0.19,0,0,0,0-.38,9.06,9.06,0,0,1-3.23-.74c-0.22-.1-0.41.23-0.19,0.32A9.54,9.54,0,0,0,115.51,89.14ZM113.72,85a1.36,1.36,0,0,0,2,.8,3.45,3.45,0,0,1-1.63-1c-0.07-.09-0.14-0.26-0.3-0.18A0.33,0.33,0,0,0,113.72,85Zm1.07,1.73a0.19,0.19,0,0,0-.18-0.22,8.69,8.69,0,0,1-1.71-.71A1.52,1.52,0,0,0,114.45,87,0.31,0.31,0,0,0,114.79,86.75Zm-0.21-7.27-0.2,0,0.11,0.09Zm-7.22,53.78c4-1.46,7.77-6.54,6.76-5.55A21.86,21.86,0,0,1,108.5,132a9.67,9.67,0,0,1-7.85.7,13.85,13.85,0,0,1-6.08-4.86c-1.07-1.37-2-2.84-2.94-4.29-0.13-.2-0.31-0.47-0.55-0.34s0,0.42.1,0.58a26.16,26.16,0,0,0,5.74,7.47A9.56,9.56,0,0,0,107.36,133.26Zm6-29.58c0.15,0.19.47,0,.33-0.19a34.24,34.24,0,0,1-2.92-4.25A15,15,0,0,1,109.54,96c-0.17-.62-0.32-1.26-0.46-1.9-0.05-.24-0.41-0.14-0.36.1s0.13,0.6.2,0.9a4.64,4.64,0,0,1-1.26-1.5,1.08,1.08,0,0,0,.16,1.48,3.49,3.49,0,0,1,.63.71,1.07,1.07,0,0,1-.8.41,2.23,2.23,0,0,1-1.09-.48A1.19,1.19,0,0,0,105,96a0.18,0.18,0,0,0-.05.12,2.25,2.25,0,0,0-.64.41,1.75,1.75,0,0,1-2.55-.11c-0.33-.27-0.63-0.56-1-0.83a1.67,1.67,0,0,0-2.29-.18,5.27,5.27,0,0,1-.9.47,0.9,0.9,0,0,1-1-.19,0.77,0.77,0,0,1,0-.95,2,2,0,0,0,.27-1.41,1.2,1.2,0,0,0-.74,1l-0.1.54a0.17,0.17,0,0,0-.25.12v0.05l-0.14.94a0.18,0.18,0,0,0,0,0,13.49,13.49,0,0,1-.58,1.68,22.91,22.91,0,0,1-.92,2.1,9.15,9.15,0,0,1-2.92,3.55c-0.2.14,0,.46,0.19,0.33a9.52,9.52,0,0,0,3.05-3.68c0.36-.71.67-1.45,1-2.19l0.23-.6,0,0.22a2.06,2.06,0,0,0,0,.7c0,0.22.08,0.53,0.38,0.49A0.44,0.44,0,0,0,96.31,98c0-.37,0-0.74,0-1.11,0-.21.08-0.53,0.27-0.48,1,0.28,1.75-.43,2.62-0.65a1.4,1.4,0,0,1,1.71.57,2.68,2.68,0,0,0,3.83.64c0.27-.2.8-0.5,0.6-0.77l0,0c0.74-.77,1.56.45,2.39,0.39a1.43,1.43,0,0,0,.93-0.44,3.51,3.51,0,0,1,.3,1.74,0.83,0.83,0,0,0,.6.93c0-.48,0-1,0-1.42a13.72,13.72,0,0,0,.82,1.86A33.11,33.11,0,0,0,113.4,103.68ZM112.09,87.5c0.24,0,.24-0.4,0-0.38a4.3,4.3,0,0,0-1.16.24,2.8,2.8,0,0,0,.67-1.06,7.8,7.8,0,0,0,.33-2.47,7.53,7.53,0,0,0-.28-2.39,2.09,2.09,0,0,0-1.31-1.52,2.74,2.74,0,0,0-1.91.24l-0.42.2a0.15,0.15,0,0,0-.05.23,3.77,3.77,0,0,0-.6,1.27c0,0.11-.06.21-0.08,0.32a0.66,0.66,0,0,0-.57,0,8.1,8.1,0,0,0-1.95,1.17,0.33,0.33,0,0,0-.18.4,0.37,0.37,0,0,0,.49.09,1.19,1.19,0,0,0,.42-0.21,2.9,2.9,0,0,1,1.71-.92,7,7,0,0,0,0,1.59c0.14,1.27.26,3,1.65,3.54a2,2,0,0,0,.85.12l0,0a3.32,3.32,0,0,1-2.83-.46,0.19,0.19,0,0,0-.19.33,4.05,4.05,0,0,0,2.49.65,3.78,3.78,0,0,0,1.22-.42h0A4.56,4.56,0,0,1,112.09,87.5Zm-0.91,1.92a0.19,0.19,0,0,0,.19-0.33l-0.46-.29a0.19,0.19,0,0,0-.19.33Zm-6.86,28.87c3.36-3,5.39-5.83,5-7l-2.1,3.09a10,10,0,0,1-2.91,3.07,4.3,4.3,0,0,1-5.83-.8,8.21,8.21,0,0,1-1.55-2.55c-0.49-1.24-.95-2.5-1.45-3.73a0.81,0.81,0,0,0-.41-0.68,10.67,10.67,0,0,0,5.48,9.1c-0.65.29-1.3,0.56-1.93,0.89-0.17.09-.63,0.1-0.42,0.49s0.5,0.2.77,0.07,0.27-.16.4-0.25a7.41,7.41,0,0,1,4.6-1,7.29,7.29,0,0,1,3.11,1c0.25,0.15.48,0.24,0.67-.08a0.45,0.45,0,0,0-.23-0.66,2.33,2.33,0,0,0-.65-0.25ZM109,104.81c0.46-2.06-2.3-4.72-4.34-4.15a0.61,0.61,0,0,0-.22.1,1.73,1.73,0,0,1-2.11,0,2.7,2.7,0,0,0-3.63.54,13.12,13.12,0,0,0-2.65,4,4.78,4.78,0,0,0-.42,2.09A14.59,14.59,0,0,0,99.77,116a2.48,2.48,0,0,0,2.54.73,8.29,8.29,0,0,0,5.28-4.52,4,4,0,0,0,.21-2.63,3.19,3.19,0,0,1,0-1.4C108.06,107,108.74,106,109,104.81Zm-2.39-4.42a0.85,0.85,0,0,0,.79.26,1.92,1.92,0,0,0-1.3-1.31,4.56,4.56,0,0,0-2.87-.08,1.88,1.88,0,0,1-1.31,0c-1.72-.84-3.12-0.22-4.34,1a9.49,9.49,0,0,0-1.92,3.05,0.78,0.78,0,0,0,0,.94l0.46-.72a17.81,17.81,0,0,1,2-2.93,2.72,2.72,0,0,1,3.13-.88,2.38,2.38,0,0,0,2,.12A3.69,3.69,0,0,1,106.61,100.39ZM106.93,84c0.17,0,.17-0.32,0-0.31a1.22,1.22,0,0,0-.83.51c-0.16.17-.32,0.34-0.48,0.5a1.31,1.31,0,0,1-.74.49c-0.17,0-.17.31,0,0.31a1.41,1.41,0,0,0,.88-0.54A2.55,2.55,0,0,1,106.93,84Zm-0.61,7c0.45-1.34,0-3.5-.72-4A16.25,16.25,0,0,0,106.31,91Zm-4.19-2.13a1.88,1.88,0,0,0-.47-1.78,8.78,8.78,0,0,1-.12,2,4,4,0,0,1-.58,1.83c-0.27-1.47.64-2.88-.22-4.17l-0.28,0c0,1-.06,2.05,0,3.07a3.11,3.11,0,0,1-1.09,2.8,8.13,8.13,0,0,0-.83.95c-0.08.1-.17,0.2,0,0.33s0.19,0,.26,0C100.35,92.49,101.84,91.07,102.13,88.87Zm-0.1-9c0.61-1.55,1.74-5.21-.69-5.58a9.52,9.52,0,0,0-1.41,0,1.5,1.5,0,0,1-1.36-.66,1.17,1.17,0,0,0-1.14-.45,5,5,0,0,0-1.39.5,0.2,0.2,0,0,0-.15,0l-0.44.18h0l-0.07,0c-2.26.93-4.52,1.85-6.77,2.79a8.09,8.09,0,0,0-2.69,1.61,10.42,10.42,0,0,0-1.77,2.66l-0.05.1a0.24,0.24,0,0,0,.32.32l0.1-.05,5.16-2.57A5.26,5.26,0,0,1,91,78.16a3.32,3.32,0,0,1,1.48.2,2.48,2.48,0,0,0,1.94-.24c0.65-.36,1.53-1.15,2.31-0.68,0.48,0.29.72,0.94,1.33,1a1.11,1.11,0,0,0,.67-0.19,1.1,1.1,0,0,1,1.36.26c0.45,0.42.73,1,1.18,1.35a2.19,2.19,0,0,0,.34.25A0.24,0.24,0,0,0,102,80Zm-0.25,3.88a1.94,1.94,0,0,0-.65-1c-0.32-.44-0.6-0.91-0.91-1.36a2.7,2.7,0,0,0-2-1.5,0.19,0.19,0,0,0,0,.38c0.89,0,1.46,1,1.89,1.66,0.21,0.32.41,0.64,0.63,1a2.88,2.88,0,0,1,.65.88C101.38,84,101.76,83.95,101.77,83.71ZM101,85.77c0.15,0.19.41-.08,0.27-0.27-0.71-.91-0.66-2.28-1.66-3-0.2-.14-0.39.19-0.19,0.33C100.33,83.49,100.31,84.9,101,85.77Zm-2-1.94a7.56,7.56,0,0,0-.28-2.39,2.09,2.09,0,0,0-1.31-1.52,2.74,2.74,0,0,0-1.91.24l-0.42.2h0c0.14-.2-0.18-0.38-0.33-0.19-1.33,1.84-3.13,3.55-5.53,3.62a0.19,0.19,0,0,0,0,.38c2.5-.07,4.39-1.81,5.79-3.72a0.17,0.17,0,0,0,0,.14,3.77,3.77,0,0,0-.6,1.27,6.19,6.19,0,0,0-.16,2.42c0.12,1.07.22,2.49,1.08,3.21l-0.09,0A12.78,12.78,0,0,0,92.63,87c-0.24,0-.24.36,0,0.38A19.69,19.69,0,0,1,95.8,88a2.85,2.85,0,0,0,2.35-.56,0.19,0.19,0,0,0,0-.29,2.87,2.87,0,0,0,.5-0.87A7.83,7.83,0,0,0,99,83.83ZM95.46,89.1c0.14-.2-0.19-0.39-0.33-0.19l-0.58.82c-0.14.2,0.19,0.39,0.33,0.19Zm-1.16,0c0.09-.22-0.23-0.41-0.33-0.19a1.66,1.66,0,0,1-.55.7c-0.2.14,0,.47,0.19,0.32A2,2,0,0,0,94.3,89.08ZM92.87,88c0.19-.16-0.08-0.42-0.27-0.27a9,9,0,0,1-3.42,1.76,0.19,0.19,0,0,0,.1.36A9.42,9.42,0,0,0,92.87,88Zm-2.53-2.31a2.17,2.17,0,0,0,2-1.15A3,3,0,0,0,90.33,85.64Zm1.59,0a6.11,6.11,0,0,0-1.7.9C90.91,86.9,91.41,86.66,91.93,85.68Zm-12.85-1.3,0,0v0h0L79,84.31l0,0.05Z" transform="translate(-16.04 -18.9)"/><path class="e" d="M134.62,73.14l-0.5-.15V72.91a0.27,0.27,0,0,1,.33-0.29,0.18,0.18,0,0,1,.12.16C134.57,72.9,134.59,73,134.62,73.14Z" transform="translate(-16.04 -18.9)"/><path class="e" d="M134.44,72.59v0a0.27,0.27,0,0,0-.33.29V73L131,72.05A23.26,23.26,0,0,1,126,70.17a6.36,6.36,0,0,1-2.88-3.24,5.62,5.62,0,0,1-.23-2.28,5,5,0,0,0,0-2.09l0.34-.33c0.55,1.38-.12,2.72.24,4.16a5.76,5.76,0,0,0,2.93,3.45,24.8,24.8,0,0,0,5,1.8Z" transform="translate(-16.04 -18.9)"/><path class="e" d="M131.41,83.64l0,0-0.4.17h-0.07c0-.05,0-0.11,0-0.17a0.24,0.24,0,0,1,.4-0.17Z" transform="translate(-16.04 -18.9)"/><path class="e" d="M131.36,83.69c0,0.18,0,.35,0,0.53a1.73,1.73,0,0,1-.4-0.37Z" transform="translate(-16.04 -18.9)"/><path class="e" d="M131.36,84.22q0,3.76-.06,7.51c0-.24-0.35-0.15-0.38.13l-0.1-.08,0.07-7.93H131A1.73,1.73,0,0,0,131.36,84.22Z" transform="translate(-16.04 -18.9)"/><path class="e" d="M131.3,91.73a0.23,0.23,0,0,1,0,.05V91.73Z" transform="translate(-16.04 -18.9)"/><path class="e" d="M131.3,91.73v0.09a0.24,0.24,0,0,1-.47,0h0l0.1,0.08C130.95,91.58,131.28,91.49,131.3,91.73Z" transform="translate(-16.04 -18.9)"/><path class="e" d="M131.29,91.82v0A0.2,0.2,0,0,1,131.29,91.82Z" transform="translate(-16.04 -18.9)"/><path class="e" d="M130.82,91.79a0.24,0.24,0,0,0,.47,0c-0.33,3.42-.56,6.92-0.89,10.35-0.51,5.33-1,10.92-3.69,15.68A16.61,16.61,0,0,1,121,124l0.07-.12a0.24,0.24,0,0,0-.19-0.35,14,14,0,0,0,2.09-1.6c3.67-3.38,5.33-8.17,6.15-13,0.47-2.73.7-5.49,1-8.25C130.36,97.74,130.54,94.72,130.82,91.79Z" transform="translate(-16.04 -18.9)"/><path class="e" d="M127.83,84c0.11-.28.57-0.16,0.46,0.13a42.09,42.09,0,0,0-2.07,7.37,45.29,45.29,0,0,0-.69,7c-0.07,2.41,0,4.82-.2,7.22-0.29,3.94-1.22,8-3.82,11.07-0.2.23-.53-0.1-0.34-0.34a15.1,15.1,0,0,0,3-6c1.12-4.38.76-8.94,1-13.42A42.39,42.39,0,0,1,127.83,84Z" transform="translate(-16.04 -18.9)"/><path class="e" d="M125.69,53.36a7.46,7.46,0,0,1-.48,6.33,13.38,13.38,0,0,1-2,2.54l-0.1-.23a0.17,0.17,0,0,0-.31,0h0a12.88,12.88,0,0,0,2.08-2.59,7,7,0,0,0,.37-6l0,0.1C125.37,53.79,125.73,53.61,125.69,53.36Z" transform="translate(-16.04 -18.9)"/><path class="e" d="M125.69,53.36c0,0.24-.31.42-0.43,0.17l0-.1h0a0.24,0.24,0,0,1,.43-0.19l0,0.06Z" transform="translate(-16.04 -18.9)"/><path class="e" d="M125.69,53.36l0-.07A0.24,0.24,0,0,1,125.69,53.36Z" transform="translate(-16.04 -18.9)"/><path class="e" d="M125.66,53.3l0-.06Z" transform="translate(-16.04 -18.9)"/><path class="e" d="M125.63,53.24a0.24,0.24,0,0,0-.43.19h0c-1-2.08-3.34-3.13-5.34-4.11a66.79,66.79,0,0,0-7.56-3.12c-4.59-1.57-9.63-3.15-14.47-1.84a42.79,42.79,0,0,0-6.77,2.38,21,21,0,0,0-5.29,3.58c-6.38,5.83-9.57,14.31-16,20l-0.46-.09-0.07-.08c3.89-3.38,6.62-7.79,9.49-12,2.42-3.55,5-7.06,8.5-9.67a22.49,22.49,0,0,1,6-3.16,29.5,29.5,0,0,1,7-1.93,21.27,21.27,0,0,1,7.35.85,67.62,67.62,0,0,1,13.72,5.22l0.33,0.17a0.24,0.24,0,0,0,.23.12A8.37,8.37,0,0,1,125.63,53.24Z" transform="translate(-16.04 -18.9)"/><path class="f" d="M125.2,53.44a7,7,0,0,1-.37,6A12.88,12.88,0,0,1,122.76,62a18.87,18.87,0,0,1-1.94,1.65A19.11,19.11,0,0,1,110,67.28c-2.22.08-4.45-.07-6.67-0.05a32,32,0,0,0-6.38.72c-4.17.88-8.22,2.24-12.46,2.81l-0.24,0a47.23,47.23,0,0,1-10.56.14q-2-.19-3.9-0.55c6.47-5.73,9.66-14.21,16-20a21,21,0,0,1,5.29-3.58,42.79,42.79,0,0,1,6.77-2.38c4.84-1.31,9.87.27,14.47,1.84a66.79,66.79,0,0,1,7.56,3.12c2,1,4.29,2,5.34,4.11h0Z" transform="translate(-16.04 -18.9)"/><path class="h" d="M125.15,107.82a0.13,0.13,0,0,1,0,0h0Z" transform="translate(-16.04 -18.9)"/><path class="h" d="M125.13,107.88v0h0Z" transform="translate(-16.04 -18.9)"/><path class="e" d="M123.07,62l0.1,0.23-0.34.33a2.27,2.27,0,0,0-.11-0.26,0.29,0.29,0,0,1,0-.32A0.17,0.17,0,0,1,123.07,62Z" transform="translate(-16.04 -18.9)"/><path class="e" d="M122.76,62h0a0.29,0.29,0,0,0,0,.32,2.27,2.27,0,0,1,.11.26,19.24,19.24,0,0,1-13.24,5.2c-2.32.06-4.63-.11-6.95-0.05a33,33,0,0,0-6.75.94c-2.17.51-4.31,1.14-6.49,1.65q-2.34.56-4.72,0.89l0-.15a0.2,0.2,0,0,0-.26-0.22V70.74c4.24-.57,8.28-1.92,12.46-2.81a32,32,0,0,1,6.38-.72c2.22,0,4.45.13,6.67,0.05a19.11,19.11,0,0,0,10.86-3.65A18.87,18.87,0,0,0,122.76,62Z" transform="translate(-16.04 -18.9)"/><path class="e" d="M121.83,49.79a0.24,0.24,0,0,1-.23-0.12Z" transform="translate(-16.04 -18.9)"/><path class="e" d="M120.87,123.49a0.24,0.24,0,0,1,.19.35L121,124c-0.27.16-.54,0.32-0.82,0.46q0.24-.39.46-0.79Z" transform="translate(-16.04 -18.9)"/><path class="e" d="M120.65,123.61a0.21,0.21,0,0,1,.22-0.12l-0.24.14Z" transform="translate(-16.04 -18.9)"/><path class="e" d="M120.17,124.43c0.28-.14.55-0.3,0.82-0.46-2.2,3.92-5.66,6.84-8.91,9.86a15.21,15.21,0,0,1-4.2,3.26,9,9,0,0,1-1.26.43c0-.08,0-0.15,0-0.23a0.22,0.22,0,0,0-.16-0.22,8.27,8.27,0,0,0,1.88-.73,9.8,9.8,0,0,0,2.15-1.66c0.72-.69,1.45-1.37,2.19-2C115.42,130.13,118.21,127.6,120.17,124.43Z" transform="translate(-16.04 -18.9)"/><path class="e" d="M120.63,123.64q-0.22.4-.46,0.79a11.89,11.89,0,0,1-3.9,1.24c-0.3,0-.3-0.44,0-0.47A11.5,11.5,0,0,0,120.63,123.64Z" transform="translate(-16.04 -18.9)"/><path class="i" d="M119.89,106.19c0.2,1.72-4.33,13.07-4.42,13.33-1.46,4.35-5.3,9.16-11.13,9.23a9.67,9.67,0,0,1-7.5-3.23,83,83,0,0,1-6.41-8.5,0.79,0.79,0,0,1-.12-0.2c-0.08-.26-5.41-6.77-6.84-13.76a108.24,108.24,0,0,0,7.36,13.44c1.77,2.26,3.22,4.75,5,7a11.63,11.63,0,0,0,5.51,4.19c3.72,1.1,6.94,0,9.74-2.55a15.72,15.72,0,0,0,3.82-5.73C115,119.15,119.84,105.84,119.89,106.19Z" transform="translate(-16.04 -18.9)"/><path class="e" d="M119.58,79.6a0.24,0.24,0,0,1-.32.33l-0.1-.07v0l0.32-.32,0,0Z" transform="translate(-16.04 -18.9)"/><path class="e" d="M116.75,74.79l2.77,4.71,0,0-0.85-.57-2.4-4.08c-0.4-.68-0.76-1.4-1.21-2a0.89,0.89,0,0,0-1-.52,4.08,4.08,0,0,0-.89.67,8.2,8.2,0,0,1-3.64,1.58c-0.69.11-1.37,0.07-2.06,0.13a2.14,2.14,0,0,0-1.75,1.16c-0.69,1.21-.63,2.68-1.3,3.91a1.82,1.82,0,0,1-.39-0.12l-0.06,0a0.24,0.24,0,0,1,0-.08c0.81-1.46.58-3.37,1.81-4.61a2.59,2.59,0,0,1,1.82-.72A11.74,11.74,0,0,0,110,74a7.82,7.82,0,0,0,2.22-1,10.2,10.2,0,0,0,1.06-.8,1.7,1.7,0,0,1,.74-0.41,1.37,1.37,0,0,1,1.32.69A25.62,25.62,0,0,1,116.75,74.79Z" transform="translate(-16.04 -18.9)"/><path class="e" d="M119.5,79.52l-0.32.32-0.53-.89Z" transform="translate(-16.04 -18.9)"/><path class="e" d="M118.65,78.95l0.53,0.89v0l-4.63-3.1A8.29,8.29,0,0,0,113.4,76a0.83,0.83,0,0,0-1.09.33,1.58,1.58,0,0,1-1.09.77,4.57,4.57,0,0,1-.94-0.3,2,2,0,0,0-1.38.28,7.23,7.23,0,0,0-1.75,1.67,3.28,3.28,0,0,1-3.08,1.38l0.06-.27a0.21,0.21,0,0,0,.21-0.12v0c1.52,0.29,2.63-1.67,3.58-2.53a3.26,3.26,0,0,1,1.8-.89,2,2,0,0,1,.95.12,0.72,0.72,0,0,0,.94,0,2.39,2.39,0,0,1,1.21-1,3.32,3.32,0,0,1,2,.94Z" transform="translate(-16.04 -18.9)"/><path class="j" d="M116.25,74.87l2.4,4.08-3.81-2.54a3.32,3.32,0,0,0-2-.94,2.39,2.39,0,0,0-1.21,1,0.72,0.72,0,0,1-.94,0,2,2,0,0,0-.95-0.12,3.26,3.26,0,0,0-1.8.89c-1,.86-2.07,2.82-3.58,2.53,0.67-1.22.61-2.7,1.3-3.91a2.14,2.14,0,0,1,1.75-1.16c0.69-.06,1.37,0,2.06-0.13A8.2,8.2,0,0,0,113.1,73a4.08,4.08,0,0,1,.89-0.67,0.89,0.89,0,0,1,1,.52C115.48,73.47,115.85,74.19,116.25,74.87Z" transform="translate(-16.04 -18.9)"/><path class="i" d="M115.51,88.76a0.19,0.19,0,0,1,0,.38,9.54,9.54,0,0,1-3.42-.79c-0.22-.1,0-0.42.19-0.32A9.06,9.06,0,0,0,115.51,88.76Z" transform="translate(-16.04 -18.9)"/><path class="i" d="M115.76,85.82a1.36,1.36,0,0,1-2-.8,0.33,0.33,0,0,1,.1-0.42c0.16-.08.23,0.09,0.3,0.18A3.45,3.45,0,0,0,115.76,85.82Z" transform="translate(-16.04 -18.9)"/><path class="i" d="M114.61,86.53a0.19,0.19,0,0,1,.18.22,0.31,0.31,0,0,1-.34.25,1.52,1.52,0,0,1-1.55-1.18A8.69,8.69,0,0,0,114.61,86.53Z" transform="translate(-16.04 -18.9)"/><path class="k" d="M114.38,79.49l0.2,0-0.09.1Z" transform="translate(-16.04 -18.9)"/><path class="i" d="M114.12,127.71c1-1-2.72,4.08-6.76,5.55a9.56,9.56,0,0,1-10.45-2,26.16,26.16,0,0,1-5.74-7.47c-0.08-.16-0.44-0.39-0.1-0.58s0.42,0.15.55,0.34c1,1.45,1.88,2.92,2.94,4.29a13.85,13.85,0,0,0,6.08,4.86,9.67,9.67,0,0,0,7.85-.7A21.86,21.86,0,0,0,114.12,127.71Z" transform="translate(-16.04 -18.9)"/><path class="i" d="M113.73,103.49c0.15,0.19-.18.38-0.33,0.19a33.11,33.11,0,0,1-3-4.4,13.72,13.72,0,0,1-.82-1.86,6.54,6.54,0,0,0-.07-1.28l0-.1h0.05a15,15,0,0,0,1.26,3.22A34.24,34.24,0,0,0,113.73,103.49Z" transform="translate(-16.04 -18.9)"/><path class="e" d="M112.38,139.89a0.94,0.94,0,0,1,.2.79h-0.05a0.15,0.15,0,0,0-.16-0.19h-0.1s0,0,0-.06a0.16,0.16,0,0,0,.13-0.16,0.17,0.17,0,0,0-.17-0.17h-0.09a1,1,0,0,0-1-.21c-0.45,0-.23-0.31-0.39-0.52l0.1-.07,0.19-.12a0.44,0.44,0,0,1,.07.14,1.11,1.11,0,0,0,0,.19c0,0.07.06,0,.15,0A1.21,1.21,0,0,1,112.38,139.89Z" transform="translate(-16.04 -18.9)"/><path class="e" d="M112.52,140.67h0.05a1,1,0,0,1-.41.63A0.43,0.43,0,0,0,112,141a0.69,0.69,0,0,0,.19-0.2h0.19A0.17,0.17,0,0,0,112.52,140.67Z" transform="translate(-16.04 -18.9)"/><path class="e" d="M112.36,140.48a0.15,0.15,0,0,1,.16.19,0.17,0.17,0,0,1-.16.15h-0.19a0.6,0.6,0,0,0,.09-0.34h0.1Z" transform="translate(-16.04 -18.9)"/><path class="e" d="M112.39,140.27a0.16,0.16,0,0,1-.13.16,0.63,0.63,0,0,0-.08-0.24l-0.05-.08h0.09A0.17,0.17,0,0,1,112.39,140.27Z" transform="translate(-16.04 -18.9)"/><path class="e" d="M112.27,140.48a0.6,0.6,0,0,1-.09.34,2.29,2.29,0,0,1-.47-0.06,0.17,0.17,0,0,1,.09-0.32A1.85,1.85,0,0,0,112.27,140.48Z" transform="translate(-16.04 -18.9)"/><path class="g" d="M112.27,140.48a1.85,1.85,0,0,1-.47,0,0.17,0.17,0,0,0-.09.32,2.29,2.29,0,0,0,.47.06,0.69,0.69,0,0,1-.19.2,2.51,2.51,0,0,0-.8-0.29,2.39,2.39,0,0,0-.45-0.1,1.51,1.51,0,0,1,0-1.26c0.16,0.21-.07.54,0.39,0.52a1,1,0,0,1,1,.21,1.14,1.14,0,0,1-.34,0,0.17,0.17,0,0,0-.09.32,1.45,1.45,0,0,0,.52,0h0S112.27,140.46,112.27,140.48Z" transform="translate(-16.04 -18.9)"/><path class="e" d="M112.26,140.42h0a1.45,1.45,0,0,1-.52,0,0.17,0.17,0,0,1,.09-0.32,1.14,1.14,0,0,0,.34,0l0.05,0.08A0.63,0.63,0,0,1,112.26,140.42Z" transform="translate(-16.04 -18.9)"/><path class="e" d="M112.17,141.34a0.46,0.46,0,0,1-.54.46,0.94,0.94,0,0,0-.11-0.35h0l0.08-.09a0.15,0.15,0,0,0,.2.1,1.1,1.1,0,0,0,.33-0.16v0Z" transform="translate(-16.04 -18.9)"/><path class="i" d="M112.09,87.12c0.24,0,.24.36,0,0.38a4.56,4.56,0,0,0-1.75.56h0l-0.12-.23a2.15,2.15,0,0,0,.71-0.46A4.3,4.3,0,0,1,112.09,87.12Z" transform="translate(-16.04 -18.9)"/><path class="e" d="M112,141a0.43,0.43,0,0,1,.18.28,1.1,1.1,0,0,1-.33.16,0.15,0.15,0,0,1-.2-0.1c0-.07.05-0.11,0-0.14a0.15,0.15,0,0,1,.1-0.08A0.78,0.78,0,0,0,112,141Z" transform="translate(-16.04 -18.9)"/><path class="e" d="M111.65,81.45a7.53,7.53,0,0,1,.28,2.39,7.8,7.8,0,0,1-.33,2.47,2.8,2.8,0,0,1-.67,1.06h0l-0.32.14-0.24-.1a1.6,1.6,0,0,0,.23-0.16,3.23,3.23,0,0,0,.95-2.24,11.55,11.55,0,0,0,0-2.2,3.19,3.19,0,0,0-1-2.41,2.09,2.09,0,0,0-2,0,0.17,0.17,0,0,0-.17-0.28h0a2.74,2.74,0,0,1,1.91-.24A2.09,2.09,0,0,1,111.65,81.45Z" transform="translate(-16.04 -18.9)"/><path class="e" d="M111.18,140.73a2.51,2.51,0,0,1,.8.29,0.78,0.78,0,0,1-.24.12,0.15,0.15,0,0,0-.1.08l-0.1,0-0.11,0-0.34-.1a1.25,1.25,0,0,0-.33-0.09l-0.07,0-0.1-.15a0.15,0.15,0,0,0,.16-0.16v-0.06A2.39,2.39,0,0,1,111.18,140.73Z" transform="translate(-16.04 -18.9)"/><path class="e" d="M111.64,141.22s0,0.08,0,.14A0.18,0.18,0,0,1,111.64,141.22Z" transform="translate(-16.04 -18.9)"/><path class="e" d="M111.63,141.8a1.28,1.28,0,0,1,0,.22,9.4,9.4,0,0,1-.42,2q-0.15.54-.35,1.08a3.83,3.83,0,0,1-.34.86,1,1,0,0,1-1.07.24,2.2,2.2,0,0,1-1.38-1.78c0-.36,0-0.72,0-1.07a0.16,0.16,0,0,0-.06-0.13,0.15,0.15,0,0,1,.16.12c0.21,0.77.35,2,1.12,2.43a1.11,1.11,0,0,0,.79.13,0.62,0.62,0,0,0,.33-0.47c0.17-.43.32-0.88,0.45-1.32s0.24-.9.34-1.35c0-.17.07-0.34,0.1-0.51a0.73,0.73,0,0,0,0-.49l0.1,0a0.15,0.15,0,0,0,.1.08Z" transform="translate(-16.04 -18.9)"/><path class="l" d="M111.64,141.22a0.18,0.18,0,0,0,0,.14l-0.08.09h0a0.57,0.57,0,0,0-.41-0.29,0.4,0.4,0,0,0-.23,0h0a0.44,0.44,0,0,1-.16,0q-0.18,0,0-.13l0.07,0a1.25,1.25,0,0,1,.33.09l0.34,0.1,0.11,0Z" transform="translate(-16.04 -18.9)"/><path class="m" d="M111.57,82.82a11.55,11.55,0,0,1,0,2.2,3.23,3.23,0,0,1-.95,2.24,1.6,1.6,0,0,1-.23.16,1.69,1.69,0,0,1-1.7-.06,2.73,2.73,0,0,1-1-2,8.51,8.51,0,0,1-.18-2.59c0-.1,0-0.2,0-0.3a2.9,2.9,0,0,1,1-2l0,0a2.09,2.09,0,0,1,2,0A3.19,3.19,0,0,1,111.57,82.82Zm-1,3.08a2.15,2.15,0,0,0-.84-2l-0.09-.08q0-1,0-2a0.88,0.88,0,0,1,.49.76,0.19,0.19,0,0,0,.38,0,1.29,1.29,0,0,0-.86-1.17l0-.41a0.13,0.13,0,0,0-.27,0c0,0.12,0,.23,0,0.35h-0.2c-0.63.07-.82,1.19-0.7,1.68a2.26,2.26,0,0,0,.84,1.08q0,1.21,0,2.43c-0.58,0-.81-0.78-0.68-1.33a0.19,0.19,0,0,0-.36-0.1,1.34,1.34,0,0,0,.79,1.77,1.1,1.1,0,0,0,.26,0c0,0.15,0,.3,0,0.45a0.13,0.13,0,0,0,.27,0c0-.16,0-0.33,0-0.49A1.29,1.29,0,0,0,110.6,85.89Z" transform="translate(-16.04 -18.9)"/><path class="e" d="M111.52,141.45a0.94,0.94,0,0,1,.11.35l-0.16,0a0.15,0.15,0,0,1-.1-0.08A0.17,0.17,0,0,1,111.52,141.45Z" transform="translate(-16.04 -18.9)"/><path class="e" d="M111.52,141.45a0.17,0.17,0,0,0-.16.25l-0.1,0a0.87,0.87,0,0,0-.14-0.23,0.25,0.25,0,0,0-.23.24,7.87,7.87,0,0,0-.62,1.47c-0.17.42-.32,0.83-0.47,1.25l-0.06,0a2.75,2.75,0,0,1-.15-0.39q0.31-.83.65-1.65c0.13-.3.24-0.66,0.4-1l0.22,0c0.21,0,.22-0.29,0-0.33a0.4,0.4,0,0,1,.23,0A0.57,0.57,0,0,1,111.52,141.45Z" transform="translate(-16.04 -18.9)"/><path class="i" d="M111.37,89.09a0.19,0.19,0,0,1-.19.33l-0.46-.29a0.19,0.19,0,0,1,.19-0.33Z" transform="translate(-16.04 -18.9)"/><path class="l" d="M111.26,141.74a0.73,0.73,0,0,1,0,.49c0,0.17-.06.34-0.1,0.51q-0.14.68-.34,1.35c-0.13.45-.28,0.89-0.45,1.32a0.62,0.62,0,0,1-.33.47,1.11,1.11,0,0,1-.79-0.13c-0.78-.42-0.91-1.66-1.12-2.43a0.15,0.15,0,0,0-.16-0.12,0.17,0.17,0,0,0-.27.13q0,1.05.05,2.11a3,3,0,0,1,0,.93,1.39,1.39,0,0,1-1.13.22,38.19,38.19,0,0,1-4.13-.11,11.49,11.49,0,0,1-.22-3.29V143c0-.22-0.32-0.21-0.34,0v0.08a0.17,0.17,0,0,0,0,.07c-0.23.56-.48,1.11-0.77,1.65-0.11.22-.22,0.44-0.36,0.65-0.34.51-.78,0.13-1-0.22a12.58,12.58,0,0,1-1.26-2.93c0.14-.05.28-0.16,0.44-0.2h0q0.69,1.32,1.29,2.68l0.05,0.12a0.17,0.17,0,0,0,.31,0l0-.12a17.6,17.6,0,0,1,.47-1.79,3.32,3.32,0,0,1,.35-1,1.74,1.74,0,0,1,1.18-.15,1.42,1.42,0,0,0,.34.33,5.33,5.33,0,0,0,1,.74,0.76,0.76,0,0,0,.7-0.32,3.15,3.15,0,0,0,.38.34l-0.26,1a2.29,2.29,0,0,0-.17.83,2.23,2.23,0,0,0,.88,1.13,0.17,0.17,0,0,0,.23-0.06l0.08-.12a1.59,1.59,0,0,0,.44-1.15c-0.08-.31-0.28-0.62-0.39-0.92s-0.21-.61-0.29-0.92a1.43,1.43,0,0,0,.12-0.2l0.48,0.26a0.44,0.44,0,0,0,.31.08,1.91,1.91,0,0,0,.66-0.8l0.09-.13a0.14,0.14,0,0,0,.14,0c0.76-.56,1.39.35,1.57,1a12.09,12.09,0,0,0,.43,1.56l0.05,0.11a0.17,0.17,0,0,0,.31,0l0-.11c0.15-.42.31-0.84,0.47-1.25a7.87,7.87,0,0,1,.62-1.47,0.25,0.25,0,0,1,.23-0.24A0.87,0.87,0,0,1,111.26,141.74Z" transform="translate(-16.04 -18.9)"/><path class="e" d="M111,139.19l-0.19.12h-0.17l0.07,0.07a1.51,1.51,0,0,0,0,1.26,0.63,0.63,0,0,0-.33,0c0-.56-0.39-1.32.27-1.66a0.17,0.17,0,0,1,.17,0A0.71,0.71,0,0,1,111,139.19Z" transform="translate(-16.04 -18.9)"/><path class="e" d="M110.9,87.38h0a2.15,2.15,0,0,1-.71.46,1.82,1.82,0,0,1-.52.12c0.31-.12.59-0.29,0.89-0.43Z" transform="translate(-16.04 -18.9)"/><path class="e" d="M110.87,141.17c0.19,0,.18.35,0,0.33l-0.22,0,0.08-.13A0.4,0.4,0,0,1,110.87,141.17Z" transform="translate(-16.04 -18.9)"/><path class="e" d="M110.85,141.16h0a0.4,0.4,0,0,0-.16.16l-0.08.13a0.45,0.45,0,0,1-.42-0.53,0.36,0.36,0,0,1,.2-0.26v0a0.17,0.17,0,0,0,.18.16l0.1,0.15q-0.19.11,0,.13A0.44,0.44,0,0,0,110.85,141.16Z" transform="translate(-16.04 -18.9)"/><path class="e" d="M110.68,139.31h0.17l-0.1.07Z" transform="translate(-16.04 -18.9)"/><path class="e" d="M110.74,140.7a0.15,0.15,0,0,1-.16.16,0.17,0.17,0,0,1-.18-0.16v0a0.63,0.63,0,0,1,.33,0v0.06Z" transform="translate(-16.04 -18.9)"/><path class="l" d="M109.76,83.92a2.15,2.15,0,0,1,.84,2,1.29,1.29,0,0,1-.88,1c0-.13,0-0.26,0-0.39l0.07,0a1.11,1.11,0,0,0,.4-1.35,1.85,1.85,0,0,0-.51-0.74c0-.18,0-0.36,0-0.54Z" transform="translate(-16.04 -18.9)"/><path class="e" d="M110.34,87.42l0.24,0.1c-0.3.14-.58,0.31-0.89,0.43a2,2,0,0,1-.85-0.12c-1.39-.51-1.51-2.28-1.65-3.54a7,7,0,0,1,0-1.59h0.05a0.3,0.3,0,0,0,.26-0.27h0.06c0,0.1,0,.2,0,0.3a8.51,8.51,0,0,0,.18,2.59,2.73,2.73,0,0,0,1,2A1.69,1.69,0,0,0,110.34,87.42Z" transform="translate(-16.04 -18.9)"/><path class="l" d="M109.72,81.44a1.29,1.29,0,0,1,.86,1.17,0.19,0.19,0,0,1-.38,0,0.88,0.88,0,0,0-.49-0.76v-0.4Z" transform="translate(-16.04 -18.9)"/><path class="i" d="M110.21,87.83l0.12,0.23a3.78,3.78,0,0,1-1.22.42,4.05,4.05,0,0,1-2.49-.65,0.19,0.19,0,0,1,.19-0.33,3.32,3.32,0,0,0,2.83.46l0,0A1.82,1.82,0,0,0,110.21,87.83Z" transform="translate(-16.04 -18.9)"/><path class="m" d="M110.18,85.12a1.11,1.11,0,0,1-.4,1.35l-0.07,0q0-1.06,0-2.12A1.85,1.85,0,0,1,110.18,85.12Z" transform="translate(-16.04 -18.9)"/><path class="e" d="M109.79,144.47l0,0.11a0.17,0.17,0,0,1-.31,0l-0.05-.11,0,0,0.31,0Z" transform="translate(-16.04 -18.9)"/><path class="l" d="M109.74,87.38a0.13,0.13,0,0,1-.27,0c0-.15,0-0.3,0-0.45a1,1,0,0,0,.27,0C109.73,87.05,109.73,87.22,109.74,87.38Z" transform="translate(-16.04 -18.9)"/><path class="l" d="M109.47,81a0.13,0.13,0,0,1,.27,0l0,0.41a1.08,1.08,0,0,0-.27-0.06C109.46,81.26,109.46,81.15,109.47,81Z" transform="translate(-16.04 -18.9)"/><path class="e" d="M109.73,144.45l-0.31,0,0.15-.43A2.75,2.75,0,0,0,109.73,144.45Z" transform="translate(-16.04 -18.9)"/><path class="l" d="M109.71,86.5c0,0.13,0,.26,0,0.39a1,1,0,0,1-.27,0c0-.12,0-0.24,0-0.36A0.77,0.77,0,0,0,109.71,86.5Z" transform="translate(-16.04 -18.9)"/><path class="l" d="M109.72,81.44v0.4a0.58,0.58,0,0,0-.25-0.06h0c0-.14,0-0.27,0-0.41A1.08,1.08,0,0,1,109.72,81.44Z" transform="translate(-16.04 -18.9)"/><path class="l" d="M109.7,81.84q0,1,0,2l-0.27-.23q0-.91,0-1.82h0A0.58,0.58,0,0,1,109.7,81.84Z" transform="translate(-16.04 -18.9)"/><path class="l" d="M109.67,84.38q0,1.06,0,2.12a0.77,0.77,0,0,1-.27.07q0-1.21,0-2.43Z" transform="translate(-16.04 -18.9)"/><path class="l" d="M109.67,83.84c0,0.18,0,.36,0,0.54l-0.27-.24c0-.18,0-0.36,0-0.54Z" transform="translate(-16.04 -18.9)"/><path class="i" d="M109.51,96.13a6.54,6.54,0,0,1,.07,1.28c-0.22-.63-0.41-1.26-0.57-1.91a0.16,0.16,0,0,0,0-.13l-0.06-.26a2,2,0,0,1,.57.91Z" transform="translate(-16.04 -18.9)"/><path class="i" d="M109.58,97.42c0,0.46,0,.94,0,1.42a0.83,0.83,0,0,1-.6-0.93,3.51,3.51,0,0,0-.3-1.74,1.49,1.49,0,0,0,.36-0.63v0C109.18,96.15,109.36,96.79,109.58,97.42Z" transform="translate(-16.04 -18.9)"/><path class="i" d="M109.54,96h-0.05a2,2,0,0,0-.57-0.91q-0.11-.45-0.2-0.9c-0.05-.24.31-0.34,0.36-0.1C109.22,94.76,109.37,95.4,109.54,96Z" transform="translate(-16.04 -18.9)"/><path class="e" d="M109.58,144.06l-0.15.43,0,0a12.09,12.09,0,0,1-.43-1.56c-0.18-.65-0.82-1.55-1.57-1a0.14,0.14,0,0,1-.14,0,2.53,2.53,0,0,0,.31-0.48,1.3,1.3,0,0,1,1.33.52A6.28,6.28,0,0,1,109.58,144.06Z" transform="translate(-16.04 -18.9)"/><path class="l" d="M109.45,86.93a1.1,1.1,0,0,1-.26,0,1.34,1.34,0,0,1-.79-1.77,0.19,0.19,0,0,1,.36.1c-0.14.55,0.1,1.35,0.68,1.33C109.44,86.69,109.45,86.81,109.45,86.93Z" transform="translate(-16.04 -18.9)"/><path class="l" d="M109.45,81.38c0,0.14,0,.27,0,0.41a0.68,0.68,0,0,0-.52.63,1.16,1.16,0,0,0,.48,1.18c0,0.18,0,.36,0,0.54a2.26,2.26,0,0,1-.84-1.08c-0.13-.49.07-1.6,0.7-1.68h0.2Z" transform="translate(-16.04 -18.9)"/><path class="m" d="M109.44,81.79q0,0.91,0,1.82a1.16,1.16,0,0,1-.48-1.18A0.68,0.68,0,0,1,109.44,81.79Z" transform="translate(-16.04 -18.9)"/><path class="i" d="M109.33,111.26c0.38,1.2-1.64,4-5,7l2.57,0.68a2.33,2.33,0,0,1,.65.25,0.45,0.45,0,0,1,.23.66c-0.19.31-.41,0.23-0.67,0.08a7.29,7.29,0,0,0-3.11-1,7.41,7.41,0,0,0-4.6,1c-0.14.08-.26,0.18-0.4,0.25s-0.6.24-.77-0.07,0.25-.4.42-0.49c0.62-.33,1.28-0.59,1.93-0.89a10.67,10.67,0,0,1-5.48-9.1,0.81,0.81,0,0,1,.41.68c0.5,1.24,1,2.49,1.45,3.73a8.21,8.21,0,0,0,1.55,2.55,4.3,4.3,0,0,0,5.83.8,10,10,0,0,0,2.91-3.07Z" transform="translate(-16.04 -18.9)"/><path class="i" d="M104.66,100.66c2-.57,4.8,2.09,4.34,4.15-0.26,1.16-.94,2.16-1.18,3.33a3.19,3.19,0,0,0,0,1.4,4,4,0,0,1-.21,2.63,8.29,8.29,0,0,1-5.28,4.52,2.48,2.48,0,0,1-2.54-.73,14.59,14.59,0,0,1-4.15-8.62,4.78,4.78,0,0,1,.42-2.09,13.12,13.12,0,0,1,2.65-4,2.7,2.7,0,0,1,3.63-.54,1.73,1.73,0,0,0,2.11,0A0.61,0.61,0,0,1,104.66,100.66Zm3.18,4.52a1.06,1.06,0,0,0,.64-1.08c-0.13-1.9-2.79-3.41-4.42-2.45a1.19,1.19,0,0,1-1.53-.07c-1.2-.86-2.3-0.89-3.18-0.08a12.34,12.34,0,0,0-2.46,3.16A1,1,0,0,0,97,106c0.49,0.39.8,0,1.13-.32a1.47,1.47,0,0,1,1.75-.52,2.49,2.49,0,0,0,2.12.12,1.26,1.26,0,0,1,.77-0.09c1.26,0.49,2.55-.21,3.61.14A2.6,2.6,0,0,0,107.84,105.18Zm-0.24,1.68a6.4,6.4,0,0,0,.24-0.92,3.15,3.15,0,0,1-1.44.18,17.1,17.1,0,0,0-4.8,0,2.37,2.37,0,0,1-1.39-.18,1.47,1.47,0,0,0-1.74.28,4.61,4.61,0,0,1-.83.59,0.78,0.78,0,0,1-1.15-.3c-0.09-.14,0-0.41-0.33-0.3s-0.11.31-.09,0.48a15.9,15.9,0,0,0,1.66,5.3c0.25,0.49.44,1,1.11,0.45a0.47,0.47,0,0,1,.37-0.09c1.33,0.4,2.73,0,4.06.33a6.12,6.12,0,0,0,1.88.1,1.93,1.93,0,0,0,2-2,2.13,2.13,0,0,0,0-.79A4.28,4.28,0,0,1,107.61,106.86Zm-4.88,9.08a8.33,8.33,0,0,0,3.34-2.7c-1.31.57-2.61,0.19-3.91,0.11-0.86-.05-1.73-0.17-2.59-0.24a0.6,0.6,0,0,0-.71.18,0.76,0.76,0,0,0,.15.81,6.32,6.32,0,0,0,1.61,1.6A2.18,2.18,0,0,0,102.73,115.94Z" transform="translate(-16.04 -18.9)"/><path class="i" d="M109,95.37a0.16,0.16,0,0,1,0,.13Z" transform="translate(-16.04 -18.9)"/><path class="i" d="M109,95.37l0,0.13v0a1.49,1.49,0,0,1-.36.63,3,3,0,0,0-.19-0.35,1.13,1.13,0,0,0,.2-0.38A0.19,0.19,0,0,1,109,95.37Z" transform="translate(-16.04 -18.9)"/><path class="i" d="M108.92,95.12L109,95.37a0.19,0.19,0,0,0-.34.06,1.13,1.13,0,0,1-.2.38,3.49,3.49,0,0,0-.63-0.71,1.08,1.08,0,0,1-.16-1.48A4.64,4.64,0,0,0,108.92,95.12Z" transform="translate(-16.04 -18.9)"/><path class="e" d="M108.43,80.17a0.17,0.17,0,0,1,.17.28l-0.43.2A0.17,0.17,0,0,1,108,80.6a1.81,1.81,0,0,1,.45-0.41h0Z" transform="translate(-16.04 -18.9)"/><path class="e" d="M108.6,80.46l0,0a2.9,2.9,0,0,0-1,2h-0.06a0.64,0.64,0,0,0-.23-0.24c0-.11.05-0.21,0.08-0.32a3.77,3.77,0,0,1,.6-1.27,0.17,0.17,0,0,0,.22.06Z" transform="translate(-16.04 -18.9)"/><path class="i" d="M108.65,96.16a1.43,1.43,0,0,1-.93.44c-0.84.06-1.66-1.16-2.39-.39a0.31,0.31,0,0,0-.33-0.14A0.18,0.18,0,0,1,105,96a1.19,1.19,0,0,1,1.52-.2,2.23,2.23,0,0,0,1.09.48,1.07,1.07,0,0,0,.8-0.41A3,3,0,0,1,108.65,96.16Z" transform="translate(-16.04 -18.9)"/><path class="k" d="M108.49,104.11a1.06,1.06,0,0,1-.64,1.08,2.6,2.6,0,0,1-1.42.17c-1.06-.34-2.35.36-3.61-0.14a1.26,1.26,0,0,0-.77.09,2.49,2.49,0,0,1-2.12-.12,1.47,1.47,0,0,0-1.75.52c-0.34.3-.64,0.71-1.13,0.32a1,1,0,0,1-.13-1.35,12.34,12.34,0,0,1,2.46-3.16c0.88-.81,2-0.78,3.18.08a1.19,1.19,0,0,0,1.53.07C105.7,100.7,108.35,102.21,108.49,104.11Z" transform="translate(-16.04 -18.9)"/><path class="e" d="M108.42,80.17h0a1.81,1.81,0,0,0-.45.41,0.15,0.15,0,0,1,.05-0.23Z" transform="translate(-16.04 -18.9)"/><path class="e" d="M108.12,145.91c0,0.5,0,.93-0.54,1a27.93,27.93,0,0,1-5.19-.09,0.17,0.17,0,0,1-.16-0.12l0-.17,0.2,0,0.16,0.12,0-.11a38.19,38.19,0,0,0,4.13.11,1.39,1.39,0,0,0,1.13-.22,3,3,0,0,0,0-.93q0-1.05-.05-2.11a0.17,0.17,0,0,1,.27-0.13,0.16,0.16,0,0,0-.16.21c0.08,0.3.16,0.65,0.26,1Q108.11,145.17,108.12,145.91Z" transform="translate(-16.04 -18.9)"/><path class="e" d="M108.06,143.35c0,0.36,0,.72,0,1.07-0.1-.35-0.17-0.69-0.26-1a0.16,0.16,0,0,1,.16-0.21A0.16,0.16,0,0,1,108.06,143.35Z" transform="translate(-16.04 -18.9)"/><path class="n" d="M107.85,105.94a6.4,6.4,0,0,1-.24.92,4.28,4.28,0,0,0-.4,3.12,2.13,2.13,0,0,1,0,.79,1.93,1.93,0,0,1-2,2,6.12,6.12,0,0,1-1.88-.1c-1.33-.31-2.73.07-4.06-0.33a0.47,0.47,0,0,0-.37.09c-0.67.58-.87,0-1.11-0.45a15.9,15.9,0,0,1-1.66-5.3c0-.17-0.16-0.38.09-0.48s0.24,0.16.33,0.3a0.78,0.78,0,0,0,1.15.3,4.61,4.61,0,0,0,.83-0.59,1.47,1.47,0,0,1,1.74-.28,2.37,2.37,0,0,0,1.39.18,17.1,17.1,0,0,1,4.8,0A3.15,3.15,0,0,0,107.85,105.94Z" transform="translate(-16.04 -18.9)"/><path class="e" d="M107.63,141.13a0.63,0.63,0,0,1-.06.36,1,1,0,0,0-.35.17l0,0-0.13,0a1,1,0,0,0,.11-0.17,1,1,0,0,0,.05-0.37,0.22,0.22,0,0,0,.17-0.16,0.55,0.55,0,0,0,0-.14A0.4,0.4,0,0,1,107.63,141.13Z" transform="translate(-16.04 -18.9)"/><path class="e" d="M107.3,140.61a0.2,0.2,0,0,1,.11.21l-0.07,0a0.22,0.22,0,0,0,0-.12Z" transform="translate(-16.04 -18.9)"/><path class="e" d="M107.41,140.82a0.55,0.55,0,0,1,0,.14,0.22,0.22,0,0,1-.17.16h0a0.18,0.18,0,0,1-.21-0.17,0.25,0.25,0,0,0,.35-0.14Z" transform="translate(-16.04 -18.9)"/><path class="e" d="M107.33,140.68a0.22,0.22,0,0,1,0,.12,0.46,0.46,0,0,0-.22,0,0.14,0.14,0,0,0-.12.15h0l0-.16,0,0.06v0a0.22,0.22,0,0,1,0-.07l-0.07-.18a0.84,0.84,0,0,1,.5,0Z" transform="translate(-16.04 -18.9)"/><path class="e" d="M107.22,141.66a1,1,0,0,1,.35-0.17,2.53,2.53,0,0,1-.31.48,0.19,0.19,0,0,1-.07-0.28Z" transform="translate(-16.04 -18.9)"/><path class="e" d="M107.26,82.19a0.64,0.64,0,0,1,.23.24,0.3,0.3,0,0,1-.26.27h-0.05A5.08,5.08,0,0,1,107.26,82.19Z" transform="translate(-16.04 -18.9)"/><path class="e" d="M107.12,140.79a0.46,0.46,0,0,1,.22,0,0.25,0.25,0,0,1-.35.14A0.14,0.14,0,0,1,107.12,140.79Z" transform="translate(-16.04 -18.9)"/><path class="i" d="M107.39,100.65a0.85,0.85,0,0,1-.79-0.26,3.69,3.69,0,0,0-3.37-.54,2.38,2.38,0,0,1-2-.12,2.72,2.72,0,0,0-3.13.88,17.81,17.81,0,0,0-2,2.93l-0.46.72a0.78,0.78,0,0,1,0-.94,9.49,9.49,0,0,1,1.92-3.05c1.23-1.21,2.62-1.83,4.34-1a1.88,1.88,0,0,0,1.31,0,4.56,4.56,0,0,1,2.87.08A1.92,1.92,0,0,1,107.39,100.65Z" transform="translate(-16.04 -18.9)"/><path class="l" d="M107.22,141.12a1,1,0,0,1-.05.37,1,1,0,0,1-.11.17l-0.07.1-0.34.49a1.26,1.26,0,0,1-.16.21c-0.11.09,0,.07-0.18,0a3,3,0,0,1-.55-0.29,0.45,0.45,0,0,0-.08-0.14l-0.22-.28,0.33-.22a3.81,3.81,0,0,1,.6-0.27l0.42-.16c0.06,0,.15,0,0.19-0.06A0.26,0.26,0,0,0,107.22,141.12Z" transform="translate(-16.04 -18.9)"/><path class="e" d="M107.21,141.11h0a0.26,0.26,0,0,1-.22,0,0,0,0,0,0,0-.06l0-.07h0A0.18,0.18,0,0,0,107.21,141.11Z" transform="translate(-16.04 -18.9)"/><path class="e" d="M107.25,142l-0.09.13a1.91,1.91,0,0,1-.66.8,0.44,0.44,0,0,1-.31-0.08l-0.48-.26a0.47,0.47,0,0,0,0-.36,3,3,0,0,0,.55.29c0.14,0,.07.06,0.18,0a1.26,1.26,0,0,0,.16-0.21l0.34-.49,0.07-.1,0.13,0A0.19,0.19,0,0,0,107.25,142Z" transform="translate(-16.04 -18.9)"/><path class="i" d="M107.26,82.19a5.08,5.08,0,0,0-.08.51,2.9,2.9,0,0,0-1.71.92,1.19,1.19,0,0,1-.42.21,0.37,0.37,0,0,1-.49-0.09,0.33,0.33,0,0,1,.18-0.4,8.1,8.1,0,0,1,1.95-1.17A0.66,0.66,0,0,1,107.26,82.19Z" transform="translate(-16.04 -18.9)"/><path class="e" d="M107.3,140.61a0.84,0.84,0,0,0-.5,0,9.36,9.36,0,0,1-.64-3l0.47-.11A9.07,9.07,0,0,0,107.3,140.61Z" transform="translate(-16.04 -18.9)"/><path class="e" d="M107,141a0,0,0,0,1,0,.06,0.2,0.2,0,0,1-.08-0.19l0.07,0.05Z" transform="translate(-16.04 -18.9)"/><path class="e" d="M106.94,140.78l0,0.16-0.07-.05v0Z" transform="translate(-16.04 -18.9)"/><path class="i" d="M106.93,83.73c0.17,0,.17.31,0,0.31a2.55,2.55,0,0,0-1.17,1,1.41,1.41,0,0,1-.88.54c-0.17,0-.17-0.31,0-0.31a1.31,1.31,0,0,0,.74-0.49c0.17-.16.33-0.33,0.48-0.5A1.22,1.22,0,0,1,106.93,83.73Z" transform="translate(-16.04 -18.9)"/><path class="e" d="M106.92,140.88a0.2,0.2,0,0,0,.08.19s-0.13,0-.19.06l-0.42.16a3.81,3.81,0,0,0-.6.27l-0.33.22-0.23-.26-0.07-.07h0c0.28-.13.54-0.34,0.81-0.46a6.06,6.06,0,0,1,.87-0.33l0.07,0.18A0.22,0.22,0,0,0,106.92,140.88Z" transform="translate(-16.04 -18.9)"/><path class="e" d="M106.62,137.28c0,0.08,0,.15,0,0.23l-0.47.11c0-.11,0-0.23,0-0.34a0.22,0.22,0,0,1,.05-0.15l0.26-.06A0.22,0.22,0,0,1,106.62,137.28Z" transform="translate(-16.04 -18.9)"/><path class="e" d="M106.2,137.13a0.25,0.25,0,0,1,.26-0.06Z" transform="translate(-16.04 -18.9)"/><path class="g" d="M106.16,137.62a9.36,9.36,0,0,0,.64,3,6.06,6.06,0,0,0-.87.33c-0.28.12-.53,0.34-0.81,0.46h0a0.26,0.26,0,0,0-.24,0,0.17,0.17,0,0,0-.12.14h-0.07a2.24,2.24,0,0,1-1.39-.6,11,11,0,0,0,.26-1.53c0-.51,0-1,0.07-1.55A10.67,10.67,0,0,0,106.16,137.62Z" transform="translate(-16.04 -18.9)"/><path class="i" d="M105.59,87c0.76,0.48,1.17,2.64.72,4A16.25,16.25,0,0,1,105.59,87Z" transform="translate(-16.04 -18.9)"/><path class="e" d="M106.27,144.6a1.59,1.59,0,0,1-.44,1.15l-0.14-.11-0.12-.1a2.34,2.34,0,0,0,.35-0.64,1.07,1.07,0,0,0-.19-0.7,10.29,10.29,0,0,1-.37-1l0-.14,0,0,0.17-.24c0.09,0.31.18,0.62,0.29,0.92S106.19,144.29,106.27,144.6Z" transform="translate(-16.04 -18.9)"/><path class="e" d="M106.15,137.28c0,0.11,0,.23,0,0.34a10.67,10.67,0,0,1-2.54.21c0-.07,0-0.14,0-0.21a0.24,0.24,0,0,0-.13-0.26,10.24,10.24,0,0,0,2.67-.23A0.22,0.22,0,0,0,106.15,137.28Z" transform="translate(-16.04 -18.9)"/><path class="n" d="M105.72,144.2a1.07,1.07,0,0,1,.19.7,2.34,2.34,0,0,1-.35.64,1.17,1.17,0,0,1-.51-1.21l0.3-1.15A10.29,10.29,0,0,0,105.72,144.2Z" transform="translate(-16.04 -18.9)"/><path class="e" d="M105.68,145.63l0.14,0.11-0.08.12a0.17,0.17,0,0,1-.23.06,2.23,2.23,0,0,1-.88-1.13,2.29,2.29,0,0,1,.17-0.83l0.26-1,0.09,0.08a0.17,0.17,0,0,0,.18,0l0,0.1-0.3,1.15a1.17,1.17,0,0,0,.51,1.21l-0.11.16Z" transform="translate(-16.04 -18.9)"/><path class="e" d="M105.75,142.2a0.47,0.47,0,0,1,0,.36l-0.15-.08a0.17,0.17,0,0,1,.17-0.29h0Z" transform="translate(-16.04 -18.9)"/><path class="e" d="M105.75,142.2h0a0.17,0.17,0,0,0-.17.29l0.15,0.08a1.43,1.43,0,0,1-.12.2l0-.12a0.17,0.17,0,0,0-.21-0.12h0a0.31,0.31,0,0,0,0-.29l-0.23-.29a1.18,1.18,0,0,0,.3-0.16l0.22,0.28A0.45,0.45,0,0,1,105.75,142.2Z" transform="translate(-16.04 -18.9)"/><path class="e" d="M105.68,145.63l-0.23.06,0.11-.16Z" transform="translate(-16.04 -18.9)"/><path class="e" d="M105.55,142.64l0,0.12-0.17.24,0,0,0-.07a0.16,0.16,0,0,0,0-.11h0l-0.07,0h0l-0.15-.13,0.1-.15h0A0.17,0.17,0,0,1,105.55,142.64Z" transform="translate(-16.04 -18.9)"/><path class="e" d="M105.43,142.85h0l0,0Z" transform="translate(-16.04 -18.9)"/><path class="e" d="M105.45,141.78a1.18,1.18,0,0,1-.3.16l-0.09-.11,0.11-.19a0.17,0.17,0,0,0,0-.2l0.07,0.07Z" transform="translate(-16.04 -18.9)"/><path class="e" d="M105.4,142.86a0.16,0.16,0,0,1,0,.11l0,0.07-0.06,0-0.05-.19Z" transform="translate(-16.04 -18.9)"/><path class="e" d="M105.4,142.86l-0.13,0,0-.07h0.11Z" transform="translate(-16.04 -18.9)"/><path class="e" d="M105.39,143l0,0.14,0-.1Z" transform="translate(-16.04 -18.9)"/><path class="e" d="M105.38,142.8h0l-0.07,0-0.06,0v0l-0.07,0,0.07-.1Z" transform="translate(-16.04 -18.9)"/><polygon class="e" points="89.33 123.91 89.32 123.9 89.32 123.9 89.33 123.91"/><path class="e" d="M105.36,142.8h0l-0.07,0Z" transform="translate(-16.04 -18.9)"/><path class="i" d="M105.34,96.23c0.19,0.27-.33.57-0.6,0.77a2.68,2.68,0,0,1-3.83-.64,1.4,1.4,0,0,0-1.71-.57c-0.87.22-1.61,0.93-2.62,0.65-0.19-.05-0.27.27-0.27,0.48,0,0.37,0,.74,0,1.11a0.44,0.44,0,0,1-.25.52c-0.3,0-.34-0.27-0.38-0.49a2.06,2.06,0,0,1,0-.7l0-.22A9.72,9.72,0,0,0,96,96,0.2,0.2,0,0,0,96,96a5,5,0,0,0,.13-1,0.18,0.18,0,0,0-.12-0.17l0.1-.54a1.2,1.2,0,0,1,.74-1,2,2,0,0,1-.27,1.41,0.77,0.77,0,0,0,0,.95,0.9,0.9,0,0,0,1,.19,5.27,5.27,0,0,0,.9-0.47,1.67,1.67,0,0,1,2.29.18c0.33,0.26.63,0.56,1,.83a1.75,1.75,0,0,0,2.55.11,2.25,2.25,0,0,1,.64-0.41,0.19,0.19,0,0,0,.32.15h0Z" transform="translate(-16.04 -18.9)"/><path class="e" d="M105.35,142.8h-0.1l0-.06h0.05Z" transform="translate(-16.04 -18.9)"/><path class="e" d="M105.16,142.57l0.18,0-0.1.15-0.11-.1h0Z" transform="translate(-16.04 -18.9)"/><path class="i" d="M105.32,96.21h0a0.19,0.19,0,0,1-.32-0.15A0.31,0.31,0,0,1,105.32,96.21Z" transform="translate(-16.04 -18.9)"/><path class="e" d="M105.23,142.73l0.06,0h-0.05v0Z" transform="translate(-16.04 -18.9)"/><path class="e" d="M105.32,143.07a0.17,0.17,0,0,1-.18,0l-0.09-.08,0-.08v0a0.16,0.16,0,0,0,.16,0h0Z" transform="translate(-16.04 -18.9)"/><path class="e" d="M105.25,142.82l0,0.07h0a0.16,0.16,0,0,1-.16,0,0.14,0.14,0,0,1,.07-0.07l0,0.06Z" transform="translate(-16.04 -18.9)"/><path class="e" d="M105.25,142.82l-0.13,0,0-.06,0.07,0Z" transform="translate(-16.04 -18.9)"/><path class="e" d="M105.15,141.44a0.17,0.17,0,0,1,0,.2l-0.11.19-0.09-.12a0.15,0.15,0,0,0,.11-0.15v0l-0.12.16,0,0a0.18,0.18,0,0,1-.2-0.05l0.09-.16a1.08,1.08,0,0,0,.24-0.08h0Z" transform="translate(-16.04 -18.9)"/><path class="e" d="M105.24,142.67l-0.07.1a0.14,0.14,0,0,0-.07.07,0.17,0.17,0,0,1,0-.27Z" transform="translate(-16.04 -18.9)"/><path class="e" d="M104.92,142.28a0.59,0.59,0,0,0,.2.3,0.17,0.17,0,0,0,0,.27v0l0,0.08a3.15,3.15,0,0,1-.38-0.34l0.09-.07c0.17-.13,0-0.42-0.17-0.29l-0.07.05a0.68,0.68,0,0,1,.07-0.32H105A0.52,0.52,0,0,0,104.92,142.28Z" transform="translate(-16.04 -18.9)"/><path class="e" d="M105.11,141.42h0a1.08,1.08,0,0,1-.24.08v0A0.15,0.15,0,0,1,105.11,141.42Z" transform="translate(-16.04 -18.9)"/><path class="e" d="M105.08,141.57a0.15,0.15,0,0,1-.11.15l0,0,0.12-.16v0Z" transform="translate(-16.04 -18.9)"/><path class="e" d="M105.07,141.84l0.09,0.11L105,142Z" transform="translate(-16.04 -18.9)"/><path class="e" d="M105.11,141.42a0.15,0.15,0,0,0-.22.06v0l-0.12,0a0.17,0.17,0,0,1,.12-0.14A0.26,0.26,0,0,1,105.11,141.42Z" transform="translate(-16.04 -18.9)"/><path class="e" d="M105.07,141.84L105,142h-0.39a2.9,2.9,0,0,1,.17-0.32,0.18,0.18,0,0,0,.2.05Z" transform="translate(-16.04 -18.9)"/><path class="e" d="M104.87,141.5l-0.09.16a0.16,0.16,0,0,1,0-.1v0a0.08,0.08,0,0,1,0,0Z" transform="translate(-16.04 -18.9)"/><path class="e" d="M104.6,142.26c0.17-.13.34,0.16,0.17,0.29l-0.09.07a0.59,0.59,0,0,1-.14-0.27,0.19,0.19,0,0,1,0,0Z" transform="translate(-16.04 -18.9)"/><path class="k" d="M106.08,113.25a8.33,8.33,0,0,1-3.34,2.7,2.18,2.18,0,0,1-2.11-.22,6.32,6.32,0,0,1-1.61-1.6,0.76,0.76,0,0,1-.15-0.81,0.6,0.6,0,0,1,.71-0.18c0.86,0.07,1.73.18,2.59,0.24C103.47,113.43,104.77,113.82,106.08,113.25Z" transform="translate(-16.04 -18.9)"/><path class="e" d="M104.75,141.52a0.08,0.08,0,0,0,0,0v0a0.16,0.16,0,0,0,0,.1,2.9,2.9,0,0,0-.17.32,2.74,2.74,0,0,1-1.58-.67l0.1-.16a0.21,0.21,0,0,0,.14-0.16l0-.09a2.24,2.24,0,0,0,1.39.6h0.07Z" transform="translate(-16.04 -18.9)"/><path class="e" d="M104.54,142.35a0.59,0.59,0,0,0,.14.27,0.76,0.76,0,0,1-.7.32,5.33,5.33,0,0,1-1-.74,1.42,1.42,0,0,1-.34-0.33h0a0.17,0.17,0,0,0,.15-0.23H103a1,1,0,0,0,.38.4,6.36,6.36,0,0,0,.77.59l-0.08,0h0.17l-0.09,0a3.72,3.72,0,0,0,.42-0.31A0.19,0.19,0,0,0,104.54,142.35Z" transform="translate(-16.04 -18.9)"/><path class="l" d="M104.61,142a0.68,0.68,0,0,0-.07.32,3.72,3.72,0,0,1-.42.31,6.36,6.36,0,0,1-.77-0.59,1,1,0,0,1-.38-0.4,0.31,0.31,0,0,1,0-.25l0-.06A2.74,2.74,0,0,0,104.61,142Z" transform="translate(-16.04 -18.9)"/><path class="e" d="M104.35,79.75v0a0.21,0.21,0,0,1-.21.12,0.25,0.25,0,0,1-.23-0.27l0.06,0A1.82,1.82,0,0,0,104.35,79.75Z" transform="translate(-16.04 -18.9)"/><path class="e" d="M104.2,142.66H104l0.08,0Z" transform="translate(-16.04 -18.9)"/><path class="e" d="M104.13,79.89l-0.06.27a2.24,2.24,0,0,1-.34-0.12c-0.26-.11-0.07-0.47.18-0.43A0.25,0.25,0,0,0,104.13,79.89Z" transform="translate(-16.04 -18.9)"/><path class="e" d="M103.53,137.35a0.24,0.24,0,0,1,.13.26c0,0.07,0,.14,0,0.21l-0.46,0h0a3,3,0,0,1,0-.31,0.2,0.2,0,0,1,.11-0.15h0.22Z" transform="translate(-16.04 -18.9)"/><path class="e" d="M103.62,137.83c-0.07.51,0,1-.07,1.55a11,11,0,0,1-.26,1.53l-0.09-.09h0a0.23,0.23,0,0,0-.35.09h0a10.37,10.37,0,0,0,.29-1.84c0-.41,0-0.82.05-1.22h0Z" transform="translate(-16.04 -18.9)"/><path class="e" d="M103.53,137.35h-0.22A0.25,0.25,0,0,1,103.53,137.35Z" transform="translate(-16.04 -18.9)"/><path class="e" d="M103.29,140.92l0,0.09a0.21,0.21,0,0,1-.14.16l0.09-.14a0.16,0.16,0,0,0,0-.19Z" transform="translate(-16.04 -18.9)"/><path class="e" d="M103.2,140.83a0.16,0.16,0,0,1,0,.19l-0.09.14a0.26,0.26,0,0,1-.31-0.14l0.11-.17a0.15,0.15,0,0,1,.23-0.05h0Z" transform="translate(-16.04 -18.9)"/><path class="e" d="M103.31,137.34a0.2,0.2,0,0,0-.11.15,3,3,0,0,0,0,.31,14.24,14.24,0,0,1-9.1-4.28,44.52,44.52,0,0,1-4.84-6.72c-0.71-1.09-1.41-2.19-2.12-3.27-0.25-.38-0.5-0.75-0.76-1.12l-0.24-.33A0.53,0.53,0,0,1,86,122h0a0.19,0.19,0,0,0,.27-0.1v0h0a0.19,0.19,0,0,0,0-.24,5.09,5.09,0,0,1,.8,1c0.76,1.13,1.49,2.28,2.23,3.42a54.49,54.49,0,0,0,4.62,6.6A13.82,13.82,0,0,0,103.31,137.34Z" transform="translate(-16.04 -18.9)"/><path class="e" d="M103.19,140.82h0Z" transform="translate(-16.04 -18.9)"/><path class="e" d="M102.82,141a0.26,0.26,0,0,0,.31.14l-0.1.16-0.18-.16a0.24,0.24,0,0,1-.06-0.09Z" transform="translate(-16.04 -18.9)"/><path class="e" d="M103.16,140.79a0.15,0.15,0,0,0-.23.05l-0.11.17a0.23,0.23,0,0,1,0-.14h0A0.23,0.23,0,0,1,103.16,140.79Z" transform="translate(-16.04 -18.9)"/><path class="e" d="M103,141.32l0,0.06a0.31,0.31,0,0,0,0,.25h-0.11a0.15,0.15,0,0,0-.15-0.11h-0.11a1.06,1.06,0,0,1,.21-0.46,0.24,0.24,0,0,0,.06.09Z" transform="translate(-16.04 -18.9)"/><path class="e" d="M102.85,141.63a0.17,0.17,0,0,1-.15.23h0a0.5,0.5,0,0,1-.08-0.29,0.48,0.48,0,0,1,0-.05h0.11A0.15,0.15,0,0,1,102.85,141.63Z" transform="translate(-16.04 -18.9)"/><path class="e" d="M102.81,140.88a0.23,0.23,0,0,0,0,.14l0,0A0.22,0.22,0,0,1,102.81,140.88Z" transform="translate(-16.04 -18.9)"/><path class="e" d="M102.58,141.52a0.48,0.48,0,0,0,0,.05,0.5,0.5,0,0,0,.08.29,1.74,1.74,0,0,0-1.18.15,3.32,3.32,0,0,0-.35,1,17.6,17.6,0,0,0-.47,1.79h0l-0.2-.45a16.56,16.56,0,0,1,.65-2.14,0.93,0.93,0,0,1,.38-0.58A2.63,2.63,0,0,1,102.58,141.52Z" transform="translate(-16.04 -18.9)"/><path class="e" d="M102.53,146.49l0,0.11-0.16-.12h0.14Z" transform="translate(-16.04 -18.9)"/><path class="e" d="M102.53,146.49h-0.14l-0.2,0a11.83,11.83,0,0,1-.26-2.51c0.11-.25.22-0.5,0.32-0.74a0.17,0.17,0,0,0,0-.06h0A11.49,11.49,0,0,0,102.53,146.49Z" transform="translate(-16.04 -18.9)"/><path class="o" d="M101.94,75a1.78,1.78,0,0,1,.38,1.34,9.72,9.72,0,0,1-.7,3.2c-0.81-.66-1.24-2-2.46-1.93a1.51,1.51,0,0,0-.68.23,0.6,0.6,0,0,1-.83-0.18,2.2,2.2,0,0,0-1.17-.82c-1.36-.22-2.22,1.35-3.56,1.13a6,6,0,0,0-1.9-.3,6.37,6.37,0,0,0-1.87.74l-4.33,2.16a8.36,8.36,0,0,1,1.4-2,8.71,8.71,0,0,1,3-1.69l6.8-2.8c0.6-.11.64-0.37,1.24-0.46a0.89,0.89,0,0,1,.9.18,5.62,5.62,0,0,0,.43.52,3,3,0,0,0,2.1.37A1.73,1.73,0,0,1,101.94,75Z" transform="translate(-16.04 -18.9)"/><path class="e" d="M102.32,76.36a1.78,1.78,0,0,0-.38-1.34,1.73,1.73,0,0,0-1.28-.33,3,3,0,0,1-2.1-.37,5.62,5.62,0,0,1-.43-0.52,0.89,0.89,0,0,0-.9-0.18c-0.6.1-.64,0.35-1.24,0.46a0.26,0.26,0,0,0,0-.46,5,5,0,0,1,1.39-.5,1.17,1.17,0,0,1,1.14.45,1.5,1.5,0,0,0,1.36.66,9.52,9.52,0,0,1,1.41,0c2.43,0.37,1.31,4,.69,5.58l-0.17-.11-0.23-.16A9.72,9.72,0,0,0,102.32,76.36Z" transform="translate(-16.04 -18.9)"/><path class="e" d="M102,143c0-.21.35-0.22,0.34,0v0.18h0a0.17,0.17,0,0,0-.29-0.09V143Z" transform="translate(-16.04 -18.9)"/><path class="e" d="M102.27,143.2a0.17,0.17,0,0,1,0,.06c-0.1.25-.21,0.5-0.32,0.74,0-.3,0-0.6,0-0.9A0.17,0.17,0,0,1,102.27,143.2Z" transform="translate(-16.04 -18.9)"/><path class="i" d="M101.65,87.09a1.88,1.88,0,0,1,.47,1.78c-0.29,2.21-1.78,3.63-3.36,5-0.07.06-.15,0.15-0.26,0s0-.24,0-0.33a8.13,8.13,0,0,1,.83-0.95,3.11,3.11,0,0,0,1.09-2.8c-0.07-1,0-2,0-3.07l0.28,0c0.86,1.29,0,2.7.22,4.17a4,4,0,0,0,.58-1.83A8.78,8.78,0,0,0,101.65,87.09Z" transform="translate(-16.04 -18.9)"/><path class="e" d="M101.85,79.72L102,79.83,102,80a0.24,0.24,0,0,1-.35.14,2.19,2.19,0,0,1-.34-0.25h0.23Z" transform="translate(-16.04 -18.9)"/><path class="e" d="M101.93,143.17a0.17,0.17,0,0,1,0-.07c0,0.3,0,.6,0,0.9a13.91,13.91,0,0,1-.78,1.53,0.8,0.8,0,0,1-1,.5,2.62,2.62,0,0,1-1.12-1.52,17.76,17.76,0,0,1-.87-2.24,0.37,0.37,0,0,0,.36,0,12.58,12.58,0,0,0,1.26,2.93c0.22,0.35.66,0.73,1,.22,0.14-.21.24-0.43,0.36-0.65C101.45,144.28,101.7,143.73,101.93,143.17Z" transform="translate(-16.04 -18.9)"/><path class="e" d="M101.85,79.72l-0.35.14,0.12-.3Z" transform="translate(-16.04 -18.9)"/><path class="i" d="M101.12,82.7a1.94,1.94,0,0,1,.65,1c0,0.24-.39.24-0.38,0a2.88,2.88,0,0,0-.65-0.88c-0.22-.31-0.42-0.63-0.63-1-0.43-.66-1-1.65-1.89-1.66a0.19,0.19,0,0,1,0-.38,2.7,2.7,0,0,1,2,1.5C100.52,81.79,100.8,82.26,101.12,82.7Z" transform="translate(-16.04 -18.9)"/><path class="e" d="M101.62,79.55l-0.12.3h-0.23c-0.45-.4-0.73-0.94-1.18-1.35a1.1,1.1,0,0,0-1.36-.26,1.11,1.11,0,0,1-.67.19c-0.61-.07-0.85-0.73-1.33-1-0.78-.47-1.66.33-2.31,0.68a2.48,2.48,0,0,1-1.94.24,3.32,3.32,0,0,0-1.48-.2,5.26,5.26,0,0,0-1.34.54L84.5,81.27l0,0,0.35-.66,4.33-2.16A6.37,6.37,0,0,1,91,77.68a6,6,0,0,1,1.9.3c1.34,0.22,2.2-1.35,3.56-1.13a2.2,2.2,0,0,1,1.17.82,0.6,0.6,0,0,0,.83.18,1.51,1.51,0,0,1,.68-0.23C100.38,77.59,100.81,78.89,101.62,79.55Z" transform="translate(-16.04 -18.9)"/><path class="i" d="M101.25,85.5c0.15,0.19-.12.46-0.27,0.27-0.67-.86-0.66-2.27-1.59-2.93-0.2-.14,0-0.47.19-0.33C100.59,83.22,100.54,84.59,101.25,85.5Z" transform="translate(-16.04 -18.9)"/><path class="e" d="M100.66,144.76l0,0.12a0.17,0.17,0,0,1-.31,0l-0.05-.12h0l0.31,0h0Z" transform="translate(-16.04 -18.9)"/><path class="e" d="M100.61,144.75l-0.31,0c0-.16.07-0.33,0.11-0.49Z" transform="translate(-16.04 -18.9)"/><path class="e" d="M100.41,144.3c0,0.16-.07.33-0.11,0.49h0q-0.59-1.37-1.29-2.68h0l0.1,0a0.16,0.16,0,0,0,.15-0.12h0l-0.05.2,0.14-.07Q99.92,143.19,100.41,144.3Z" transform="translate(-16.04 -18.9)"/><path class="e" d="M99.71,141.84a0.17,0.17,0,0,1-.08.15l-0.26.13L99.28,142v0h0a0.18,0.18,0,0,0,0-.16c0.1,0,.14-0.07,0-0.19a0.44,0.44,0,0,0-.18-0.07l0-.13a0.15,0.15,0,0,0,.12,0,0.62,0.62,0,0,0,.23-0.12A0.64,0.64,0,0,1,99.71,141.84Z" transform="translate(-16.04 -18.9)"/><path class="e" d="M99.44,139.21a3.27,3.27,0,0,1,.2,1.53,0.76,0.76,0,0,1-.24.58,0.74,0.74,0,0,0-.43-0.08,0.16,0.16,0,0,1,.11-0.12c0.37-.11.19-1,0.16-1.25a1.74,1.74,0,0,0-.05-0.34q0-.24-0.37-0.09a0.69,0.69,0,0,0,0,.2H98.5a0.64,0.64,0,0,1,.26-0.72A0.56,0.56,0,0,1,99.44,139.21Z" transform="translate(-16.04 -18.9)"/><path class="e" d="M99.36,142.12l-0.14.07,0.05-.2v0Z" transform="translate(-16.04 -18.9)"/><path class="g" d="M99.25,139.86c0,0.25.2,1.14-.16,1.25a0.16,0.16,0,0,0-.11.12,1.53,1.53,0,0,0-.75.28l-0.06,0a0.88,0.88,0,0,1-.27-0.21,1.5,1.5,0,0,1,.47-0.15,0.17,0.17,0,0,0,.12-0.21,0.17,0.17,0,0,0-.21-0.12,1.8,1.8,0,0,0-.54.18,0.78,0.78,0,0,1,0-.15h0l0.43-.18a0.17,0.17,0,0,0,.12-0.21,0.17,0.17,0,0,0-.21-0.12l-0.33.14a0.75,0.75,0,0,1,.85-0.46,0.17,0.17,0,0,0,.21-0.16s0-.1,0-0.17a0.69,0.69,0,0,1,0-.2q0.35-.14.37,0.09A1.74,1.74,0,0,1,99.25,139.86Z" transform="translate(-16.04 -18.9)"/><path class="e" d="M99.22,141.82a0.18,0.18,0,0,1,0,.16,0.16,0.16,0,0,1-.15.12l-0.1,0A0.17,0.17,0,0,1,99,141.9Z" transform="translate(-16.04 -18.9)"/><path class="e" d="M99.41,141.32a0.62,0.62,0,0,1-.23.12,0.15,0.15,0,0,1-.12,0,0.18,0.18,0,0,1-.09-0.2A0.74,0.74,0,0,1,99.41,141.32Z" transform="translate(-16.04 -18.9)"/><path class="l" d="M99.21,141.64c0.15,0.12.11,0.15,0,.19a0.14,0.14,0,0,0-.13-0.06,0.74,0.74,0,0,0-.22,0,1.32,1.32,0,0,0-.24.15c-0.21-.1-0.25-0.17-0.11-0.23a0.47,0.47,0,0,1,.51-0.16A0.44,0.44,0,0,1,99.21,141.64Z" transform="translate(-16.04 -18.9)"/><path class="e" d="M99.09,141.76a0.14,0.14,0,0,1,.13.06L99,141.9a0.17,0.17,0,0,0-.06.22c-0.15,0-.29.15-0.44,0.2l-0.08-.25a0.17,0.17,0,0,0-.32.09l0,0.13-0.09-.07a0.37,0.37,0,0,1-.1-0.46h0a0.17,0.17,0,0,0,.23-0.24,1.53,1.53,0,0,1,.75-0.28,0.18,0.18,0,0,0,.09.2l0,0.13a0.47,0.47,0,0,0-.51.16c-0.13.06-.09,0.14,0.11,0.23a1.32,1.32,0,0,1,.24-0.15A0.74,0.74,0,0,1,99.09,141.76Z" transform="translate(-16.04 -18.9)"/><path class="e" d="M98.73,81.45A7.56,7.56,0,0,1,99,83.83a7.83,7.83,0,0,1-.33,2.47,2.87,2.87,0,0,1-.5.87,0.17,0.17,0,0,0-.23,0c-0.17.11-.34,0.22-0.51,0.31l0,0a1.6,1.6,0,0,0,.23-0.16A3.23,3.23,0,0,0,98.6,85a11.48,11.48,0,0,0,0-2.2,3.19,3.19,0,0,0-1-2.41,2.09,2.09,0,0,0-2,0,0.17,0.17,0,0,0-.17-0.28h0a2.74,2.74,0,0,1,1.91-.24A2.09,2.09,0,0,1,98.73,81.45Z" transform="translate(-16.04 -18.9)"/><path class="e" d="M98.82,139.64c0,0.07,0,.14,0,0.17a0.17,0.17,0,0,1-.21.16,0.75,0.75,0,0,0-.85.46l-0.1,0a0.19,0.19,0,0,0-.12.13l-0.16,0a1.14,1.14,0,0,1,1.11-.95c0,0.06,0,.12,0,0.17l0.21-.16h0.11Z" transform="translate(-16.04 -18.9)"/><path class="e" d="M98.71,139.65l-0.21.16c0-.05,0-0.11,0-0.17h0.21Z" transform="translate(-16.04 -18.9)"/><path class="m" d="M98.65,82.82a11.48,11.48,0,0,1,0,2.2,3.23,3.23,0,0,1-.95,2.24,1.6,1.6,0,0,1-.23.16,1.69,1.69,0,0,1-1.7-.06,2.73,2.73,0,0,1-1-2,8.54,8.54,0,0,1-.18-2.59,3.18,3.18,0,0,1,1.06-2.26l0,0a2.09,2.09,0,0,1,2,0A3.19,3.19,0,0,1,98.65,82.82Zm-1,3.08a2.15,2.15,0,0,0-.84-2l-0.09-.08q0-1,0-2a0.89,0.89,0,0,1,.49.76,0.19,0.19,0,0,0,.38,0,1.29,1.29,0,0,0-.86-1.17l0-.41a0.13,0.13,0,0,0-.27,0v0.35h-0.2a0.54,0.54,0,0,0-.18.06c0-.16.06-0.34-0.14-0.4a0.4,0.4,0,0,0-.47.33,2.45,2.45,0,0,0,.06,2.12,0.38,0.38,0,0,0,.35.28l0.09,0a5.9,5.9,0,0,0,.44.41q0,1.21,0,2.43c-0.58,0-.81-0.78-0.67-1.33a0.19,0.19,0,0,0-.36-0.1,1.34,1.34,0,0,0,.79,1.77,1.1,1.1,0,0,0,.26,0c0,0.15,0,.3,0,0.45a0.13,0.13,0,0,0,.27,0c0-.16,0-0.33,0-0.49A1.3,1.3,0,0,0,97.68,85.89Z" transform="translate(-16.04 -18.9)"/><path class="e" d="M98.47,142.07l0.08,0.25a0.37,0.37,0,0,1-.36,0l0-.13A0.17,0.17,0,0,1,98.47,142.07Z" transform="translate(-16.04 -18.9)"/><path class="e" d="M98.5,140.91a0.17,0.17,0,0,1-.12.21,1.5,1.5,0,0,0-.47.15,0.8,0.8,0,0,1-.16-0.29,1.8,1.8,0,0,1,.54-0.18A0.17,0.17,0,0,1,98.5,140.91Z" transform="translate(-16.04 -18.9)"/><path class="e" d="M98.31,140.42a0.17,0.17,0,0,1-.12.21l-0.43.18h0a0.81,0.81,0,0,1,.05-0.38l0.33-.14A0.17,0.17,0,0,1,98.31,140.42Z" transform="translate(-16.04 -18.9)"/><path class="e" d="M98.23,141.51a0.17,0.17,0,0,1-.23.24h0a0.56,0.56,0,0,1,.15-0.18Z" transform="translate(-16.04 -18.9)"/><path class="e" d="M98.23,141.51l-0.08.06a0.56,0.56,0,0,0-.15.18,1.17,1.17,0,0,1-.52-0.5l0.18-.05a0.17,0.17,0,0,0,.22.06h0a0.88,0.88,0,0,0,.27.21Z" transform="translate(-16.04 -18.9)"/><path class="i" d="M98.18,87.17a0.19,0.19,0,0,1,0,.29A2.85,2.85,0,0,1,95.8,88a19.69,19.69,0,0,0-3.16-.64c-0.24,0-.24-0.39,0-0.38a12.78,12.78,0,0,1,2.63.47l0.09,0a1.87,1.87,0,0,0,.57.33A2,2,0,0,0,98.18,87.17Z" transform="translate(-16.04 -18.9)"/><path class="e" d="M98,87.14a0.17,0.17,0,0,1,.23,0,2,2,0,0,1-2.27.65,1.87,1.87,0,0,1-.57-0.33,3.08,3.08,0,0,0,1.4.21,2.2,2.2,0,0,0,.69-0.26C97.62,87.35,97.79,87.24,98,87.14Z" transform="translate(-16.04 -18.9)"/><path class="e" d="M97.91,141.26h0a0.17,0.17,0,0,1-.22-0.06,0.15,0.15,0,0,1,.05-0.23h0A0.8,0.8,0,0,0,97.91,141.26Z" transform="translate(-16.04 -18.9)"/><path class="e" d="M97.67,140.48l0.1,0a0.81,0.81,0,0,0-.05.38,0.18,0.18,0,0,1-.17-0.13,0.17,0.17,0,0,1,0-.07A0.19,0.19,0,0,1,97.67,140.48Z" transform="translate(-16.04 -18.9)"/><path class="e" d="M97.75,141h0a0.15,0.15,0,0,0-.05.23l-0.18.05a1.07,1.07,0,0,1-.1-0.67l0.16,0a0.17,0.17,0,0,0,0,.07,0.18,0.18,0,0,0,.17.13A0.78,0.78,0,0,0,97.75,141Z" transform="translate(-16.04 -18.9)"/><path class="l" d="M96.84,83.92a2.15,2.15,0,0,1,.84,2,1.3,1.3,0,0,1-.88,1q0-.19,0-0.39l0.07,0a1.11,1.11,0,0,0,.4-1.35,1.84,1.84,0,0,0-.51-0.73q0-.27,0-0.54Z" transform="translate(-16.04 -18.9)"/><path class="l" d="M96.8,81.44a1.29,1.29,0,0,1,.86,1.17,0.19,0.19,0,0,1-.38,0,0.89,0.89,0,0,0-.49-0.76C96.79,81.71,96.79,81.57,96.8,81.44Z" transform="translate(-16.04 -18.9)"/><path class="e" d="M97.42,87.42l0,0a2.2,2.2,0,0,1-.69.26,3.08,3.08,0,0,1-1.4-.21c-0.86-.73-1-2.15-1.08-3.21a6.19,6.19,0,0,1,.16-2.42A3.77,3.77,0,0,1,95,80.6a0.17,0.17,0,0,0,.22.06l0.42-.2,0,0a3.18,3.18,0,0,0-1.06,2.26,8.54,8.54,0,0,0,.18,2.59,2.73,2.73,0,0,0,1,2A1.69,1.69,0,0,0,97.42,87.42Z" transform="translate(-16.04 -18.9)"/><path class="m" d="M97.26,85.12a1.11,1.11,0,0,1-.4,1.35l-0.07,0q0-1.06,0-2.12A1.84,1.84,0,0,1,97.26,85.12Z" transform="translate(-16.04 -18.9)"/><path class="l" d="M96.82,87.38a0.13,0.13,0,0,1-.27,0c0-.15,0-0.3,0-0.45a1,1,0,0,0,.27,0C96.81,87.05,96.81,87.22,96.82,87.38Z" transform="translate(-16.04 -18.9)"/><path class="l" d="M96.55,81a0.13,0.13,0,0,1,.27,0l0,0.41a1.09,1.09,0,0,0-.27-0.06V81Z" transform="translate(-16.04 -18.9)"/><path class="l" d="M96.79,86.5q0,0.19,0,.39a1,1,0,0,1-.27,0c0-.12,0-0.24,0-0.36A0.77,0.77,0,0,0,96.79,86.5Z" transform="translate(-16.04 -18.9)"/><path class="l" d="M96.8,81.44c0,0.13,0,.27,0,0.4a0.57,0.57,0,0,0-.25-0.06h0c0-.14,0-0.27,0-0.41A1.09,1.09,0,0,1,96.8,81.44Z" transform="translate(-16.04 -18.9)"/><path class="l" d="M96.78,81.85q0,1,0,2l-0.27-.24q0-.91,0-1.81h0A0.57,0.57,0,0,1,96.78,81.85Z" transform="translate(-16.04 -18.9)"/><path class="l" d="M96.75,84.38q0,1.06,0,2.12a0.77,0.77,0,0,1-.27.07q0-1.21,0-2.43Z" transform="translate(-16.04 -18.9)"/><path class="l" d="M96.75,83.84q0,0.27,0,.54l-0.27-.24q0-.27,0-0.54Z" transform="translate(-16.04 -18.9)"/><path class="l" d="M96.53,86.93a1.1,1.1,0,0,1-.26,0,1.34,1.34,0,0,1-.79-1.77,0.19,0.19,0,0,1,.36.1c-0.14.55,0.1,1.35,0.67,1.33C96.52,86.69,96.53,86.81,96.53,86.93Z" transform="translate(-16.04 -18.9)"/><path class="l" d="M96.53,81.38c0,0.14,0,.27,0,0.41a0.45,0.45,0,0,0-.37.24c0-.17,0-0.35,0-0.52a0.37,0.37,0,0,1,0-.07,0.54,0.54,0,0,1,.18-0.06h0.2Z" transform="translate(-16.04 -18.9)"/><path class="m" d="M96.52,81.79q0,0.91,0,1.81a2.16,2.16,0,0,1-.33-0.37c0-.29,0-0.57,0-0.86,0-.12,0-0.23,0-0.35A0.45,0.45,0,0,1,96.52,81.79Z" transform="translate(-16.04 -18.9)"/><path class="l" d="M96.48,83.6q0,0.27,0,.54A5.9,5.9,0,0,1,96,83.73a0.4,0.4,0,0,0,.11-0.42s0-.05,0-0.08A2.16,2.16,0,0,0,96.48,83.6Z" transform="translate(-16.04 -18.9)"/><path class="i" d="M96.05,94.78a0.18,0.18,0,0,1,.12.17A5,5,0,0,1,96,96a0.22,0.22,0,0,0,0,0L96.16,95,96,95Z" transform="translate(-16.04 -18.9)"/><path class="i" d="M96.16,95L96,95.91a0.17,0.17,0,0,0-.15-0.15c0-.26.09-0.52,0.13-0.78Z" transform="translate(-16.04 -18.9)"/><path class="l" d="M96.14,81.51c0,0.17,0,.34,0,0.52a1.3,1.3,0,0,0-.15.4,1,1,0,0,0,.15.81s0,0.05,0,.08a0.4,0.4,0,0,1-.11.42,1.54,1.54,0,0,1-.4-0.68,1.65,1.65,0,0,1,.51-1.62A0.37,0.37,0,0,0,96.14,81.51Z" transform="translate(-16.04 -18.9)"/><path class="m" d="M96.15,82c0,0.12,0,.23,0,0.35,0,0.29,0,.57,0,0.86A1,1,0,0,1,96,82.42,1.3,1.3,0,0,1,96.15,82Z" transform="translate(-16.04 -18.9)"/><path class="m" d="M96,81c0.2,0.06.15,0.25,0.14,0.4a1.65,1.65,0,0,0-.51,1.62,1.54,1.54,0,0,0,.4.68l-0.09,0a0.38,0.38,0,0,1-.35-0.28,2.45,2.45,0,0,1-.06-2.12A0.4,0.4,0,0,1,96,81Z" transform="translate(-16.04 -18.9)"/><path class="i" d="M96.05,94.78L96,95l-0.22,0h0V94.9A0.17,0.17,0,0,1,96.05,94.78Z" transform="translate(-16.04 -18.9)"/><path class="e" d="M96,73.62a0.26,0.26,0,0,1,0,.46c-0.26,0-.73-0.16-0.64-0.25l0.07,0h0A2.87,2.87,0,0,0,96,73.62Z" transform="translate(-16.04 -18.9)"/><path class="i" d="M96,95.91a0.22,0.22,0,0,1,0,0L96,96a0.15,0.15,0,0,1,0,.06A0.16,0.16,0,0,0,96,96V95.91Z" transform="translate(-16.04 -18.9)"/><path class="i" d="M96,95.91V96a0.16,0.16,0,0,1-.05.1l0,0h-0.1l0.06-.37A0.17,0.17,0,0,1,96,95.91Z" transform="translate(-16.04 -18.9)"/><path class="i" d="M96,96L96,96A0.2,0.2,0,0,1,96,96Z" transform="translate(-16.04 -18.9)"/><path class="i" d="M95.79,94.95L96,95c0,0.26-.09.52-0.13,0.78h0a0.19,0.19,0,0,0-.16.29,0.19,0.19,0,0,1,0-.11A4.61,4.61,0,0,0,95.79,94.95Z" transform="translate(-16.04 -18.9)"/><path class="e" d="M96,74.08l-6.8,2.8a8.71,8.71,0,0,0-3,1.69,8.36,8.36,0,0,0-1.4,2l-0.67.33,0,0a10.42,10.42,0,0,1,1.77-2.66,8.09,8.09,0,0,1,2.69-1.61c2.25-.94,4.51-1.86,6.77-2.79C95.27,73.93,95.73,74.13,96,74.08Z" transform="translate(-16.04 -18.9)"/><path class="e" d="M95.87,73.63a0.2,0.2,0,0,1,.15,0,2.87,2.87,0,0,1-.59.19Z" transform="translate(-16.04 -18.9)"/><path class="i" d="M96,96.1A0.15,0.15,0,0,0,96,96a9.72,9.72,0,0,1-.35,1.08c0.05-.33.1-0.66,0.16-1h0.1Z" transform="translate(-16.04 -18.9)"/><path class="i" d="M95.82,96.12h0Z" transform="translate(-16.04 -18.9)"/><path class="i" d="M95.88,95.76l-0.06.37A0.22,0.22,0,0,1,95.7,96h0a0.19,0.19,0,0,1,.16-0.29h0Z" transform="translate(-16.04 -18.9)"/><path class="i" d="M95.82,96.12h0A0.17,0.17,0,0,1,95.7,96,0.22,0.22,0,0,0,95.82,96.12Z" transform="translate(-16.04 -18.9)"/><path class="i" d="M95.79,94.95h0a4.61,4.61,0,0,1-.14,1,0.18,0.18,0,0,1,0,0Z" transform="translate(-16.04 -18.9)"/><path class="i" d="M95.7,96a0.17,0.17,0,0,0,.12.08c-0.05.33-.11,0.66-0.16,1l-0.23.6c-0.29.74-.6,1.48-1,2.19a9.52,9.52,0,0,1-3.05,3.68c-0.2.14-.39-0.19-0.19-0.33a9.15,9.15,0,0,0,2.92-3.55,22.91,22.91,0,0,0,.92-2.1,13.49,13.49,0,0,0,.58-1.68,0.19,0.19,0,0,0,0,.11h0Z" transform="translate(-16.04 -18.9)"/><path class="e" d="M95.5,80.17a0.17,0.17,0,0,1,.17.28l-0.42.2A0.17,0.17,0,0,1,95,80.6a1.8,1.8,0,0,1,.45-0.41h0Z" transform="translate(-16.04 -18.9)"/><path class="e" d="M95.5,80.17h0a1.8,1.8,0,0,0-.45.41,0.17,0.17,0,0,1,0-.14l0.06-.08h0Z" transform="translate(-16.04 -18.9)"/><path class="i" d="M95.13,88.91c0.14-.2.46,0,0.33,0.19l-0.58.82c-0.14.2-.46,0-0.33-0.19Z" transform="translate(-16.04 -18.9)"/><path class="e" d="M95.43,73.81l-0.07,0Z" transform="translate(-16.04 -18.9)"/><path class="e" d="M94.74,80.19c0.14-.2.47,0,0.33,0.19h0a0.14,0.14,0,0,0-.06.08c-1.4,1.92-3.29,3.66-5.79,3.72a0.19,0.19,0,0,1,0-.38C91.61,83.74,93.41,82,94.74,80.19Z" transform="translate(-16.04 -18.9)"/><path class="e" d="M95.06,80.38L95,80.46A0.14,0.14,0,0,1,95.06,80.38Z" transform="translate(-16.04 -18.9)"/><path class="i" d="M94,88.89c0.1-.22.42,0,0.33,0.19a2,2,0,0,1-.69.84c-0.2.14-.38-0.18-0.19-0.32A1.66,1.66,0,0,0,94,88.89Z" transform="translate(-16.04 -18.9)"/><path class="i" d="M92.6,87.69c0.18-.15.45,0.11,0.27,0.27a9.42,9.42,0,0,1-3.58,1.86,0.19,0.19,0,0,1-.1-0.36A9,9,0,0,0,92.6,87.69Z" transform="translate(-16.04 -18.9)"/><path class="i" d="M92.32,84.49a2.17,2.17,0,0,1-2,1.15A3,3,0,0,1,92.32,84.49Z" transform="translate(-16.04 -18.9)"/><path class="i" d="M90.22,86.59a6.11,6.11,0,0,1,1.7-.9C91.41,86.66,90.91,86.9,90.22,86.59Z" transform="translate(-16.04 -18.9)"/><path class="e" d="M86,122v0Zm0,0,0,0a0.26,0.26,0,0,1-.12-0.33c0.08-.19.23-0.15,0.4,0a0.19,0.19,0,0,1,0,.24C86.34,121.76,86.06,122,86,122Z" transform="translate(-16.04 -18.9)"/><path class="e" d="M86,122c0.07,0,.35-0.21.32-0.1h0A0.26,0.26,0,0,1,86,122h0Z" transform="translate(-16.04 -18.9)"/><path class="e" d="M86.31,121.88v0a0.19,0.19,0,0,1-.27.1A0.26,0.26,0,0,0,86.31,121.88Z" transform="translate(-16.04 -18.9)"/><path class="e" d="M86.26,121.61l0,0c-0.16-.13-0.31-0.17-0.4,0A0.26,0.26,0,0,0,86,122h0l-0.08,0a15.44,15.44,0,0,1-4.16-5.12,32,32,0,0,1-1.7-6q-0.77-3.33-1.51-6.68-1.28-5.77-2.45-11.57a2.56,2.56,0,0,0,.27-1.07q0.66,3.28,1.35,6.55,1.38,6.51,2.88,13a25.51,25.51,0,0,0,1.83,6A15.79,15.79,0,0,0,86.26,121.61Z" transform="translate(-16.04 -18.9)"/><path class="e" d="M86,122h0Z" transform="translate(-16.04 -18.9)"/><path class="e" d="M86,122v0Z" transform="translate(-16.04 -18.9)"/><path class="e" d="M84.16,80.91l0.67-.33-0.35.66Z" transform="translate(-16.04 -18.9)"/><path class="e" d="M84.46,70.81a0.2,0.2,0,0,1,.26.22l0,0.15-0.48.06c0-.07,0-0.14,0-0.21A0.25,0.25,0,0,1,84.46,70.81Z" transform="translate(-16.04 -18.9)"/><path class="e" d="M84.48,81.24l0,0-0.1.05A0.24,0.24,0,0,1,84.07,81l0.05-.1,0,0Z" transform="translate(-16.04 -18.9)"/><path class="e" d="M84.45,70.74v0.07a0.25,0.25,0,0,0-.22.22c0,0.07,0,.14,0,0.21l-1.45.16a47.34,47.34,0,0,1-8.67,0c0.18-.19-0.37-0.21-0.65-0.06h0l0.2-.23,0-.22a47.23,47.23,0,0,0,10.56-.14Z" transform="translate(-16.04 -18.9)"/><path class="e" d="M84.21,71.25l0.48-.06a10.92,10.92,0,0,1-1.37,4.13,13.37,13.37,0,0,1-5.79,5c-2.28,1.18-4.73,2.22-6.47,4.18v0c0.15-.35.29-0.71,0.42-1.06a13.92,13.92,0,0,1,2.36-1.69C76,80.45,78.43,79.57,80.41,78A10.41,10.41,0,0,0,84.21,71.25Z" transform="translate(-16.04 -18.9)"/><path class="i" d="M83.35,102.44q0.05,0.31.11,0.61C83.29,102.61,83.24,102.38,83.35,102.44Z" transform="translate(-16.04 -18.9)"/><path class="f" d="M82.76,71.41l1.45-.16A10.41,10.41,0,0,1,80.41,78c-2,1.58-4.39,2.46-6.56,3.72a13.92,13.92,0,0,0-2.36,1.69,18.41,18.41,0,0,0,1.11-5.64c0.07-2,0-4.74,1.49-6.33A47.34,47.34,0,0,0,82.76,71.41Z" transform="translate(-16.04 -18.9)"/><path class="i" d="M79.09,84.4l0,0h0v0Z" transform="translate(-16.04 -18.9)"/><path class="i" d="M79.07,84.38l-0.12,0,0-.05Z" transform="translate(-16.04 -18.9)"/><path class="e" d="M76.31,90.84a2.55,2.55,0,0,1,.08.72l-0.16-.8a0.21,0.21,0,0,0,0-.06A0.21,0.21,0,0,1,76.31,90.84Z" transform="translate(-16.04 -18.9)"/><path class="e" d="M76.22,90.76l0.16,0.8a2.56,2.56,0,0,1-.27,1.07l-0.21-1A2,2,0,0,0,75.85,91a0.24,0.24,0,0,1,.36-0.26A0.21,0.21,0,0,1,76.22,90.76Z" transform="translate(-16.04 -18.9)"/><path class="e" d="M76.21,90.7a0.24,0.24,0,0,0-.36.26,2,2,0,0,1,.06.63l-0.14-.71A0.24,0.24,0,0,1,76.21,90.7Z" transform="translate(-16.04 -18.9)"/><path class="e" d="M75.91,91.6l0.21,1A2.45,2.45,0,0,1,73.68,94a3.22,3.22,0,0,1-2.46-2c-1.13-2.3-.93-5.17-0.62-7.63a0.22,0.22,0,0,1,0-.06c0,0.21.21,0.43,0.39,0.23l0.06-.06a20.55,20.55,0,0,0-.12,4.64,6,6,0,0,0,1.5,3.78,2.84,2.84,0,0,0,.67.46A2,2,0,0,0,75.91,91.6Z" transform="translate(-16.04 -18.9)"/><path class="e" d="M73.44,71.37c0.28-.15.83-0.13,0.65,0.06Z" transform="translate(-16.04 -18.9)"/><path class="e" d="M73.44,71.37l0.65,0.06C72.63,73,72.67,75.8,72.6,77.76a18.41,18.41,0,0,1-1.11,5.64,9.88,9.88,0,0,0-.82.83h0a0.22,0.22,0,0,0-.07.1,0.21,0.21,0,0,1,0-.06,18.09,18.09,0,0,0,1.51-7.34c0-1.77.09-4,1.26-5.54Z" transform="translate(-16.04 -18.9)"/><path class="e" d="M73.64,70.92l0,0.22-0.21.23q-2-.21-4-0.59l0-.1,0.36-.31Q71.68,70.72,73.64,70.92Z" transform="translate(-16.04 -18.9)"/><path class="e" d="M73.41,71.37l0.21-.23-0.2.23h0Z" transform="translate(-16.04 -18.9)"/><path class="p" d="M73.42,71.37h0l0,0Z" transform="translate(-16.04 -18.9)"/><path class="e" d="M73.42,71.37l0,0-0.06,0,0.07-.08h0Z" transform="translate(-16.04 -18.9)"/><path class="e" d="M71.49,83.4c-0.13.36-.27,0.71-0.42,1.06V84.41a0.22,0.22,0,0,0-.39-0.16h0A9.88,9.88,0,0,1,71.49,83.4Z" transform="translate(-16.04 -18.9)"/><path class="e" d="M70.68,84.25a0.22,0.22,0,0,1,.39.16v0.06l0,0.06Z" transform="translate(-16.04 -18.9)"/><path class="e" d="M71,84.52l0-.06v0L71,84.57c-0.18.2-.42,0-0.39-0.23a0.22,0.22,0,0,1,.07-0.1Z" transform="translate(-16.04 -18.9)"/><path class="e" d="M69.28,70.28l0.46,0.09-0.36.31Z" transform="translate(-16.04 -18.9)"/><path class="e" d="M69.28,70.28l0.11,0.4,0,0.1-0.21,0a0.24,0.24,0,0,1-.1-0.4l0.16-.14Z" transform="translate(-16.04 -18.9)"/><text class="q" transform="translate(37.15 176.87)">Donald Trump<tspan x="0" y="24">Goal: Gain </tspan><tspan class="d" x="66.54" y="24">$</tspan><tspan x="73.95" y="24">20M. </tspan></text></svg>