<svg xmlns="http://www.w3.org/2000/svg" viewBox="0 0 180.28 252.28"><defs><style>.a{fill:none;stroke:#fff;stroke-miterlimit:10;stroke-width:0.28px;}.b{font-size:10px;font-family:Transport;}.b,.c{fill:#fff;}</style></defs><title>card-yield</title><rect class="a" x="0.14" y="0.14" width="180" height="252"/><text class="b" transform="translate(17.11 159.08)">You spend $$$$$$$$$$$$$500k on a fake <tspan x="0" y="12">news article lying about a </tspan><tspan x="0" y="24">political opponent. </tspan><tspan x="0" y="48">Take 4 FP</tspan></text><path class="c" d="M407.38,2356.61a0.47,0.47,0,0,1,.4.71h0l-16.12,28L376,2412.42c-0.43.75-.54,0.51-0.85,0l-31.75-55h0a0.55,0.55,0,0,1,.47-0.82h63.52Zm-11.43,7.8a0.3,0.3,0,0,0-.25-0.45H355.52a0.35,0.35,0,0,0-.3.52h0l20.08,34.8c0.2,0.3.26,0.45,0.54,0l9.9-17.16,10.2-17.69h0Z" transform="translate(-285.44 -2310.39)"/><path class="c" d="M364.28,2368.42h1l0.06,0.1,0,0.1,0.06,0.09v0l0.07,0.13,0,0.11,0.06,0.09,0,0.07v0a0.65,0.65,0,0,1,.09.18l0.06,0.09,0,0.07,0,0.06a0.52,0.52,0,0,1,.1.19,0.38,0.38,0,0,1,.09.16l0,0.06,0,0.07,0,0.06,0,0.09a0.52,0.52,0,0,1,.06.13,0.64,0.64,0,0,1,.12.22,0.56,0.56,0,0,1,.1.19,0.28,0.28,0,0,0,.06-0.09l0.06-.09,0-.1,0.06-.09,0-.1v0l0.07-.11,0-.1,0.07-.11,0-.11h0a1,1,0,0,1,.12-0.23l0-.09,0.09-.16,0-.06,0,0v0l0.05-.1,0.05-.08V2369l0,0,0-.06,0,0a0.49,0.49,0,0,1,0-.12l0,0,0.13-.26h1v0l0,0,0,0.1-0.18.29a1.05,1.05,0,0,1-.16.31l0,0.09,0,0.1,0,0.06-0.06.09v0l0,0-0.13.26L368,2370l-0.12.25-0.13.22,0,0.07,0,0.06a1.55,1.55,0,0,1-.18.32l0,0.07,0,0.06,0,0v0a1.24,1.24,0,0,0-.13.25l0,0,0,0.1-0.18.29V2374h-1v-2.23l0,0v0a0.59,0.59,0,0,1-.07-0.12l-0.13-.25,0-.09,0,0a0.52,0.52,0,0,1-.06-0.13,0.64,0.64,0,0,1-.12-0.22,0.56,0.56,0,0,1-.1-0.19h0v-0.07l-0.09-.18a0.25,0.25,0,0,1,0-.09l-0.06-.07,0-.09,0-.09,0-.06,0-.07-0.09-.15-0.1-.18,0-.09,0,0-0.12-.2-0.07-.18a0.06,0.06,0,0,1,0,0,0.26,0.26,0,0,1-.06-0.12,0.56,0.56,0,0,1-.1-0.19A0.89,0.89,0,0,1,364.28,2368.42Z" transform="translate(-285.44 -2310.39)"/><path class="c" d="M370,2368.44h1V2374h-1v-5.57Z" transform="translate(-285.44 -2310.39)"/><path class="c" d="M372.86,2368.42h3.5v0.88h-2.54v1.4a0.05,0.05,0,0,0,.05.06h2.26v0.86h-2.32v1.46a0.06,0.06,0,0,0,.06.07h2.64V2374h-3.66v-5.59Z" transform="translate(-285.44 -2310.39)"/><path class="c" d="M378.07,2368.42h1v4.71h2.17V2374h-3.14v-5.57Z" transform="translate(-285.44 -2310.39)"/><path class="c" d="M382.33,2368.42h2.73l0.12,0,0.22,0.07,0.15,0.09h0l0.12,0.07,0,0,0.2,0.13a3.25,3.25,0,0,1,.94,2.25q0,0.13,0,.26t0,0.26a2.42,2.42,0,0,1-2.52,2.3h-2v-5.57Zm1,4.71h1.23l0.23,0,0.12,0L385,2373l0.11,0,0,0h0v0h0v0h0a0.34,0.34,0,0,1,.1-0.1,0.94,0.94,0,0,1,.15-0.16,2.91,2.91,0,0,0,.38-1.39v-0.05a2,2,0,0,0-.89-1.71h0l-0.12-.06-0.11,0h-0.07l-0.19,0h-1.2v3.85Z" transform="translate(-285.44 -2310.39)"/></svg>