<?xml version="1.0" encoding="utf-8"?>
<!-- Generator: Adobe Illustrator 18.0.0, SVG Export Plug-In . SVG Version: 6.00 Build 0)  -->
<!DOCTYPE svg PUBLIC "-//W3C//DTD SVG 1.1//EN" "http://www.w3.org/Graphics/SVG/1.1/DTD/svg11.dtd">
<svg version="1.1" id="Layer_1" xmlns="http://www.w3.org/2000/svg" xmlns:xlink="http://www.w3.org/1999/xlink" x="0px" y="0px"
	 viewBox="0 0 204.7 203.2" enable-background="new 0 0 204.7 203.2" xml:space="preserve">
<g display="none">
	<g display="inline">
		<path fill="#25B3D9" d="M165.1,2.1c0.2,2.7-2,4.6-2.7,7.1c-1.4,5.5,0.3,8.7,5.1,10.9c1.5,0.7,2.8,2,4.2,3c-8-1.2-8.4-0.8-7.9,7.5
			c0.1,1.9,1.5,4-0.1,6c-2.3-1.2-2.1-3.3-2.4-4.9c-0.6-3.9-0.9-7.9-1.3-11.9c-0.1-1.1,0.4-2.7-1.1-2.9c-0.7-0.1-1.8,0.8-2.4,1.5
			c-2.7,3-5.4,5.8-6.8,9.7c-0.3,0.4-0.6,0.7-0.9,1.1c-0.8,0.3-1.2,0.8-1.1,1.7c-1.6,1.8-3.2,3.5-4.9,5.3
			c-12.7,7.4-26.6,6.2-38.1-3.3c-4.3-3.6-8.7-7.2-13.1-10.7c-1.7-1.3-3.3-3-5.8-2.1c-0.1-0.4-0.2-0.8-0.3-1.2
			c-0.1,0.1-0.3,0.1-0.4,0.2c0.2,0.3,0.5,0.7,0.7,1c1.4,7.8,1.5,15.7,4.2,23.3c1.3,3.4,3.8,7.6-0.3,10.5c-3.2,2.3-2.3,4.2-1.1,6.7
			c1,1.9,2.1,3.8,2.9,5.8c3.3,8.2,10.1,10.9,18,11.9c3.6,1.8,7.7,1.6,11.3,3.8c-1.7,0-3.3,0-5,0c-20.3,0-40.6-0.1-60.9,0.1
			c-7.8,0.1-15.6,0.4-23.4,1c-5.3,0.4-9.8-1-14.4-4.6C29.7,68.6,40,56.3,54.4,49.1c1.5-0.7,2.6-2,4-3c5.7-4.2,9.7-10.6,16.8-12.9
			c0.4-0.1,0.6-0.7,0.9-1c3.8-5.2,4.2-16.8,0.5-22c-5.2-7.3-8.8-15-9.4-24.1c-0.3-4.3-3.5-7-6.1-9.9c2.8,0.3,4.6-0.3,3.4-3.7
			c-0.5-1.4,0.2-3-0.9-4.3c-2.7-2.4-1.4-6.4-3.5-9.1c0.2-2.2-1.3-2.7-3-3c-1.4-1.6-2.7-3.3-4.1-4.9c-0.2-2.3-2-2.7-3.7-3.1
			c-0.7-8.3-2.2-16.2-6.1-23.7c-5.2-9.9-5.9-20.8-4.3-31.8c0.5-3.8,0.2-7.6,0.3-11.5c0.1-4.7,0.7-9.2,3.1-13.4
			c0.8-1.4,1.7-3.1,1.7-4.6c0.5-10.5,8-16,15.2-21.6c5.7-4.5,12.2-8,18.1-12.3c5-3.7,11.5-4.8,17.6-6.3c3.7-0.9,7.4-2,10.8-3.5
			c7.7-3.4,15.8-4.5,24.2-4.7c1.1,0,2.2,0.5,3.3,0.9c4.5,1.7,9,3.3,13.7,4.3c10.4,2.3,16.6,10.3,22.2,18.1
			c4.6,6.4,9.3,12.9,12.7,20.2c2.4,5.1,5.3,10,6.2,15.7c1.1,7-4.3,10.7-8,15c-1,1.2-2.1,1.9-2,3.6c0.3,14.1,0,28.2-1.8,42.2
			c-0.4,3.2,2.5,6.2,1.6,9.7c-3.4,6.5-4,13.6-4.8,20.7c-0.2,3.6-0.5,7.3-0.7,10.9c-2.2,0.8-3,3.7-6.5,4.7c2.9-6.7,4.9-12.9,5.1-19.3
			c0.2-6.1,1.2-12.2,2.1-18.2c0.3-2.1-0.1-6.1-3-5c-5.1,1.9-3.8-1.4-4.1-3.8c-0.4-3.1-1.5-6.2-5.3-4c-8.7,5-18.8,6.9-27.8,13.9
			c1.7-6,5.2-8.9,9.2-11.2c2.9-1.6,5.6-3.4,7.3-6.4c1.8,0.2,2.9-1.4,4.5-1.8c0.8,0,1.8,0.2,2.4-0.1c3.5-2.3,6.9-3.9,10.9-1
			c0.9,0.7,2.8,0.6,3.4-1c1.8-4.7,3.1-9.4-1.4-14.3c-0.3,0.6-0.5,1-0.8,1.5c-0.8,1.4-1.4,3.5-3.5,2.7c-1.6-0.7-1.3-2.7-0.9-4
			c1.1-3.7,0.5-7.6,2-11.2c3.2-7.7-1.5-13.7-9.7-12.8c-2.1,0.2-4.3,0.9-6.4-0.2c0.7-1.6,2.2-0.5,2.5-1.8c-1.7-0.3-3.4-0.5-4.9-1.1
			c-5.2-1.8-10.3-2.6-15.2,0.9c-0.6,0.4-1.6,0.4-2.4,0.6c-2.3-0.2-4.7-0.3-7-0.5c-7.3-2.8-15-3.2-22.7-3.5
			c-5.6-0.2-10.9-0.5-16.6,1.8c-6.9,2.9-8.7,9-12.1,14.3c-2.6,4.1-2,8.9,1.3,12.3c1.5,1.6,3.8,3.1,3.1,5.3c-0.8,2.1-3.6,1.8-5.7,2.2
			C62-83.9,57-75.4,59.8-67.7c1.6,4.4,3,8.9,4.4,13.4c2.3,7.1,3.5,14.5,7.3,21.1c1.6,2.8,3,6.4,1.4,9.5c-4.4,8.7-0.6,15.7,4.2,22.1
			C86.7,11.2,100,20,112.3,29.9c2.8,2.2,6.2,2.6,9.4,2.8c8.1,0.6,16.4,0.6,22.2-6.1c6.2-7.1,13-13.8,17.5-22.2
			C162.2,3.1,163.2,1.7,165.1,2.1z M137.9-154.8L137.9-154.8c4.9,1.2,1.6,6.9,4.9,9.4c3.9-4.9,0.9-9.3-0.6-13.3
			c-0.6-1.7-0.2-5.3-2.3-5.2c-2.6,0.1-1.4,3.9-2.8,5.7C136.2-157.2,134.8-155.3,137.9-154.8z M92.1-130.2c-3.5-3.8-4.4-4.2-8.2-3.2
			C87.2-133.7,88.4-129.2,92.1-130.2z"/>
		<path fill="#83CCDA" d="M149.1-73.5c-1.7,3-4.4,4.8-7.3,6.4c-4.1,2.3-7.5,5.1-9.2,11.2c9-7,19.2-8.9,27.8-13.9
			c3.8-2.2,4.9,0.9,5.3,4c0.3,2.4-1.1,5.6,4.1,3.8c2.8-1,3.3,2.9,3,5c-0.9,6.1-1.8,12.1-2.1,18.2c-0.2,6.5-2.2,12.6-5.1,19.3
			c3.5-1,4.3-3.8,6.5-4.7c0.1,9.4-3,17.9-7,26.2c-1.9-0.4-2.8,1-3.5,2.2c-4.6,8.4-11.3,15.2-17.5,22.2c-5.9,6.7-14.2,6.7-22.2,6.1
			c-3.3-0.2-6.7-0.6-9.4-2.8C100,20,86.7,11.2,77.1-1.6c-4.8-6.4-8.7-13.5-4.2-22.1c1.6-3,0.2-6.7-1.4-9.5c-3.8-6.6-5.1-14-7.3-21.1
			c-1.4-4.5-2.8-9-4.4-13.4C57-75.4,62-83.9,70.2-85.2c2.1-0.3,4.9,0,5.7-2.2c0.8-2.2-1.5-3.7-3.1-5.3c-3.3-3.3-3.9-8.2-1.3-12.3
			c3.3-5.3,5.2-11.4,12.1-14.3c5.6-2.4,11-2.1,16.6-1.8c7.7,0.3,15.4,0.7,22.7,3.5c-1.3,0.3-2.6,0.9-3.8,0.7
			c-5.4-0.8-10.8-1.3-16.3-1.1c-10.8,0.4-13.1,3-11.7,13.1c0.1,1,0.6,2.3-0.7,2.5c-4.8,0.7-5.2,3.3-3.2,7c0.5,1-0.6,2-0.5,2.7
			c0.3,6.4-5.8,13.6,2.4,19c0.6,0.4,0.7,1.4,1,2.2c-1.6,0.6-3.3,0.3-4.9,0.4c-5.3,0.3-9.3,3.2-12,7.7c-1.1,1.8-2,4.4,0.3,5.8
			c2.7,1.6,3.8-1.2,4.6-3c2.1-4.7,5.5-7.1,10.6-7.6c1.9-0.2,5,0.2,5.2-3.3c10.8-2.8,22.2,3.7,26.1,13.9c2.9,7.4,2.2,15.4,4.7,22.8
			c0.5,1.5-0.1,3-1.4,4c-3.3,2.6-4,5.5-1.5,9c-3.8,1.4-7.5-0.8-11.3,0c-5.3-4.9-5.6-7.6-0.8-9.9c7.1-3.5,6.7-3.4,6.4-11.3
			c-0.1-2.6-1.8-4-2.4-6.1c-0.5-1.9-2.4-5.1-3.1-4c-1.6,2.2-5.7,2.4-5.3,5.5c0.4,2.9-1.2,3.5-3,4.2c-7.7,3-15.7,2.8-23.3,0.1
			c-4.9-1.8-4.6,0.2-4,3.5c0.2,1,0.6,1.9,0.8,2.8c1.7,6.1,6.7,10.6,8.2,16.8c0.6,2.7,2.6,3.6,5.3,3.4c2.4-0.1,4.2,0.8,3.2,3.5
			C90.8-9,92.9-5.1,93.2-1.1c0.5,6.5,5.4,10.5,8.6,15.5c6.1,9.3,13.4,15.7,25.7,13.9c3.9-0.6,8,0.7,10.5-3.6
			c0.2-0.3,0.9-0.3,1.4-0.3c4.1,0.8,5.4-1.7,5.5-5c0.1-1.5,0.7-2.5,1.5-3.5c4.2-5.2,4.2-12.7,9.9-17.1c0.4-0.3,0-1.6,0.2-2.4
			c2-6.1,0.7-13.1,5.4-18.3c2.8-3.1,3.3-6.8,2.9-10.7c-0.3-3.9-4-6.5-4-10.6c0-0.9-1.9-0.8-2.6-0.1c-3.4,3.5-6.4,0.5-9.4-0.7
			c-1.2-0.5-3.3-1.4-3-3c0.4-1.9,2.5-0.9,3.8-1.1c1.3-0.2,2.8,0.4,4.4-1.3c-3.5-0.4-6.4-0.6-9.3-1.9c0.9-0.5,1.6-0.9,2.3-1.2
			c-3.3-1.4-8.2,2.2-9.8-3.6c-0.3,0.5-0.7,0.9-0.8,1.3c-0.5,2.7,1.7,4.2,2.9,6.1c1.9,3.1-3.8,2.5-2.2,5.5c1.8,3.5,1.5,8,6.2,10.1
			c3.1,1.4,3.3,6.5,1.2,9.2c-2.7-0.9-5,1.1-7.5,1c-0.3-4.3-0.7-8.4-2.9-12.4c-2.7-5-4.1-10.5-4.3-16.2
			C129.2-63.9,136.4-72,149.1-73.5z M98.9-51l-0.1,0c2.5,0.4,5.1,1.1,5-2.9c-0.2-0.6-0.2-1.5-0.6-1.8C99-59,85.5-55.8,83.4-51.2
			c-0.3,0.7-0.5,1.3,0.1,1.8c0.7,0.6,1.7,0.6,2.3,0c3.5-3.2,7.6-2.1,11.6-1.5C97.9-50.9,98.4-50,98.9-51z M165.5-56.3
			c-0.4-0.4-0.7-1.1-1.2-1.4c-5.4-2.9-10.9-5.7-17.4-3.4c-1.2,0.4-3.1,0.4-3.2,1.8c-0.1,1.5,1.5,2.5,2.7,3.3c2,1.5,3.9,0.8,5.1-1.1
			c1.6-2.6,3.3-2.1,5.3-0.5c1.3,1,2.6,2.2,4.1,2.7C162.4-54.3,164.3-54.3,165.5-56.3z M93.3-63.6c3.1,0.2,6.2,2,8.4-1.3
			c0.7-1,0.1-2.9-1.4-3.1C97.2-68.5,94.7-67.3,93.3-63.6z M90.1-44.7c3.9,2.3,6.8,0.1,9.9-0.7c0.3-0.1,0.6-0.8,0.6-1.2
			c0-0.8-0.8-1.1-1.5-0.9C96.3-46.6,93.2-47.1,90.1-44.7z M80.7-10.5c-0.8,2.9-0.8,5,1.3,6.7c0.8,0.6,1.9,0.4,2.1-0.4
			C85-7.2,82.9-8.5,80.7-10.5z M142.1-56c-0.7,0-0.9,0.4-0.8,1c0.2,0.8,0.8,1,1.5,1c0.4,0,1.1-0.4,1.1-0.6
			C143.8-55.7,142.9-55.8,142.1-56z"/>
		<path fill="#25B3D9" d="M175,25.3c3.5,0,7-0.2,9.8,2.4c1,0.9,2.2,0.4,3.3,0.3c1.8-0.2,3.6-0.6,5.4-0.7c7.9-0.3,9.3,1,9.1,8.7
			c-0.3,11.6,1.2,23.3-0.9,34.8c-1.4,8.1-4.2,10.5-12.3,11.2c-17.7,1.5-35.4,1.5-54.6-0.3c10.8-3.6,20.3-6.7,27.9-13.6
			c7.4-5,12.5-11.7,16.1-19.8c2.5-3.3,3.2-7.3,4.4-11.2c2.3-4.7,1.6-8.1-4.1-9.4C177.7,27.4,176.4,26.1,175,25.3z"/>
		<path fill="#FFEFC7" d="M85.9,20.1c2.5-0.8,4.1,0.8,5.8,2.1c4.4,3.5,8.8,7.1,13.1,10.7c11.5,9.5,25.5,10.7,38.1,3.3
			c-0.7,3.8-2.4,6.8-6,8.5c-5.5,2.6-7.3,9.2-13,11.8c-5.6,2.5-14.1-1.5-15.6-7.4c-0.7-2.9-2.1-7.2-5.7-6.2c-3.3,0.8-1.1,4.6-0.5,6.9
			c0.6,2.2,1.6,4.3,2.7,6.3c3.8,6.9,4.2,14.5,4.9,22.1c-8-1-14.8-3.7-18-11.9c-0.8-2-2-3.8-2.9-5.8c-1.2-2.5-2.1-4.4,1.1-6.7
			c4.1-2.9,1.5-7,0.3-10.5C87.4,35.9,87.3,27.9,85.9,20.1L85.9,20.1z"/>
		<path fill="#FFEFC7" d="M179,48.3c-3.6,8-8.8,14.8-16.1,19.8c-3.2-3.2-3.2-9.4-9.9-9.3c-2.7,0.1-3.7-1.8-2.8-5.3
			c2.2-8.4,5.1-17.1-0.5-25.4c1.4-3.9,4.1-6.7,6.8-9.7c0.6-0.7,1.7-1.6,2.4-1.5c1.6,0.2,1,1.8,1.1,2.9c0.4,4,0.7,8,1.3,11.9
			c0.3,1.7,0,3.8,2.4,4.9c1.6-2,0.2-4.1,0.1-6c-0.5-8.2-0.1-8.7,7.9-7.5c1.1,0.7,2.2,1.5,3.3,2.2c1.4,0.8,2.7,2.1,4.2,2.4
			c5.8,1.3,6.4,4.7,4.1,9.4c-2.5-0.2-5-4.1-7.4-0.6c-2.1,3.1-0.3,6.5,1.2,9.6C177.6,46.9,178.4,47.6,179,48.3z"/>
		<path fill="#936E64" d="M147.7,30.9c-0.1-0.9,0.3-1.4,1.1-1.7C149,30.1,148.7,30.7,147.7,30.9z"/>
		<path fill="#936E64" d="M85.9,20.1c-0.2-0.3-0.5-0.7-0.7-1c0.1-0.1,0.3-0.1,0.4-0.2C85.7,19.3,85.8,19.7,85.9,20.1
			C85.9,20.1,85.9,20.1,85.9,20.1z"/>
		<path fill="#FFE6A7" d="M144.5-23.8c2.1-2.7,1.9-7.8-1.2-9.2c-4.7-2.1-4.4-6.6-6.2-10.1c-1.6-3,4.1-2.5,2.2-5.5
			c-1.2-1.9-3.4-3.4-2.9-6.1c0.1-0.4,0.5-0.8,0.8-1.3c1.7,5.8,6.5,2.2,9.8,3.6c-0.7,0.4-1.3,0.7-2.3,1.2c3,1.3,5.9,1.5,9.3,1.9
			c-1.5,1.7-3.1,1.1-4.4,1.3c-1.4,0.2-3.5-0.7-3.8,1.1c-0.3,1.6,1.7,2.5,3,3c3,1.1,5.9,4.2,9.4,0.7c0.7-0.7,2.6-0.7,2.6,0.1
			c0,4.1,3.7,6.7,4,10.6c0.3,3.9-0.1,7.6-2.9,10.7c-4.7,5.2-3.4,12.3-5.4,18.3c-0.2,0.7,0.2,2-0.2,2.4c-5.6,4.4-5.6,12-9.9,17.1
			c-0.9,1.1-1.5,2.1-1.5,3.5c-0.2,3.4-1.4,5.8-5.5,5c-0.4-0.1-1.2,0-1.4,0.3c-2.5,4.3-6.6,3-10.5,3.6c-12.3,1.8-19.6-4.6-25.7-13.9
			c-3.2-5-8.1-8.9-8.6-15.5c-0.3-4-2.4-7.9-0.8-12.1c1-2.7-0.8-3.6-3.2-3.5c-2.7,0.1-4.6-0.8-5.3-3.4c-1.4-6.2-6.4-10.7-8.2-16.8
			c-0.3-0.9-0.7-1.9-0.8-2.8c-0.6-3.3-0.9-5.3,4-3.5c7.6,2.8,15.6,2.9,23.3-0.1c1.8-0.7,3.4-1.3,3-4.2c-0.4-3.1,3.7-3.2,5.3-5.5
			c0.8-1.1,2.6,2.1,3.1,4c0.5,2.1,2.3,3.5,2.4,6.1c0.3,7.8,0.7,7.8-6.4,11.3c-4.8,2.3-4.6,5,0.8,9.9c2.8,4.5,8.2,2.7,11.9,5
			c3.6,2.3,7.5,2.5,11.5,1.3c-0.4,1.9,2.7,1.9,2.2,4.1c-5,1.2-9.7,3.6-15.2,1.4c-2.1-0.8-4.8-1.1-7.1,0.4c-0.6,0-1.2,0.1-1.8,0.1
			c-3.2-0.5-4.7-4.1-8.4-4.1c-2.4,0-5.3,1.3-7.6-1c-0.7-0.6-2,0.7-1.6,1.1c2.5,2.7,1.3,7.7,4.8,9.2c4.5,2.1,7.3,5.5,9.9,9.4
			c1.4,2,4.9,3.3,4.3,5.6c-1,3.8,1.4,3.2,3.1,3.1c5.1-0.3,10.1,1.1,15.3-0.4c3.3-0.9,6.9-1.2,10.3-0.8c3,0.4,4.2-0.8,4.4-3.2
			c0.6-5.9,2.3-11.6,3.6-17.4c0.3-0.4,0.6-0.8,0.9-1.2c2.4-0.6,5-1.8,4.4-4.3c-0.6-2.2-3.1-4-5.9-3.8c-3,0.3-5.1-1-6.8-3.2
			C144.1-20.9,143.8-22.6,144.5-23.8z"/>
		<path fill="#D2ABA6" d="M179,48.3c-0.6-0.8-1.4-1.4-1.9-2.3c-1.5-3-3.3-6.4-1.2-9.6c2.3-3.5,4.9,0.4,7.4,0.6
			C182.2,41,181.5,45,179,48.3z"/>
		<path fill="#25B3D9" d="M150-7.7c-1.3,5.8-3,11.5-3.6,17.4c-0.2,2.4-1.4,3.6-4.4,3.2c-3.3-0.4-7-0.1-10.3,0.8
			c-5.1,1.5-10.2,0.1-15.3,0.4c-1.7,0.1-4.1,0.8-3.1-3.1c0.6-2.3-2.9-3.6-4.3-5.6c-2.6-3.8-5.4-7.3-9.9-9.4
			c-3.4-1.6-2.3-6.5-4.8-9.2c-0.4-0.4,0.9-1.7,1.6-1.1c2.3,2.3,5.2,1,7.6,1c3.7,0,5.2,3.6,8.4,4.1c-3.5,2.3-7.9-0.4-11.5,1.8
			c3.2,3,7,1.9,10.6,1.7c0.2,2,0.2,3.1,2.8,4.5c5.5,3.1,11.2,0.4,16.6,2.1c2.8,0.9,7.5-4.4,7.5-7.4c0.8-0.2,2-0.9,2.3-0.6
			c3,2.7,5.4,1.1,7.9-0.7C148.5-8,149.3-7.7,150-7.7z M139.8-1.7c0.1-0.2,0.3-0.4,0.4-0.6c-0.1,0-0.4-0.2-0.4-0.1
			c-0.2,0.2-0.2,0.4-0.4,0.6C139.6-1.8,139.7-1.8,139.8-1.7z"/>
		<path fill="#D2ABA6" d="M111-5.7c2.8-0.7,5.6,0.4,8.2,1c6.5,1.5,12.6,0,18.7-1.7c0,3-4.6,8.2-7.5,7.4c-5.4-1.7-11.1,1-16.6-2.1
			C111.3-2.6,111.2-3.7,111-5.7z"/>
	</g>
	<g display="inline">
		<path fill="#1C1C1E" d="M207.8,301.9c-2.8-0.4-3.4-2-3.8-6c-0.9-10.6-2.8-20.9-5.9-31.1c-0.2-0.7-0.9-1.3-1.4-2
			c-0.5-1.6-1.6-2.9-2.9-3.9c-3.5-4-0.1-7.7,0.7-11.5c0.3-1.2,1.2-2.1,0.4-3.6c-4-7.4-9.7-13-17.9-15.3c-10.5-2.9-21-6.5-31.9-6.5
			c-11.7-0.1-23.9-2.4-35,4c-3.8,2.2-7.5,4.4-9.6,8.3c-0.8,1.6-1.8,1.4-3.2,1.6c-4.6,0.6-6.5,3.7-6.6,8c-0.1,5.1,0.1,10.3,0.2,15.4
			c0,0.8,0,1.7-0.4,2.4c-7.4,12.5-6.7,26.4-6.8,40.2c0,3,0.1,6,0.1,9c0,0.9,0.1,2.2-1.3,2.2c-1.2,0-1.5-1.2-1.6-2.1
			c-0.5-3.6-1-7.2-1.7-10.8c-0.2-0.8-1.2-1.5-1.9-2.2c0.1-9.8-3.9-18.6-6.5-27.7c-3.5-12.4-5-24.8-2.8-37.7
			c3.5-20.6,18.6-32.7,32.7-45.6c1.1-0.3,2.2-0.4,2.6-1.7c0.2-0.1,0.3-0.2,0.4-0.3c3.8-1.4,7.8-2.7,11.3-4.4
			c4.7-2.2,10.5-2,14.4-6.1c1,0,2.1,0,3.1,0.1c2.5,1.8,5,2.3,8.2,1.3c1.9-0.6,4.2-1.1,6.6-0.9c5.3,0.4,10.6,1.9,16,1.1
			c0.8,0.8,1.6,1.5,2.4,2.3c2.5,2.7,5.6,3.2,9.1,3.1c1.7,2.1,3.7,3.6,6.2,4.7c0.9,2.4,2.8,3.5,5.1,4c0.5,0.5,1,1.1,1.4,1.6
			c0,0.3,0.2,0.5,0.6,0.4c7.8,8.5,15.3,17.4,21.4,27.3c5.6,9.1,5.9,19.1,6.6,29.2c0.8,13-1.9,25.7-3.8,38.5
			c-0.2,1.5-0.9,2.5-1.9,3.3c-2.6,2.3-3.5,5.2-2.7,8.5c0.1,0.4,0.1,0.8,0.2,1.3C207.9,300.7,207.9,301.3,207.8,301.9z"/>
		<path fill="#806654" d="M163.5,175.8c-5.4,0.9-10.6-0.7-16-1.1c-2.4-0.2-4.7,0.3-6.6,0.9c-3.2,1.1-5.7,0.5-8.2-1.3
			c9.7,0,19.4-2.7,29,0.6C162.4,175.2,162.9,175.5,163.5,175.8z"/>
		<path fill="#806654" d="M129.7,174.3c-3.9,4.1-9.6,3.9-14.4,6.1c-3.6,1.7-7.5,3-11.3,4.4C111.2,178,120.3,175.8,129.7,174.3z"/>
		<path fill="#806654" d="M174.9,181.2c-3.4,0.2-6.6-0.4-9.1-3.1C169.4,177.6,172.2,179.3,174.9,181.2z"/>
		<path fill="#806654" d="M186.2,189.9c-2.4-0.5-4.3-1.6-5.1-4C183.6,186.2,184.7,188.2,186.2,189.9z"/>
		<path fill="#806654" d="M103.5,185.1c-0.4,1.3-1.6,1.4-2.6,1.7C101.8,186.2,102.6,185.7,103.5,185.1z"/>
		<path fill="#806654" d="M188.2,191.9c-0.3,0-0.5-0.1-0.6-0.4C188,191.5,188.2,191.6,188.2,191.9z"/>
	</g>
</g>
<g>
	<circle fill="#E59593" cx="102.4" cy="101.6" r="101.6"/>
	<defs>
		<filter id="Adobe_OpacityMaskFilter" filterUnits="userSpaceOnUse" x="44.5" y="46.8" width="106.1" height="153.7">
			
				<feColorMatrix  type="matrix" values="-1 0 0 0 1  0 -1 0 0 1  0 0 -1 0 1  0 0 0 1 0" color-interpolation-filters="sRGB" result="source"/>
		</filter>
	</defs>
	<mask maskUnits="userSpaceOnUse" x="44.5" y="46.8" width="106.1" height="153.7" id="SVGID_1_">
		<g filter="url(#Adobe_OpacityMaskFilter)">
			<circle fill="#010202" cx="102.8" cy="101.6" r="101.6"/>
		</g>
	</mask>
	<g mask="url(#SVGID_1_)">
		<path fill="#DA5D54" d="M44.5,197.9c2.6-2.3,5-4.4,7.4-6.5c3.3-2.8,6.4-5.9,10-8c4.5-2.6,8.2-6.1,12.1-9.4
			c0.7-0.5,1.3-1.3,2.1-1.5c2.1-0.6,2.7-2.2,3-4.1c0.1-0.8,0.4-1.5,0.5-2.2c0.3-2.9,0.2-5.7-1.8-8.1c-2.4-2.9-3.9-6.3-4.6-10.1
			c-0.1-0.4-0.4-0.7-0.3-1.1c0.4-3.2-1.3-5.4-3.8-7.6c0.9-0.2,1.5-0.3,2.7-0.5c-0.7-1.1-1.3-2-1.9-2.9c0.2-0.2,0.5-0.5,0.9-0.8
			c-0.9-4.9-3.7-8.3-7.9-11c-0.3-2.1-0.8-4.4-0.9-6.7c-0.1-2.1-0.8-3.9-1.8-5.6c-2.9-5.2-4.1-10.9-3.8-16.8c0.2-4.7,0.6-9.5,1-14.2
			c0.1-0.8,0.5-1.6,0.7-2.4c0.6-1.9,1.4-3.7,1.8-5.7c0.4-1.6,1-3,2-4.3c2.6-3.4,5.9-5.9,9.5-8.2c2.3-1.5,4.5-3.3,6.8-4.7
			c1.7-1,3.6-1.8,5.5-2.4c5.4-1.8,10.8-3.7,16.3-5.2c4.2-1.2,8.5-1.5,12.8,0.2c2.7,1.1,5.6,1.7,8.5,2.6c0.5,0.2,1.2,0.3,1.5,0.6
			c3,3,6.1,5.8,8.7,9.1c2.2,2.7,3.8,5.9,5.6,8.9c1.3,2.3,2.3,4.8,3.5,7.2c0.4,0.8,0.9,1.4,1.4,2.3c0,1.5,0,3.2,0,5.1
			c-2.1,1.6-2.7,4.6-5.4,5.8c0,2.3-0.1,4.7,0,7.1c0.2,2.8,0.3,5.5-0.2,8.2c-0.6,3.4-0.8,7-1.1,10.5c0,0.5,0.2,1.1,0.4,1.7
			c1,2.3,0.7,4.5-0.6,6.5c0.2,0.5,0.5,0.9,0.7,1.3c-3.1,5.5-2.1,11.7-3.1,17.6c-1.2,0.3-2.4,1.9-4,0c2.9-6.3,4.1-12.9,2.3-20.4
			c-1.6,1.3-2.9,2.4-4.2,3.5c-0.2-0.1-0.3-0.2-0.5-0.3c0.1-0.6,0.3-1.3,0.6-2.4c-1.8,0.2-3.4,0.4-5.7,0.6c1.6-1,2.7-1.6,4.1-2.5
			c-0.8-0.8-1.4-1.3-1.9-1.9c-3.2,2.8-3.2,2.8-7.4,0.2c1.2-1.6,3.2-1.5,5.3-2.4c-4.3-0.6-6.4,2.3-8.8,4.1c-1.3,4.1,0.2,7.8,1.1,11.4
			c-1.4,0.4-1.8-0.5-1.9-1.2c-0.7-3.3-1.3-6.5-1.8-9.8c-0.1-1,0.2-2.5,0.9-3.2c2.7-2.7,4.8-6.2,8.8-7.3c2.7-0.8,5.5-1.7,7.6-4.2
			c-0.2-0.9-0.5-1.9-0.6-2.9c-0.1-0.9-0.2-2,0.1-2.8c1.2-3.6,1.1-6.9-1.5-9.8c0.1-1.3,0.1-2.5,0.2-3.8c-12.8-1.2-25.3-2.4-37.8-3.6
			c-3,1.5-5.9,2.9-8.5,4.2c-1.2,2.5-2.2,4.6-3.3,6.9c2.1,1.9,3.4,4,4,6.4c0.4,1.9,0.9,3.7,1.2,5.6c0.1,0.3-0.2,0.7-0.5,1.3
			c-2.4-0.9-4.8-1.8-7-2.6c-1.5,0.4-2.1,1.2-1.8,2.9c1.1,0.6,2.3,1.2,3.3,1.8c0.9,1.4,1.6,2.5,2.4,3.9c1.3-0.8,2.3-1.3,3.2-1.9
			c1.4-0.9,2.7-1.1,4.3-0.7c2.2,0.5,4.5,0.8,6.7,0.7c1.8-0.1,3.1,0.6,4.5,1.4c0.6,0.3,1.2,0.6,1.9,1c-0.1,0.6-0.2,1.2-0.4,2
			c0.9,0,1.8,0,2.8,0c0.7,1.6,1.3,3.2,2,5.1c-1.3-0.8-2.3-1.4-3.3-1.9c-0.1,0.1-0.3,0.2-0.4,0.4c0.4,0.7,0.8,1.5,1.3,2.4
			c-1.6-0.6-3-1.2-4.9-1.9c0.5,1.1,0.9,1.9,1.5,3.3c-1.8-1.1-3-1.8-4-2.4c-1.5,1-2.5,2.1-3.7,2.4c-1,0.2-2.2-0.4-3.6-0.8
			c-0.1,0.9-0.1,1.5-0.2,2.1c-1.2,0.2-2.3,0.4-3.4,0.6c-1.5,0.3-2.6-0.2-3.3-1.5c-0.5-0.9-1.1-1.7-1.9-2.7c-1.9,2.4-2.2,4.6-1.7,7.2
			c0.7,3.8,1.9,7.3,4.2,10.5c1.3,1.9,2.5,3.8,3.7,5.7c0.2,0.3,0.1,0.7,0.2,1.7c-2.3-1.7-4.2-3-6.4-4.6c-0.1,1.4-0.2,2.4-0.2,2.6
			c0.8,1.8,1.2,3,1.8,4.1c0.9,1.6,1.8,3.4,3.1,4.7c4.8,4.6,9.6,9.3,14.7,13.5c5.6,4.5,10.8,5.6,18,2.4c3.2-1.4,4.9-4.5,6.9-7.1
			c1.9-2.6,3.3-5.6,5.2-8.2c1.4-1.9,3.1-3.6,4.1-5.7c0.6-1.2,1.3-2.4,2.1-3.5c-1.2,5.8-5,10.8-5.2,16.9c3.8,3.9,9,5.2,14.4,7.2
			c2.5-0.3,5.8-1.2,9,0.7c0,0.6,0.2,1.2,0.2,1.9c0,5.9,0,11.8,0,17.8c0,1.3-0.2,2.7-0.5,4c-0.9,4.6-2.4,6.1-7,6.5
			c-8.7,0.7-17.3,1-26,0.2c-1.8-0.2-3.6-0.2-5.5-0.4c4.1-1,8-2.6,11.8-4.6c4.3-2.2,7.4-5.6,10.2-9.4c2.5-3.3,5-6.6,5.7-10.8
			c0.2-1.2,0.3-2.4,0.5-3.6c-2.2-1.3-4.1-2.5-6.1-3.5c-1.8-0.9-3.3-0.4-4.8,1.5c0.1,1.3,0.3,2.9,0.4,4.5c0.2,1.9,0.4,3.9-1,5.4
			c-0.5,0.5-1.1,0.8-1.8,1.3c-1.7-2-0.8-4.1-1-6c-0.2-1.9-0.4-3.8-0.4-5.7c0-2,0.4-3.9,0.1-6.2c-1.3,1.6-2.7,3.1-4,4.7
			c-1.6,1.9-3.1,3.9-4.7,5.8c-1.7,2-3.9,3-6.5,3.2c-2,0.1-4,0.2-6,0.2c-3.4-0.1-6.3-1.3-8.8-3.5c-2.9-2.5-5.9-4.9-8.9-7.2
			c-0.5-0.4-1.1-0.6-2.1-1.2c0.8,3.2,1.2,6,2.1,8.7c1,3.3,2.4,6.4,3.5,9.6c0.8,2.3,1.4,4.7,2.1,7.3c-1.3,0.4-2.6,0.8-3.9,1.2
			c0.1,2,1.2,2.9,2.5,3.8c3.1,2,6.7,2.8,10.2,3.6c1.9,0.4,3.9,0.6,5.8,1.1c-3.3,0-6.7,0-10,0c-8.9,0-17.8-0.1-26.6,0
			c-5.9,0.1-11.8,0.3-17.7,0.6C49.4,200.7,47,199.8,44.5,197.9z"/>
		<path fill="#DA5D54" d="M98.6,153c-0.6,0.3-1.2,0.5-2,0.8c-1.7-1.5-3.4-3-5.4-4.9c-0.1-0.6,0.7-1.1,1.6-1.1c3.3,0,6.6-0.8,9.9,0.2
			c2.1,0.6,4.4,0.7,6.7-0.1c2.8-1,5.9-1.5,8.8-2.1c1.2-0.3,1.3-0.2,2.8,1.2c-1,2.6-2.1,5.1-3,7.6c-0.9,2.6-3,4.1-5.4,4.7
			c-4.5,1.2-8.9,0.9-12.8-2.1c-0.3-0.2-0.5-0.5-0.5-1.2c0.5,0.2,1.1,0.4,1.6,0.7c3.6,2,7.2,1.8,10.9,0.5c1.2-0.4,1.5-1.4,1.1-2.7
			c-4.7-0.2-9.4-0.3-14.2-0.5C98.7,153.7,98.6,153.3,98.6,153c0.7-0.4,0.5-1.5,1.7-1.9c3.3,0.6,7,0.7,9.7,0.4
			c-2.7,0.2-6.3,0.2-9.5-0.4C99.2,151.4,99.3,152.6,98.6,153z"/>
		<path fill="#DA5D54" d="M116.6,140.8c-1.4,0.9-2.6,1.6-3.7,2.3c-2.5,1.6-5.1,1.8-7.9,0.5c-1.3-0.6-2.8-1.1-4.3-1.4
			c-2.6-0.5-3.7-1.9-3.5-5.4c0.5,0.8,0.8,1.4,1.1,1.9c0.3,0.5,0.6,1,0.6,0.9c2.9,0.9,5.3,1.6,7.8,2.3c2.9,0.9,5.9-0.7,7.2-3.7
			c0.5-1.2,0.8-2.6,2.4-3C117.2,137.1,117.8,138.9,116.6,140.8z"/>
		<path fill="#DA5D54" d="M90.9,117.9c-0.4,0.8-0.7,1.4-1.1,2.2c-3.2,0.1-6.5-0.2-9.6,2.1c-0.1-1.3-0.2-2.2-0.3-2.9c3-4,3-4,7.3-2.5
			C88.3,117.1,89.4,117.4,90.9,117.9z"/>
		<path fill="#DA5D54" d="M121.6,115.7c1.8-0.7,3.5-1.5,5.6-2.3c0.4,0.9,0.6,1.5,0.9,2.2C125.8,116.7,123.7,116.4,121.6,115.7z"/>
		<path fill="#DA5D54" d="M98.6,153c-0.7-0.8-1.3-1.7-2-2.5c1.7-1.9,3.7-1.2,5.4-0.8c3.5,0.7,7,0.6,10.4-0.4c0.9-0.3,2-0.1,3.1-0.2
			c0.3,2.4-1.7,2.9-2.8,3.2c-3.9,0.9-7.8,1.8-11.8,0.3C100.3,152.4,99.3,152.9,98.6,153L98.6,153z"/>
	</g>
</g>
</svg>
