<?xml version="1.0" encoding="utf-8"?>
<!-- Generator: Adobe Illustrator 18.0.0, SVG Export Plug-In . SVG Version: 6.00 Build 0)  -->
<!DOCTYPE svg PUBLIC "-//W3C//DTD SVG 1.1//EN" "http://www.w3.org/Graphics/SVG/1.1/DTD/svg11.dtd">
<svg version="1.1" id="Layer_1" xmlns="http://www.w3.org/2000/svg" xmlns:xlink="http://www.w3.org/1999/xlink" x="0px" y="0px"
	 viewBox="0 0 204 202.7" enable-background="new 0 0 204 202.7" xml:space="preserve">
<g display="none">
	<g display="inline">
		<path fill="#805C53" d="M196.5,305.7c-16.9,1.1-33.8,0.5-50.7,0.5c0.1-0.8,0.2-1.7,0.3-2.5c1.2-9,1.3-9.1-7.6-12.3
			c-3.5-1.3-3.5-3.8-2.3-6.4c1.8-4.1,2.2-8.5,1.4-12.7c-1-5.3,1-8.3,5.4-10.4c2.6-1.2,5.2-2.4,7-4.6c1.1-1.3,2.5-2.7,1.3-4.4
			c-1.2-1.6-2.7-0.4-4,0.3c-5.5,2.9-11.3,3.5-17.4,2.8c-8.3-0.9-16.6-1.1-24.6,2.2c-1.3,0.5-1.5,1.5-0.5,2.2c1,0.8,2.4,1.2,3.6,1.6
			c2.1,0.7,4.4,1.3,4.3,4.1c0,2.5-0.3,5.3-3.1,6.3c-3.5,1.3-3.1,3.3-1.5,5.8c0.8,1.4,1.5,3,2.1,4.5c1.1,3,2.9,4.6,6,2.5
			c1.7-1.1,3.4-1.2,5.2-0.2c1.3,0.7,3.1,1.2,2.8,3.1c-0.2,1.7-1.9,1.6-3.2,1.7c-4,0.2-5.2,2.7-4.7,6.1c0.4,3.3,1.4,6.5,2.1,9.7
			c-10.1,0.6-20.3,1.2-30.4,0.8c-4.8-0.2-4.8-0.7-3.3-5.3c6.2-18.9,10-38.1,3.6-57.7c-1.4-4.4-4.2-8.3-6.6-12.3
			c-5.9-9.9-10.8-20.2-12.8-31.7c-0.7-4.4-5.3-7.6-4.5-12.7c0.1-0.5-0.9-1.4-1.6-1.6c-5.1-1.8-5.9-3.9-3.6-9.8
			c2.3,1.5,0.1,5.6,3.1,6.1c2.2,0.4,1.4-2.6,2.5-3.7c5.1,4.5,15.6,5,21.3,1c1.9-1.3,3.6-3,5.4-4.4c1.1-0.9,2.3-2.4,3.9-1.7
			c1.9,0.9,0.7,2.6,0.4,4c-0.3,1.4-1.2,3.1,0.2,4.2c1.6,1.3,2.6-0.8,3.9-1c2.4-0.4,5-0.5,7.4-0.3c5.6,0.6,11.3,0.7,16.1,4.1
			c-7.1,2.1-14.3,1.7-21.5,0.4c-1.1-0.2-2.3,0.1-3.4,0.4c-1.4,0.5-1.9,2-0.6,2.6c5,2.3,9.6,7.7,15.2,6.3c7.5-2,15.6-3.9,21.3-10.1
			c0.8-0.9,2.5-1.8,1.6-3.2c-0.9-1.3-2.5-0.1-3.7,0c0-0.8,0-1.7,0-2.5c-0.1-3.8,0.9-5.2,4.5-2.4c4.7,3.7,10.1,6.3,15.6,8.7
			c1.6,0.7,3.2,0.7,4.9,0.5c3.1-0.5,6.2-1,9.4-1.4c6.4-0.8,10.8,4.5,8.9,10.8c-1.2,3.7-1.8,7.4-2.1,11.2c-0.2,2.4,0,4.8,1.8,6.5
			c3.3,3,3.2,6.4,1.3,9.9c-1.6,3-0.8,5.9-0.9,9c-0.2,9.8,4.2,18.8,3.8,28.5c-0.2,4.3,1.3,8,3.6,11.7c3.1,4.7,5.5,9.8,8.2,14.8
			c0.4,0.7,0.7,1.5,1.2,2.2c3.9,5.4,6.2,5.2,9.8-0.4c1.5-2.4,1.5-5.6,4-7.3c-0.2,2.9-1.3,5.5-2.3,8.1
			C201.2,293.7,198,299.3,196.5,305.7z M112.9,204.7c-0.9,0.3-1.9,0.9-2.8,0.8c-6-1.1-10.5,2.3-15.4,4.7c-1.2,0.6-2.5,1.2-1.4,2.9
			c2.3,3.6,12.4,4.1,15.1,0.6c1.1-1.4,11.9-4.2,13.5-3.6c1.4,0.6,1.8,1.9,1.9,3.3c0.1,1.2,0.5,2.7,1.9,2.3
			c5.6-1.3,11.2-2.8,16.7-4.3c0.9-0.3,1.8-1.1,1.3-2.3c-0.4-0.9-1.3-1-2.1-1c-2,0.1-4,0.7-5.8-0.5c0.5-1.4,1.3-2.7,1.5-4.2
			c0.9-5.1-4.8-10.4-8.8-8c-3.5,2.1-7.2,3.1-10.9,4.6C115.5,201,113.5,202.1,112.9,204.7z M114.7,235.8c0,0,0-0.1,0-0.1
			c1.5,0,3,0.1,4.5,0c2.9-0.1,6.4,0.7,6.7-3.9c0.2-4.1-2.1-6.3-7-6.2c-4.8,0-9.6,0.1-14.3-1.4c-1.1-0.3-2.1-0.9-2.7,0.9
			c-2,6.7,0.5,10.4,7.4,10.7C111.1,235.8,112.9,235.8,114.7,235.8z M125,241c-1.5,0.2-3.6,0-4,2c-0.5,2.8,2.1,3.4,3.9,4.4
			c2.7,1.5,5.5,1.3,6.7-1.8c1.4-3.6-2.2-3.2-4.1-4C126.8,241.2,125.9,241.2,125,241z"/>
		<path fill="#443736" d="M87.3,38.5c2.5-0.7,5-1.6,7.4-2.8c3.9-2.1,8.1-3.8,12.8-3c5.3,0.9,10.1-1.5,15-3c6.7-2,13.3-2.8,19.9,0.1
			c0.7,1,1.5,2,2.9,2c0.1,0.2,0.3,0.4,0.5,0.6c1.4,3,2.6,6.1,4.2,8.9c3,5.1,5.6,5.6,10.2,1.9c1.1-0.9,2-2.2,2.9-3.3
			c0.6,1.6,1.2,3.2,1.8,4.7c-0.9,4,2.5,5.6,4.6,8c2.7,3.2,4.6,2.5,5.8-1.2c0.8-4.1,0.7-8-1.8-11.6c0.1-0.3,0.1-0.7,0.2-1
			c1.5,0.3,2.9,0.5,4.4,0.8c0.1,3.1,1.6,5.2,4.6,6.1c0.1,7.1,1.5,13.8,5.7,19.8c0.4,5.7-1.5,11.9,5.2,15.9c1.4,0.8,3.7,4.5,1.4,6.4
			c-2.1,1.7-5.4,1.3-7.8-0.9c-0.6-0.5-1.2-1.3-1.4-2c-1.9-5.7-7-8.5-11.7-10.2c-14.4-5.2-29.5-9.2-44.8-4.2
			c-8.7,2.9-17.2,4.5-26.3,5.3c-8.5,0.8-16.9,3.4-25.4,5.1c-3.4,0.7-6.3,2.1-7.7,5.6c-1.8,0.6-3.2,1.9-4.3,3.4
			c-1.8-0.5-3.3-1.2-3.6-3.5c-0.9-6.2-6.8-11.5-3.8-18.5c0.5-0.2,1.1-0.4,1.6-0.7c1.9-0.4,4.2-1,1.4-3.1c-2.3-1.7-1.8-2.9-0.4-4.8
			c0.7-1,0.7-2.4,1.1-3.7c1.2-0.7,2.4-1.3,3.5-1.9c4.4,1.5,7,0,7.5-4.7c1.3-2,3.5-2.2,5.5-2.8c3.9,1.2,7.4-0.4,11.2-1.2
			c-1.1-2.9-5.6-1.2-5-5.1c0.7-0.4,1.4-0.8,2.1-1.2c0,0,0.4,0,0.4,0L87.3,38.5z"/>
		<path fill="#805C53" d="M70,86.4c1.4-3.5,4.3-4.9,7.7-5.6c8.5-1.7,16.9-4.3,25.4-5.1c9.1-0.8,17.7-2.4,26.3-5.3
			c15.3-5.1,30.3-1,44.8,4.2c4.7,1.7,9.8,4.5,11.7,10.2c0.3,0.8,0.8,1.5,1.4,2c2.4,2.1,5.7,2.6,7.8,0.9c2.3-1.9,0-5.6-1.4-6.4
			c-6.6-3.9-4.7-10.2-5.2-15.9c0.5,0.4,1.5,0.7,1.5,1.1c1.1,8.6,7.3,14.5,11.5,21.5c2,3.3,1.9,7,3,10.4c0.2,0.6-0.2,1.9-0.7,2.3
			c-7.7,6-2.9,13.2-2,20c0.2,1.6,1.3,3.1,0.6,4.8c-1.9,4.9-0.7,9.5,1.1,14c0.9,2.3,0.7,3.6-1,5.7c-2.2,2.7-3.4,6.3-5,9.5
			c-1.3,2.6-1.9,4.1-4.4,0.5c-3.1-4.4-4.1-8.9-4.1-14c-0.1-9.6-1.3-18.8-8.1-26.6c-3-3.4-3.8-7.7-2-12.6c3.4-9.2,1.8-17.6-3.7-20.8
			c-4.6-2.7-9.5-5-14.5-6.6c-9.7-3.3-19.5-2.5-28.9,1.5c-2.9,1.2-6,2-9.1,2.5c-11.8,2-23,6.4-35,7.5C81.9,86.7,76,87.3,70,86.4z"/>
		<path fill="#805C53" d="M155.1,148.8c0.1,0.7,0.2,1.3,0.3,2c0.4,1.9,3.5,3.6,0.9,5.7c-2.9,2.3-6.6,4.9-10,3
			c-5.2-2.8-11.1-3.4-16.4-5.6c-5.9-2.5-11.2-5-11.7-12.6c-0.2-2.7-1.9-5.1-5.2-5c-3.4,0.1-4.5,2.6-4.8,5.4
			c-0.5,4.3-0.7,8.6-2.6,12.6c-1.3,2.9-2.8,5.1-6.3,2.5c-0.6-0.4-1.9-0.9-2.3-0.6c-4.7,3.6-11.9,2.6-15.4,8.4
			c-1.3,2-3.2,3.4-5.7,3.5c-1.9,0.1-3.8-0.6-4.6-2.5c-1.3-3.1,2-4,3.7-6c-4.1-1.9-5.6-4.1-1.1-7c0.7-0.4,0.7-1.8,1.1-2.7
			c5.5,0.9,10.9,0.4,16.3-0.7c6.7-1.3,13.3-5.7,13.4-15c0.1-7.4-2.7-11.1-10.1-11.9c-1-0.1-2-0.2-2.4-1.4c4.9-2.3,9.6-1.6,13.1,1.8
			c3.8,3.8,10.2,3.9,13.5-0.5c2.8-3.8,6.4-5,10.7-4.9c6.2,0.2,12.5-1.1,18.7,0.9c-6.1,0.9-12.1,1.7-18.2,2.7
			c-7,1.2-9.5,6.9-5.8,12.8c0.6,1,1.1,2,1.2,3.2c0.7,6.4,7.8,9.7,13,6.2c1.2-0.8,3-2.4,3.8-0.6C144.6,149.2,150.2,148.1,155.1,148.8
			z"/>
		<path fill="#443736" d="M92,121.1c0.4,1.2,1.3,1.2,2.4,1.4c7.5,0.8,10.2,4.5,10.1,11.9c-0.1,9.3-6.7,13.6-13.4,15
			c-5.4,1.1-10.8,1.5-16.3,0.7c-2.3-0.1-4.5-0.4-6.7,0.5c-1.5-3.2-0.4-5.7,1.8-8.1c3-3.3,6.9-4.4,11.1-5c1.7-0.3,3.9-0.6,4.2-2.8
			c0.2-2.1-2-2.3-3.4-3.1c-6.3-3.5-12.6-1.1-18.8,0.3c1.6-5.4,6.3-7.2,10.8-9c1.6-0.7,3.5-0.8,5.2-1.2c2.6,0.4,5.3,0.7,7.8-0.7
			C88.6,120.9,90.3,121,92,121.1z"/>
		<path fill="#443736" d="M155.1,148.8c-4.9-0.7-10.5,0.4-13.1-5.9c-0.7-1.8-2.5-0.2-3.8,0.6c-5.3,3.5-12.4,0.2-13-6.2
			c-0.1-1.2-0.6-2.2-1.2-3.2c-3.7-6-1.2-11.6,5.8-12.8c6-1,12.1-1.8,18.2-2.7c2.3,0.1,4.7,0.2,7,0.4c0.5,0.8,1.2,1.1,2,0.4
			c0.6,0.2,1.3,0.5,1.9,0.7c0.4,0.9,1,1.4,2.1,0.8c0.7,0.4,1.3,0.8,2,1.2c0.5,3.4-2,2.7-3.9,2.9c-5.5,0.4-10.9,1.4-15.6,4.5
			c-1.5,1-3.9,1.6-3.3,3.8c0.5,1.9,2.8,1.3,4.4,1.4c4.6,0.3,9.3-0.3,13.8,1.4c6.2,2.3,8.6,5.7,7.6,10.9
			C162.1,146.5,158.3,146.1,155.1,148.8z"/>
		<path fill="#805C53" d="M58.3,67.9c-3,7.1,2.9,12.3,3.8,18.5c0.3,2.2,1.8,2.9,3.6,3.5c-3.2,3.1-3.6,7.1-2.8,11.1
			c0.8,4,0.9,8,0,11.9c-3.1,12.7-3.6,25.7-5,38.5c-0.2,1.4-0.6,2.6-1.6,3.6c-0.6,0.6-1.3,1.1-2.2,0.8c-1-0.4-1-1.4-0.6-2.1
			c1.5-2.5,0.7-5.2,0.7-7.8c0-14.7,3.8-28.9,4.8-43.4c0.4-4.9,0.1-10,1.7-14.8c0.7-2.2-0.8-2.7-2.4-3.5c-5.7-2.8-6.8-12.3-1.8-15.8
			C56.9,67.9,57.7,68,58.3,67.9z"/>
		<path fill="#805C53" d="M165.9,146.7c1-5.2-1.4-8.6-7.6-10.9c-4.5-1.7-9.2-1.1-13.8-1.4c-1.6-0.1-3.9,0.6-4.4-1.4
			c-0.6-2.2,1.8-2.8,3.3-3.8c4.7-3.1,10.1-4.1,15.6-4.5c1.8-0.1,4.4,0.5,3.9-2.9c2.6-0.2,4.5,1,6,2.9c1.3,1.7,1.4,3.8-0.9,4.4
			c-3.6,1-2.4,2.4-1,4.4c1.9,2.7,4.2,5.2,4.8,8.6c0.3,1.8,0.7,3.8-1,5.1C169.2,148.8,167.4,147.9,165.9,146.7z"/>
		<path fill="#805C53" d="M198.3,165.9c-3.4-6,2.7-7.2,5.3-10c2.9-3.1,6.4-1.3,9.2,0.3c3.2,1.8,3.6,5,2.3,8.3
			c-2.8,6.9-4.3,14.4-8.6,20.7c2.6-5.5,4.5-11.1,2.7-17.2c-0.2-0.8-0.3-1.7-0.6-2.4c-0.5-1.5-1.3-2.8-3.1-2.8c-0.9,0-1.7,0.3-2,1.2
			c-0.6,1.6,0.5,2.5,1.4,3.5c3.2,3.5,3.6,7.3,1.3,11.5c-0.8,1.5-2,2.6-3.6,3.3c-1.3,0.5-2.5,0.9-3.7-0.2c-1-1-1.5-2.1-1.1-3.6
			c0.5-1.9,0.9-3.9,1.4-5.8c2.7-0.1,3.3-2,3-4.1C201.9,166.4,200.7,165.1,198.3,165.9z"/>
		<path fill="#805C53" d="M63.1,131.7c6.3-1.4,12.5-3.8,18.8-0.3c1.4,0.8,3.6,1,3.4,3.1c-0.2,2.2-2.5,2.6-4.2,2.8
			c-4.2,0.6-8.1,1.7-11.1,5c-2.2,2.4-3.3,4.9-1.8,8.1c-3.3,2.4-4.8,0.9-5.2-2.5c-0.2-1.8-0.1-3.6,0-5.4
			C63.3,138.9,66.3,135.3,63.1,131.7z"/>
		<path fill="#443736" d="M132,179.7c1.3-0.1,2.8-1.3,3.7,0c1,1.5-0.7,2.3-1.6,3.2c-5.7,6.2-13.8,8.2-21.3,10.1
			c-5.6,1.5-10.1-4-15.2-6.3c-1.3-0.6-0.8-2.1,0.6-2.6c1.1-0.4,2.3-0.6,3.4-0.4c7.2,1.3,14.4,1.7,21.5-0.4
			C129.9,185.2,130.5,184.9,132,179.7z"/>
		<path fill="#805C53" d="M163.3,39.8c-1,1.1-1.8,2.4-2.9,3.3c-4.6,3.7-7.3,3.3-10.2-1.9c-1.6-2.8-2.8-5.9-4.2-8.9
			c1.5-0.6,2.9-0.6,4.4,0c3.2,1.4,5.6,4.4,9.8,3.6C161.6,35.6,163,37.8,163.3,39.8z"/>
		<path fill="#805C53" d="M175.5,51.3c-1.3,3.6-3.1,4.4-5.8,1.2c-2-2.4-5.5-3.9-4.6-8c1.6-4.9-2.3-8.2-4.3-12.5
			c3.9,0.3,5.3,2.6,6.3,5.2c1.1,2.8,1.9,5.6,2.6,8.5C170.4,48.9,172,51.1,175.5,51.3z"/>
		<path fill="#805C53" d="M84.7,39.9c-0.6,3.9,3.9,2.2,5,5.1c-3.7,0.8-7.2,2.4-11.2,1.2C77.5,41.1,79.8,39.3,84.7,39.9z"/>
		<path fill="#805C53" d="M57.6,167.6c0.2,1.8-0.4,3.8-2.1,3.4c-4-1-1.8-5.1-3.1-7.6c-0.4-0.9,0.1-2.3,1.4-2
			C57.1,162.3,57.2,165.2,57.6,167.6z"/>
		<path fill="#805C53" d="M61.9,55.6c-0.3,1.2-0.4,2.7-1.1,3.7c-1.3,1.9-1.9,3,0.4,4.8c2.8,2.1,0.5,2.7-1.4,3.1
			C53.5,62.1,60.3,59.3,61.9,55.6z"/>
		<path fill="#805C53" d="M191.7,188.5c-0.2,1.9-0.3,3.3-0.5,4.8c-0.1,1,1,2.5-0.8,2.9c-0.7,0.2-1.6-0.3-2.3-0.7
			c-1.2-0.7-1.2-2-0.7-3.1C188.2,190.7,188.8,188.5,191.7,188.5z"/>
		<path fill="#443736" d="M198.3,165.9c2.4-0.9,3.5,0.4,3.8,2.4c0.3,2.1-0.3,4-3,4.1C199,170.3,197.7,168.2,198.3,165.9z"/>
		<path fill="#805C53" d="M55.8,177.3c0,3.6,0,7.3,0,10.9C53.9,184.7,54.2,181,55.8,177.3z"/>
		<path fill="#805C53" d="M73,49c-0.5,4.7-3.1,6.2-7.5,4.7C68,52.1,70.5,50.6,73,49z"/>
		<path fill="#805C53" d="M145.3,31.7c-1.4,0-2.2-0.9-2.9-2c3.2-3.5,6.4-1.3,9.6-0.1l-0.3,0.3C149.4,30,147.1,30,145.3,31.7z"/>
		<path fill="#805C53" d="M182.9,45.6c-3-0.9-4.5-3-4.6-6.1C182.5,39.6,183.1,42.3,182.9,45.6z"/>
		<path fill="#805C53" d="M86.9,120.8c-2.5,1.4-5.1,1.1-7.8,0.7C81.4,118,84.1,119.4,86.9,120.8z"/>
		<path fill="#805C53" d="M152,29.7c2.1,0.2,4.1,0.6,5.6,3.3c-3.1,0.5-4.5-1.3-5.8-3C151.7,29.9,152,29.7,152,29.7z"/>
		<path fill="#805C53" d="M173.9,38.7c-0.1,0.3-0.1,0.7-0.2,1c-0.9-0.1-2.3,0.1-1.7-1.3C172.3,37.6,173.3,38,173.9,38.7z"/>
		<path fill="#805C53" d="M156.9,119.3c-0.8,0.6-1.5,0.4-2-0.4C155.6,119,156.3,119.1,156.9,119.3z"/>
		<path fill="#805C53" d="M160.9,120.7c-1,0.7-1.6,0.1-2.1-0.8C159.5,120.2,160.2,120.5,160.9,120.7z"/>
		<path fill="#805C53" d="M87.3,38.5l-0.2,0.3c0,0-0.4,0-0.4,0C86.8,38.4,87,38.4,87.3,38.5z"/>
		<path fill="#A58179" d="M135.8,207.8c-0.6,0-1.2,0-1.7,0c-0.4,0-0.8-0.1-1.2-0.1c-6.7-0.8-13.1-3.6-20-2.9
			c0.6-2.6,2.6-3.7,4.8-4.6c3.7-1.4,7.4-2.5,10.9-4.6c4-2.4,9.7,3,8.8,8C137.1,205,136.4,206.4,135.8,207.8z"/>
	</g>
</g>
<g>
	<circle fill="#FFEFC7" cx="101.9" cy="101.6" r="101.6"/>
	<defs>
		<filter id="Adobe_OpacityMaskFilter" filterUnits="userSpaceOnUse" x="44.6" y="39.4" width="107.9" height="159.6">
			
				<feColorMatrix  type="matrix" values="-1 0 0 0 1  0 -1 0 0 1  0 0 -1 0 1  0 0 0 1 0" color-interpolation-filters="sRGB" result="source"/>
		</filter>
	</defs>
	<mask maskUnits="userSpaceOnUse" x="44.6" y="39.4" width="107.9" height="159.6" id="SVGID_1_">
		<g filter="url(#Adobe_OpacityMaskFilter)">
			<circle fill="#010202" cx="101.9" cy="101.6" r="101.6"/>
		</g>
	</mask>
	<g mask="url(#SVGID_1_)">
		<path fill="#FBD46B" d="M118.4,51.4c0.4-0.7,0.6-1.1,0.9-1.8c1.2,1.5,0.8,4,3.1,4.8c3.2-2,1.1-5.3,1.8-8c2.4,1.6,2.9,4.2,3.6,6.6
			c0.9,3.1,1.6,6.2,2.3,9.4c0.4,1.7,0.7,3.5,1.1,5.7c1.6,1.1,3.7,2.5,3.9,5.7c-0.8-0.4-1.5-0.7-2.2-1c-0.4,0.3-0.8,0.7-1.6,1.3
			c-0.8-1.5-1.4-2.8-2.4-4.7c-2.1-0.8-4.6-1.9-7.1-2.9c-0.9-0.4-1.8-0.7-2.7-1c-0.7-0.3-1.4-0.7-2.1-0.8c-3.8-0.7-7.7-1.8-11.5-1.7
			c-4.7,0.1-9.5,0.9-13.6,3.5c-1.6,1-3.3,1-5,0.9c-1.6-0.1-3.2,0.1-4.8,0.4c-4.8,1-9.7,1.7-14.6,2.6c-1.2,0.2-2.3,0.9-3.3,1.4
			c-1.6,0.9-2.8,2.6-5.2,2.9c-0.2-1.7-0.4-3.3-0.6-4.9c-1-0.6-2-1.3-3-1.9c0-1.2,0-2.3,0-3.8c0.9-0.7,2-1.7,3.4-2.8
			c-0.8-0.5-1.5-1-2.4-1.6c1-1.4,2-2.8,3.1-4.4c0.6-0.1,1.3-0.3,2.1-0.4c1.4-0.2,2.6-0.6,3.2-2c0.7-1.7,2.1-2.2,3.7-2.3
			c3.3-0.1,6.6-0.2,9.9-0.3c0.4,0,0.8-0.2,1.3-0.7c-2.6-0.6-5.3-1.2-8-1.9c0.2-1.4,1.1-1.6,2-2c2.5-0.9,4.9-1.9,7.3-2.9
			c1.4-0.6,2.8-0.4,4.2,0c2.5,0.7,5,1.3,7.6,0.4c0.7,0.3,1.5,0.7,2.6,1.2c-0.3-1.3-1.1-1.5-1.8-1.8c-0.7-0.3-1.4-0.6-2-1.2
			c4.1-1.4,8.2-3,12.5-0.7c2.6,1.4,3.9,4.1,5.7,6.3c0.6,0.8,1.3,1.4,1.9,2.1c1.6-0.7,2.8-1.2,4-1.8c0-0.4,0.1-0.9,0.1-1.4
			c0.1-0.1,0.2-0.1,0.4-0.2C116.8,47.4,117.5,49.2,118.4,51.4z"/>
		<path fill="#FBD46B" d="M113,164.6c0.7,2.6,1.3,4.6,1.7,6.6c0.2,0.7,0.1,1.5-0.1,2.3c-0.5,1.9,0.1,3.5,1.1,5.1
			c2.2,3.9,4.2,7.9,6.5,12.3c-1.8,0.2-3.3,0.3-4.7,0.5c-0.3,0.4-0.6,0.6-0.7,1c-0.6,1.8-1.8,2.8-3.8,3c-2.1,0.2-3.6,1.1-4.3,3.5
			c-4.3,0-8.6,0.1-12.8,0c-3.9-0.1-7.8-0.9-11.7,0.1c-1.4,0.3-2.6-0.4-3.5-1.5c-2.4-3.1-3.4-6.6-3.2-10.4c0-0.7,0.7-1.5,1-2.2
			c1.2,0.2,2.1,0.3,3,0.5c1.5-2.1,1.8-4.1,0.4-5.8c-1.6-1.9-2.7-3.8-2.9-6.3c-0.1-0.7-0.7-1.3-1-2.1c-0.2-0.5-0.1-1.1-0.2-2
			c2.2,0.5,4,1,6,1.5c1.6-1.4,3.4-1.5,5.4-1.2c1.8,0.2,3.8-0.3,5.7-0.2c1.5,0,3,0.5,4.4,0.7c0.7,0.1,1.4,0.3,2,0.1
			c2.9-0.9,5.9-1.4,8.4-3.4C110.6,165.5,111.8,165.2,113,164.6z"/>
		<path fill="#FBD46B" d="M104.8,99.8c1,0.1,2,0,3,0.2c2.6,0.5,5.3,0.9,7.8,1.7c2.2,0.7,3.5,2.5,3.7,5.1c-0.5,0.1-1,0.2-1.4,0.2
			c-2-0.3-4-0.1-5.9,0.8c-2.7,1.3-5.3,1-8.1,0.4c-1.4-0.3-2.9-1-4.8-0.2c1.1,0.7,1.9,1.1,3,1.8c-1.8,0.7-2.9,0.1-4-0.7
			c0-0.9,0-1.7,0-2.9c-1.1-0.3-2.2-0.7-3.4-1.1c-0.6-1.7-1.3-3.6-1.9-5.5c-1.1-3.4,1.2-6.8,4.8-7.3c4.7-0.7,9.5-0.5,14.2-0.2
			c2,0.1,3.7,1.2,5.4,2.3c-0.5,1.2-1.4,1-2.2,0.8c-4.3-0.6-7.4,1.5-10.4,4C104.7,99.3,104.8,99.6,104.8,99.8z"/>
		<path fill="#FBD46B" d="M152.5,198.8c-5.8,0-11.3,0.4-16.9-0.5c2.7-7,5.3-13.7,8-20.5c2.4,0.6,4.7,1.1,7,1.7c1.3,0.4,2,1.4,2,2.8
			C152.5,187.7,152.5,193.1,152.5,198.8z"/>
		<path fill="#FBD46B" d="M60.4,97.9c2.9-4.2,8.7-5.5,18.1-4.2c1.1,1,2.3,2,3.2,3.1c0.5,0.6,1,1.5,0.9,2.3c-0.1,1.8-0.1,3.6,0.5,5.3
			c0.1,0.3-0.1,0.7-0.3,1.2c-0.8,0.2-1.6,0.4-2.4,0.5c0.1,0.1,0.1,0.2,0.2,0.3c-1.1,0.7-2,1.8-3.2,2.1c-3,0.7-6,1.4-9.3,0.7
			c-2.1-0.5-4.3-0.4-6.7-0.6c-0.6-0.5-0.3-1.3,0.2-2c1.8-2.2,3.8-4,6.8-4.3c1.3-0.1,2.7-0.3,3.6-1.4C71,98,69.2,97.6,60.4,97.9z"/>
		<path fill="#FBD46B" d="M106.1,143.8c-1.3,1.2-2.8,2.1-4.6,2.4c-1.8,0.2-3.6,0.5-5.3,1c-4.4,1.4-8.9,1.1-13.3,0.5
			c-2.8-0.4-5.6-1.5-8.8-2.5c0.7-0.6,1-1.1,1.3-1.2c2.3-0.9,4.5-1.9,6.9-2.6c3-0.9,6.2-0.8,9.3-0.5c2.5,0.3,5,0.9,7.6,1.3
			c1.6,0.2,3.2,0.2,4.8,0.2C105,142.5,105,142.5,106.1,143.8z"/>
		<path fill="#FBD46B" d="M96.9,150.7c1.1,2.1,2,4.1,3.1,6.3c-0.8,0.5-1.4,1.2-2.1,1.3c-2,0.3-4,0.3-5.9,0.4c-1.5,0.1-3-0.1-4.5,0.1
			c-2.3,0.3-4.3-0.3-6.5-1c0-2.4,0-4.6,0-7.3C86.2,152.2,91.4,150.8,96.9,150.7z"/>
		<path fill="#FBD46B" d="M100.7,128.9c-2.1,1.1-4.1,2.2-6.2,3.1c-1.9,0.9-3.8,1.7-5.8,2.2c-1,0.3-2.3,0.3-3.3-0.1
			c-2.1-0.9-4-2.2-5.9-3.4c-0.4-0.2-0.6-0.7-1.2-1.4c1.1-0.4,1.9-1,2.7-1c2.7,0.2,5.4,0.6,8.5,1c2.4-2.1,5.5,0.4,8.5-0.4
			c0.7-1.2,1.3-2.3,2.1-3.8c0.9,0.5,1.9,0.7,2.4,1.4c1.7,2.3,4.2,4.1,4.6,7.6C104.3,132.9,103.2,129.9,100.7,128.9z"/>
		<path fill="#FBD46B" d="M51,198.8c-2.1,0-3.9,0-6,0c-0.1-0.8-0.2-1.6-0.3-2.7c2.4-0.3,4.5-0.6,7.1-1
			C51.4,196.6,51.2,197.7,51,198.8z"/>
		<path fill="#FBD46B" d="M144.2,118.3c-1.1-1.7-1.8-2.9-2.7-4.3c1.3-0.7,2.7-1.6,4.2-0.3c1.7,1.3,0.6,2.9,0.1,4.5
			C145.2,118.3,144.6,118.3,144.2,118.3z"/>
		<path fill="#FBD46B" d="M140.4,123c-0.8,0.2-1.6,0.4-2.8,0.6c-0.1-2-0.2-3.6-0.3-5.4C139.5,118.9,140,119.8,140.4,123z"/>
		<path fill="#FBD46B" d="M53.7,116.5c1.8,0.9,2.1,2.3,1.7,4.3C53.6,119.7,53.9,118.1,53.7,116.5z"/>
		<path fill="#FBD46B" d="M109.7,173.7c0,1.2,0.1,1.8,0,2.4c-0.5,3.4-1.2,6.7-1.6,10.1c-0.4,3.3-1.4,3.9-4.7,2.4
			c0.6-3.4-0.6-7,0.3-10.5c0.3-1,0.9-2.1,1.8-2.7C106.5,174.7,107.9,174.4,109.7,173.7z"/>
		<path fill="#FBD46B" d="M102.1,106.5c1-1,1.4-1.4,2.1-2.2c0.6,1,1,1.7,1.4,2.4c-0.1,0.2-0.3,0.4-0.4,0.6
			C104.3,107.1,103.5,106.9,102.1,106.5z"/>
		<path fill="#FBD46B" d="M85.3,145.8c2.7-0.8,5-1.5,7.4-2.1c0.4-0.1,0.8,0.3,1.3,0.5c0.4,1.6-0.1,2.6-1.7,2.7
			c-2,0.1-3.9-0.1-5.9-0.2C86.1,146.6,85.9,146.3,85.3,145.8z"/>
	</g>
</g>
</svg>
