<svg xmlns="http://www.w3.org/2000/svg" viewBox="0 0 180.28 260.68"><defs><style>.a,.b{fill:#fff;}.a{stroke:#3cb76f;stroke-width:0.28px;}.a,.s{stroke-miterlimit:10;}.b{font-size:12px;font-family:Transport;}.c{fill:#0c0a0c;}.d{fill:#3d4da0;}.e{fill:#afafaf;}.f{fill:#272b6e;}.g{fill:#919191;}.h{fill:#ebb380;}.i{fill:#f0decf;}.j{fill:#fce403;}.k{fill:#e92125;}.l{fill:#f8e111;}.m{fill:#3c4b9c;}.n{fill:#f6f5f4;}.o{fill:#e7b280;}.p{fill:#fefefe;}.q{fill:#060614;}.r{fill:#120d09;}.s{fill:none;stroke:#231f20;}</style></defs><title>card-may</title><path class="a" d="M536.76,2291.49v252h180v-252h-180Zm163.17,225.26a12,12,0,0,1-12,12H564.69a12,12,0,0,1-12-12V2317.95a12,12,0,0,1,12-12H687.93a12,12,0,0,1,12,12v198.81Z" transform="translate(-536.62 -2291.35)"/><text x="-536.62" y="-2291.35"/><text class="b" transform="translate(36.71 176.73)">Theresa May<tspan x="0" y="24">Goal: Gain then </tspan><tspan x="0" y="38.4">lose 4 FP.</tspan></text><path class="c" d="M611.62,2438.83l-0.17,0c0.06-.85.11-1.71,0.17-2.56,0.14-1.87.26-3.74,0.44-5.61,0.28-2.9.7-5.77,1.13-8.65a8.18,8.18,0,0,0,.18-1.55l-2.77,2.64a0.9,0.9,0,0,1,.23-0.52l3.27-4.83,0-.09-0.1,0a12,12,0,0,1-3.74,1.16c-0.12,0-.26.13-0.33,0s0.12-.19.22-0.25l2.4-1.38,1.75-1c-0.33-.2-0.63-0.36-0.9-0.55a1.92,1.92,0,0,1,.25-3.36,3.76,3.76,0,0,1,1.33-.36c0.33,0,.5-0.09.25-0.45a3.07,3.07,0,0,1-.38-0.79,2.18,2.18,0,0,1,0-1.87,1.37,1.37,0,0,0-.15-1.9c-0.43-.52-0.87-1-1.32-1.52-0.17-.18-0.13-0.25.07-0.36a1.06,1.06,0,0,1,1.4.24,4.74,4.74,0,0,1,.81,1.46c0.08,0.2.07,0.55,0.28,0.55a0.87,0.87,0,0,0,.63-0.51,1.49,1.49,0,0,0,.22-0.75,4.7,4.7,0,0,0-.38-1.79,31.72,31.72,0,0,1-1-3.32,1,1,0,0,1,.44-1.18l1.69,5.14c0,0.14,0,.33.25,0.33a7.37,7.37,0,0,0,2-.06,2.42,2.42,0,0,0,.71-1.19l0,0c0.06-.08.07-0.24,0.22-0.22a0.27,0.27,0,0,1,.19.29c0.17,0.69.34,1.38,0.49,2.08a0.28,0.28,0,0,0,.3.26c0.67,0,1.34.1,2,.16a0.31,0.31,0,0,0,.4-0.33c0.22-1.39.46-2.77,0.72-4.25a5.06,5.06,0,0,1,1,2.32,8.1,8.1,0,0,1-.2,2.5,0.16,0.16,0,0,0,0,.06s0.06,0,.1,0c0.44-.24.89-0.48,1.32-0.73,0.16-.09.25-0.09,0.3,0.1a0.22,0.22,0,0,0,.16.23c1-1.39,2.58-1.43,4.18-1.61-0.81-.47-1.54-0.87-2.25-1.31a5.44,5.44,0,0,1-2.85-5.28,8.15,8.15,0,0,0-.23-2.21,1.07,1.07,0,0,0-1.2-1c-1.33,0-2.66,0-4,0a0.49,0.49,0,0,0-.63.51,1.42,1.42,0,0,1-1.65,1.36,6.18,6.18,0,0,1-1.28-.22,2.78,2.78,0,0,0-3.71,2.22,24.58,24.58,0,0,0-.74,3.74,42.49,42.49,0,0,1-2.28,9.6,53,53,0,0,1-3.62,7.91,0.45,0.45,0,0,1-.38.32,5.49,5.49,0,0,1-2.54-.38,23.71,23.71,0,0,1-3.05-1.55,8.65,8.65,0,0,1,.17,1.06q0.18,5.59.33,11.18c0.05,1.88.11,3.75,0.15,5.63a2.44,2.44,0,0,1-.14,1.36,0.25,0.25,0,0,0,0,.24,1.47,1.47,0,0,1,.12.86c-0.63.09-.71,0-0.75-0.6q-0.33-5.1-.66-10.19c-0.16-2.47-.33-4.95-0.46-7.43a13.06,13.06,0,0,1,0-2.51,0.4,0.4,0,0,0-.26-0.45c-1.12-.67-2.24-1.35-3.36-2-1.29-.8-1.47-1.36-0.88-2.76a60.06,60.06,0,0,0,3.54-11.37c0.29-1.41.54-2.83,0.72-4.26a5.81,5.81,0,0,1,.42-1.44l-2-.34a85.91,85.91,0,0,1-9.25-2,4.4,4.4,0,0,1-2.83-2.14c-0.18-.33-0.23-0.7-0.37-1v-1.09a6.8,6.8,0,0,1,1.43-3,17.46,17.46,0,0,1,3.78-3.31,21.86,21.86,0,0,0,5.65-5.22,21.28,21.28,0,0,0,3.78-9,2.75,2.75,0,0,1,3.67-2.34,18,18,0,0,1,3.29,1.32,18,18,0,0,0,8.49,1.73,1.49,1.49,0,0,0,1.64-1.79c0-.29,0-0.58-0.09-0.88a12.68,12.68,0,0,0-5.89-9.27,11.53,11.53,0,0,1-4.4-5.05,17.26,17.26,0,0,1-1.33-6.19,22.84,22.84,0,0,1,1.93-10.83,13.68,13.68,0,0,1,4.6-5.91,14,14,0,0,1,3.72-1.74h2.36a6.93,6.93,0,0,0,2.58.82,20.82,20.82,0,0,0,3.77.14c6.21-.11,11.59,1.82,15.71,6.66a8.36,8.36,0,0,1,2,7.19l1.42-1.84a22,22,0,0,1,4.85-4.8,10.89,10.89,0,0,1,7.43-1.87,34.74,34.74,0,0,1,6.25,1.5c3.46,1,6.9,2,10.34,3.07a7.37,7.37,0,0,1,5.48,6.37,37.47,37.47,0,0,1,.4,7.41,40.56,40.56,0,0,1-4.18,16.3c-0.19.39-.39,0.77-0.58,1.16a0.69,0.69,0,0,1-.41.41l0.24-.94c0.07,0,.06-0.07,0-0.12l-0.1.07a2.44,2.44,0,0,1-1.42.82,1.29,1.29,0,0,1-1.27-.55l-0.58.91a12.72,12.72,0,0,1,2.19,1.3,9.72,9.72,0,0,1,3.63,5.9,22.94,22.94,0,0,1,.22,6.9,98.94,98.94,0,0,0-.81,11.93,49.16,49.16,0,0,0,2.51,14.18,51.57,51.57,0,0,0,5.13,10.8A4.64,4.64,0,0,1,684,2423a2.23,2.23,0,0,1-1.19,2.53,8.75,8.75,0,0,1-3,.86,31.83,31.83,0,0,1-8.26,0l-0.38,0c-0.75-.06-0.77-0.06-1,0.68a71.33,71.33,0,0,1-4.6,12c-0.11.22-.18,0.36-0.39,0.11a1.12,1.12,0,0,0,.15-0.25q0.44-1.43.86-2.86c0.46-1.56.91-3.13,1.39-4.69s1-3.12,1.45-4.68c0.06-.21,0-0.31-0.22-0.31a21.88,21.88,0,0,1-2.68-.17q-1.7-.23-3.37-0.58a29.56,29.56,0,0,1-2.89-.77c-1-.31-1.94-0.57-2.88-0.92-1.54-.57-3-1.21-4.58-1.78a1.8,1.8,0,0,1-1.4-1.53,17.55,17.55,0,0,0-.66-2.78c-0.35-1.26-.7-2.53-1-3.8-0.07-.31-0.17-0.61-0.27-1a5.54,5.54,0,0,0-.39,1.33c-0.23.84-.42,1.7-0.63,2.54s-0.37,1.6-.55,2.4-0.37,1.65-.56,2.47-0.43,1.69-.61,2.55a0.77,0.77,0,0,1-.52.63,19.45,19.45,0,0,1-4.07,1,32.45,32.45,0,0,1-4.18.35c-0.29,0-.34.11-0.34,0.37,0,0.84,0,1.68,0,2.52s0.1,1.68.21,2.51,0.16,1.44.26,2.16,0.26,1.71.4,2.56,0.38,2.18.58,3c-0.25.11-.32-0.63-0.35-0.71a44.3,44.3,0,0,1-2.3-8.17c-0.21-1.21-.34-2.43-0.47-3.65a1.06,1.06,0,0,0-.85-1c-0.87-.28-0.86-0.28-1.1.57a48.77,48.77,0,0,0-1.53,8c-0.14,1.37-.24,2.73-0.25,4.11,0,0.11.14,0.34-.15,0.33-0.13-1.54-.3-3.07-0.34-4.61-0.05-2.13.2-4.25,0.34-6.38a2.15,2.15,0,0,1,.82-1.66,1.1,1.1,0,0,0,.32-0.44,13.32,13.32,0,0,0,.45-9.54,0.23,0.23,0,0,0-.35-0.19,2.84,2.84,0,0,1-2.79-.71c-0.18-.16-0.26-0.19-0.44,0a20.71,20.71,0,0,1-4.82,4.28,0.36,0.36,0,0,0-.14.6c0.41,0.71.79,1.44,1.22,2.25l-1.55-.36c-0.2,0-.3-0.06-0.24.23a75,75,0,0,1,.94,7.66,67.13,67.13,0,0,1,.07,7.31,4.85,4.85,0,0,1-.14,1.43,40,40,0,0,1-.85-4.79q-0.31-3.07-.62-6.14c-0.16-1.66-.31-3.32-0.47-5a1.74,1.74,0,0,0-1.28-1.62,14.39,14.39,0,0,1-6.71-4.54c-0.12.74-.23,1.4-0.34,2.07q-0.58,3.73-1.16,7.45c-0.35,2.28-.69,4.55-1,6.83q-0.42,2.77-.86,5.54a0.38,0.38,0,0,1-.06.11Zm16.37-77.9a10.47,10.47,0,0,0,3.39-7.9c-0.05-3.12.36-6.21,0.56-9.31a8.94,8.94,0,0,0-.71-4.42c-0.64-1.38-1.84-1.87-3.19-.69a11.92,11.92,0,0,1-10.65,2.86,4.6,4.6,0,0,0-1.66-.15,3.18,3.18,0,0,0-2.23,1.75,10.76,10.76,0,0,0-1.34,5.26,19,19,0,0,0,1.8,8.24c1.77,4,4.53,7.37,7.32,10.7a0.83,0.83,0,0,0,1,.17,5.14,5.14,0,0,0,1.88-2,0.2,0.2,0,0,0,0-.26c-0.14-.16-0.26-0.26-0.46,0-0.4.49-.84,0.94-1.32,1.48,0-.38,0-0.65,0-0.91a0.56,0.56,0,0,0-.35-0.62,7,7,0,0,1-2.42-2.16c-1-1.37-1.9-2.76-2.75-4.22-0.93-1.61-1.77-3.26-2.57-4.94a0.79,0.79,0,0,1,0-.94,1,1,0,0,1,1.09-.22,1.6,1.6,0,0,1,.76.63,6.15,6.15,0,0,0,5.25,2.73,7.38,7.38,0,0,0,3.69-.95c1.09-.57,2.15-1.19,3.24-1.75s1.39-.1,1.57.93a1.84,1.84,0,0,1,0,.71,15.11,15.11,0,0,1-.5,1.59c-0.49,1.45-1,2.9-1.48,4.35a0.08,0.08,0,0,0,0,.12Zm23.49,47.82-0.33.44a5.55,5.55,0,0,0-.89,1.8,8,8,0,0,0,0,3.82,29.24,29.24,0,0,1,1,4.64,0.24,0.24,0,0,0,.2.21c2.76,1.47,5.5,3,8.31,4.32a8.5,8.5,0,0,0,2.11.84c1,0.19,2.11.27,3.16,0.39a75.94,75.94,0,0,0,13.13.16,19.58,19.58,0,0,0,3.93-.53,1.83,1.83,0,0,0,1.31-1.08,1.43,1.43,0,0,0-.53-1.62,15.38,15.38,0,0,1-2.7-3.58,23.42,23.42,0,0,1-1.51-3.39c-0.38-1.08-.7-2.18-1-3.28-0.19-.71-0.34-1.43-0.54-2.13s-0.43-1.69-.63-2.53-0.4-1.58-.6-2.37-0.37-1.59-.58-2.38a13,13,0,0,0-.64-2.23,5.22,5.22,0,0,1-.68-2.87c0.07-.59.23-1.18,0.31-1.77,0.12-.84.27-1.68,0.4-2.52q0.26-1.7.43-3.41c0.11-1.11.17-2.23,0.23-3.35a46.6,46.6,0,0,0-.21-9.72,4.8,4.8,0,0,0-2.15-3.44,0.74,0.74,0,0,0,.14.56c0.2,0.83.45,1.66,0.57,2.51a15.39,15.39,0,0,1,.27,2.15,16.06,16.06,0,0,1-.32,3.83,16.37,16.37,0,0,1-.78,2.4,15.63,15.63,0,0,1-2.48,3.94c-0.39.47-.86,0.88-1.28,1.34a0.22,0.22,0,0,1-.32.07c-0.1-.09.05-0.16,0.1-0.23,0.77-1.2,1.6-2.36,2.29-3.61a18.09,18.09,0,0,0,1.43-3.28,13.1,13.1,0,0,0,.57-3.28,10.54,10.54,0,0,0-.28-3.16,8.46,8.46,0,0,0-1.52-3.1,5.75,5.75,0,0,0-1.94-1.76,19.39,19.39,0,0,0-.27,3c-0.13,1.24-.18,2.48-0.26,3.73s-0.16,2.21-.22,3.31a0.33,0.33,0,0,1-.29.37c-0.49.09-1,.2-1.47,0.29a0.6,0.6,0,0,0-.56.91c0.18,0.54.36,1.07,0.5,1.62a0.37,0.37,0,0,1-.22.52c-2.17,1-4.38,2-6.55,3a24.62,24.62,0,0,0-3.74,1.93c-0.52.37-1,.76-1.62,1.2a0.84,0.84,0,0,1,1.06.59c0.09,0.2.22,0.37,0.3,0.57,0.15,0.39.29,0.35,0.58,0.1a15.25,15.25,0,0,1,4.45-2.75,16,16,0,0,1,4-.95,13.18,13.18,0,0,1,1.64,0,11.62,11.62,0,0,1-1.11.35,34.5,34.5,0,0,0-4,1.46,25.24,25.24,0,0,0-7.25,5,15.34,15.34,0,0,1-1.59,1.54,5.74,5.74,0,0,1-2.58,1,26.65,26.65,0,0,0-6.54,2.05,27.22,27.22,0,0,0-6.49,4.43,2.52,2.52,0,0,1-2.38.69,3.65,3.65,0,0,0-2.1,0,3,3,0,0,0-1.88,1.67,5.15,5.15,0,0,0,.09,3.8,16.64,16.64,0,0,0,2.61,4.51,2.2,2.2,0,0,0,2.2.74,14.54,14.54,0,0,0,2-.87l5.63-2.76,6.13-3A14,14,0,0,1,651.49,2408.75Zm-38.85-52.16c-0.13-.35-0.25-0.69-0.4-1a13.28,13.28,0,0,1-1-5.32,29.51,29.51,0,0,1,.44-5.44,6.28,6.28,0,0,1,1.91-3.74,2.7,2.7,0,0,1,2.93-.7,8.91,8.91,0,0,0,2.85.47,11.83,11.83,0,0,0,6.71-2.12,21,21,0,0,0,4.69-4.42,1.13,1.13,0,0,1,1.09-.5,1.32,1.32,0,0,1,.69,1.13,1.56,1.56,0,0,1-.07.58c-0.09.24-.14,0.48-0.23,0.72a2.55,2.55,0,0,0,.25,2.55,3,3,0,0,1,.6,1.59,32.87,32.87,0,0,1-.18,5.66,36.86,36.86,0,0,0-.48,3.83,29.83,29.83,0,0,0,.4,3.24,5.49,5.49,0,0,1-1.2,4.08,2,2,0,0,0-.29.41,3.11,3.11,0,0,0,3,4.46c0.29,0,.42-0.07.38-0.41-0.08-.75.12-0.94,0.86-1a19.64,19.64,0,0,0,2.17-.22,1.16,1.16,0,0,0,1-1.67,1.2,1.2,0,0,1,.78-1.62l0.12,0a1.61,1.61,0,0,0,1-1.42,1.67,1.67,0,0,0-.91-1.74c-0.16-.09-0.33-0.15-0.5-0.22a0.9,0.9,0,0,1-.33-1.58,5.52,5.52,0,0,1,.81-0.66,5,5,0,0,0,1.42-1.74,0.92,0.92,0,0,0-.19-1.08,1.06,1.06,0,0,0-1.14-.35,0.83,0.83,0,0,0-.45.87,2.29,2.29,0,0,1-.26.92,0.33,0.33,0,0,1-.49.16,0.31,0.31,0,0,1-.08-0.5,1.45,1.45,0,0,0,.27-1.31c-0.07-.3-0.12-0.6-0.17-0.91a1.15,1.15,0,0,1,.72-1.4,2.32,2.32,0,0,0,1.55-2.31c0.07-1.26.2-2.51,0.29-3.77a20,20,0,0,0,.13-2.6,1.92,1.92,0,0,0-2.15-1.85c-1.22.31-1.32,0.21-1.57-1.08a2.21,2.21,0,0,0-2.32-1.89c-0.32,0-.65,0-1,0a1.46,1.46,0,0,1-1.57-1.23,1.17,1.17,0,0,0-.82-0.88,3.85,3.85,0,0,0-1.5-.13,4.19,4.19,0,0,1-2.85-.57,3.89,3.89,0,0,0-2.61-.59,7.74,7.74,0,0,0-3.24,1.18,4.48,4.48,0,0,1-.93.48,0.87,0.87,0,0,1-1.28-.76,4.62,4.62,0,0,0-.15-0.57,1.36,1.36,0,0,0-1.71-1,14.11,14.11,0,0,0-6.07,2.61,6.68,6.68,0,0,0-2.83,5.5,2.25,2.25,0,0,1-.57,1.42,6.22,6.22,0,0,0-1,6.5,5.77,5.77,0,0,1,.31,1.6,9.91,9.91,0,0,1-.38,2.65,2.42,2.42,0,0,0,.92,2.73,5,5,0,0,1,2.12,3A2.46,2.46,0,0,0,612.64,2356.59Zm45.4-8.8a0.37,0.37,0,0,1,0,.08l-0.18.11a6.43,6.43,0,0,1-4.6.58,2.38,2.38,0,0,0-2.71,1,4.82,4.82,0,0,0-.76,1.72c-0.46,1.89-.71,3.82-1,5.74a34.39,34.39,0,0,0-.53,4.63,4.24,4.24,0,0,0,2.33,4.07,1.77,1.77,0,0,1,1,1.52c0.1,1.65.17,3.3,0.26,5a40.16,40.16,0,0,0,.87,5.61,1.76,1.76,0,0,0,.49-1.33,7,7,0,0,0-.31-1.56,4.15,4.15,0,0,1,.6-3.45,12.62,12.62,0,0,1,1.59-1.95,3.89,3.89,0,0,1,3.85-1.09,3.81,3.81,0,0,1,2.1,5.9,4.27,4.27,0,0,0-.66,2.78,13.71,13.71,0,0,0,.9,4,1.51,1.51,0,0,0,.28.6,28,28,0,0,0,3.17-3.94,37.39,37.39,0,0,0,2.53-4.92,7.83,7.83,0,0,1,2.24-3.06,2.5,2.5,0,0,0,1.08-2.06c0-.28,0-0.37-0.32-0.33-0.66.1-1.33,0.19-2,.26-0.12,0-.27.1-0.36-0.1s0.1-.23.19-0.3a3.46,3.46,0,0,1,1.24-.58,0.81,0.81,0,0,0,.68-1c0-.7,0-1.4,0-2.1q-0.09-5.32-.17-10.64c0-2.42-.09-4.85-0.11-7.27a0.52,0.52,0,0,0-.51-0.6c-2.46-.53-4.91-1.08-7.36-1.63l-4.95-1.11c-0.1,0-.23-0.1-0.31,0s0.07,0.21.15,0.3a4.07,4.07,0,0,1,.65.62,3.93,3.93,0,0,1-1.61-.09,2,2,0,0,0-2.11.46,6.3,6.3,0,0,0-1.43,2.26,1,1,0,0,0,.14,1.07,1.05,1.05,0,0,0,.91-0.26c0.08-.05.15-0.12,0.23-0.18a3.54,3.54,0,0,1,2.25-.68,2.45,2.45,0,0,1,1.83.81l-2.94.36c-0.15,0-.3,0-0.3.24s0.13,0.25.32,0.26Zm-61.81,65.68a1.32,1.32,0,0,0,.79,1.22l3.12,1.8a60.78,60.78,0,0,0,6.45,3.38c0.28,0.12.38,0.07,0.48-.2,0.21-.61.44-1.21,0.65-1.81a101.69,101.69,0,0,0,5.27-20.51c0.06-.46-0.07-0.5-0.45-0.52-1.73-.09-3.47-0.19-5.2-0.32-2.08-.15-4.15-0.37-6.22-0.69-0.28,0-.31.06-0.25,0.29a2.87,2.87,0,0,1,0,1.21c-0.27,1.63-.59,3.24-1,4.84a70.16,70.16,0,0,1-3.54,10.74A1.54,1.54,0,0,0,596.23,2413.47Zm52.56-47.63-0.37-.49a5.67,5.67,0,0,1-1.2-3,32.55,32.55,0,0,1,.47-7.61,19.79,19.79,0,0,1,2.58-7c0.05-.09.17-0.18,0.07-0.29s-0.21,0-.29.06c-0.7.4-1.39,0.82-2.09,1.22a3.76,3.76,0,0,1-.89.46c0-.35.06-0.67,0.09-1s0.08-.67.12-1a0.57,0.57,0,0,0-.3-0.76l-0.31.65a1.38,1.38,0,0,1-1.61.91,16.09,16.09,0,0,0-2-.17,0.27,0.27,0,0,1-.31-0.33,5.48,5.48,0,0,0-.1-1.16,1.12,1.12,0,0,0-.6,1.72,2.63,2.63,0,0,1-.36,2.83,4.32,4.32,0,0,0-.51.82,1.77,1.77,0,0,0,.3,2.16,1.56,1.56,0,0,1,.37,1.52,9,9,0,0,1-1.2,2.52,2.67,2.67,0,0,0-.51,1.09,2.44,2.44,0,0,1-2,2.22,8.13,8.13,0,0,0-2.81,1.25,2.68,2.68,0,0,1-3.71-.4,6,6,0,0,1-.53-0.6c-0.4-.53-0.8-1.07-1.21-1.63-0.47.7-.93,1.35-1.37,2a6.63,6.63,0,0,0-.88,1.89,13.76,13.76,0,0,0-.14,4.72,0.57,0.57,0,0,0,.72.57,0.83,0.83,0,0,1,.7.27,4,4,0,0,0,3.32,1,10.9,10.9,0,0,0,2.54-.68c1-.36,1.92-0.82,2.93-1.09a0.88,0.88,0,0,1,1.28.82c0.07,0.44.12,0.89,0.17,1.33,0.09,0.72.17,1.44,0.26,2.25A24.52,24.52,0,0,1,648.79,2365.84ZM638.59,2402a47.08,47.08,0,0,1,4.35-2.21,58,58,0,0,1,7.95-2.93,1.32,1.32,0,0,0,1.08-1.06,4.91,4.91,0,0,1,.18-0.63,23.34,23.34,0,0,0,1.06-4.15,3.14,3.14,0,0,0-.54-2.25,11.9,11.9,0,0,1-1.08-1.69c-0.35-.78-0.63-1.59-0.92-2.39-0.43-1.17-.83-2.34-1.26-3.5s-0.87-2.25-1.29-3.38c-0.25-.66-0.48-1.32-0.69-2a0.93,0.93,0,0,1,.56-1.17,5,5,0,0,1,1.18-.22c0.09,0,.21,0,0.24-0.11a0.23,0.23,0,0,0-.13-0.2,9.29,9.29,0,0,0-1.44-1.44,1.41,1.41,0,0,1-.18-2.22,7.83,7.83,0,0,0,1.45-2.15c0.07-.2.41-0.41,0.12-0.62s-0.41.13-.57,0.27a15.41,15.41,0,0,0-4,5.22,7.38,7.38,0,0,1-1.23,2,5.29,5.29,0,0,0-1.28,3c-0.08.65-.18,1.3-0.23,2s-0.1,1.17-.17,1.75c-0.14,1.16-.3,2.33-0.46,3.49s-0.28,2.1-.41,3.15q-0.15,1.25-.27,2.5c-0.08.85-.1,1.71-0.22,2.55-0.08.56-.08,1.12-0.18,1.67-0.16.83-.25,1.68-0.43,2.51a22.28,22.28,0,0,1-.81,3C638.89,2401.16,638.76,2401.53,638.59,2402Zm38.57-53.49a4.55,4.55,0,0,0,.08-2.73,34.67,34.67,0,0,1-1-3.45,2.89,2.89,0,0,0-1.58-2,6.49,6.49,0,0,0-1.41-.53,14.25,14.25,0,0,1-3.22-1.05,25.58,25.58,0,0,0-3.42-1.48,55.1,55.1,0,0,0-8.2-2.09,12.13,12.13,0,0,0-4-.21,13.66,13.66,0,0,0-7.74,3.88,37.27,37.27,0,0,0-4.63,5.7,0.31,0.31,0,0,0-.13.3l2.31,0.41a1.05,1.05,0,0,0,.77-0.1,1.08,1.08,0,0,1,1.69.18c0.09,0.09.16,0.27,0.34,0.17a5.11,5.11,0,0,1,1.06-.22c0.3-.09.37,0,0.37,0.33a6.28,6.28,0,0,1-.26,2c0.55-.37,1.06-0.78,1.58-1.15a4,4,0,0,0,1.35-1.62,5.2,5.2,0,0,1,2.56-2.5,9.25,9.25,0,0,1,6.6-.44c1.84,0.49,3.65,1.06,5.48,1.56a37.36,37.36,0,0,0,5.68,1.1,41.3,41.3,0,0,0,5,.13,0.3,0.3,0,0,1,.38.22c0.06,0.23-.1.25-0.24,0.31-0.34.15-.68,0.32-1,0.47-0.16.07-.23,0.12-0.11,0.29Zm-78.69,38.92c0-.12,0-0.22.05-0.33a0.76,0.76,0,0,0-.75-1,2,2,0,0,0-.5,0,9,9,0,0,0-2.65.62,1.41,1.41,0,0,1-1.76-.43,1.63,1.63,0,0,0-1.73-.56,5.66,5.66,0,0,0-4.11,3,2.14,2.14,0,0,0,.34,2.57,3.62,3.62,0,0,0,2.06,1c1.06,0.2,2.12.38,3.18,0.55l6.46,1.06a2.22,2.22,0,0,1,1.79.85,0.44,0.44,0,0,0,.37.16l3.51,0.33,4.22,0.38c1.21,0.1,2.43.21,3.64,0.28a0.84,0.84,0,0,0,1-.72c0.12-.4.19-0.81,0.33-1.21a0.77,0.77,0,0,1,1.19-.48,0.83,0.83,0,0,1,.36,1.3c-0.2.32-.46,0.62-0.71,0.94a15.65,15.65,0,0,0,2.55.25,2,2,0,0,0,1.84-1c0.82-1.7.87-4.51-1.95-5.38a0.77,0.77,0,0,0-1.06.29,3.49,3.49,0,0,1-.64.72,1.42,1.42,0,0,1-.89.46,1.31,1.31,0,0,1-.59-1,1.94,1.94,0,0,0-1.93-1.66c-1.94-.28-3.87-0.6-5.8-0.9l-6-.91a1.05,1.05,0,0,0-1.08.41A0.84,0.84,0,0,1,598.46,2387.45Zm-9.37-2.47,0,0.09,0.58-.05a22.56,22.56,0,0,1,7.61.23,2.23,2.23,0,0,0,2.48-1,5.13,5.13,0,0,0,.74-1.64q1-3.73,1.93-7.47c0.28-1.08.55-2.17,0.85-3.24a0.61,0.61,0,0,1,.81-0.47,0.64,0.64,0,0,1,.42.81c-0.08.5-.16,1-0.24,1.49q-0.81,5.35-1.61,10.7a1.14,1.14,0,0,0,.92,1.49c0.17,0.06.35,0.1,0.53,0.14l6.52,1.41,2.12,0.43c0-.35,0-0.64,0-0.93a5,5,0,0,0-3.63-4.72,3.07,3.07,0,0,1-.59-0.22,0.47,0.47,0,0,1-.22-0.76,2.37,2.37,0,0,1,.77-0.76l3.15-2.25a0.74,0.74,0,0,0-.48-0.1l-2.77-.1a3.11,3.11,0,0,1-1.62-.34c-0.2-.13-0.2-0.21-0.08-0.38a3,3,0,0,1,.91-0.86,25.77,25.77,0,0,0,4.87-4.24,18.12,18.12,0,0,0,1.54-1.91,3.25,3.25,0,0,0-.37-0.08c-0.66-.06-1.31-0.1-2-0.17a16.53,16.53,0,0,1-6.34-1.91,4.48,4.48,0,0,0-2.67-.53,1.81,1.81,0,0,0-1.54,1.08,2.81,2.81,0,0,0-.24,1.27,9.63,9.63,0,0,1-.12,1.92,11.19,11.19,0,0,1-3.15,5.82,44.61,44.61,0,0,1-5.07,4.14C591.76,2382.9,590.43,2383.94,589.09,2385Zm47.17-5.37c0.12-.24.2-0.39,0.27-0.55a22.94,22.94,0,0,1,1.4-2.9,5.08,5.08,0,0,0,.1-5.23,1,1,0,0,0-1-.62l-1.42.17c-2,.27-3.93.55-5.9,0.81-0.28,0-.3.13-0.26,0.37a11.45,11.45,0,0,0,1.26,3.45c0.88,1.58,1.79,3.13,2.69,4.69a2.75,2.75,0,0,1,.27.57c0.19,0.64.06,0.82-.59,0.82l-0.33,0a5.06,5.06,0,0,0-3.18.73,4.7,4.7,0,0,0,.84.47c1,0.42,1,.52.34,1.36L625,2390.8a2,2,0,0,1-.33.33,0.74,0.74,0,0,1-.9,0,0.6,0.6,0,0,1-.22-0.78,5.08,5.08,0,0,0,.2-0.94c0.21-1.93.42-3.87,0.65-5.8,0-.36,0-0.46-0.39-0.39a14.85,14.85,0,0,1-5,0,15.31,15.31,0,0,1-3.3-1c-0.06.74-.14,1.45-0.17,2.16a15.58,15.58,0,0,0,0,2.81,2.17,2.17,0,0,0,2.22,2.08c0.32,0,.64,0,1,0a1.86,1.86,0,0,1,1.76,1.15,2.1,2.1,0,0,0,1.22,1.19,5.73,5.73,0,0,0,6.26-1.48l1-1.21a1.88,1.88,0,0,1,2.83-.37,1,1,0,0,0,1.64-.38c0.09-.17.17-0.35,0.25-0.53,0.43-1,.8-2,1.13-3a12.88,12.88,0,0,0,.73-5.33,20.6,20.6,0,0,1,.07-5.23,2.57,2.57,0,0,1,.34-1.36c0.1-.12.14-0.28,0.35-0.23s0.16,0.24.14,0.37c-0.12,1-.27,2.05-0.37,3.08A11.88,11.88,0,0,0,636.26,2379.61ZM648.18,2411l-3.13,1.45c-1,.46-1.94,1-2.93,1.42a18.06,18.06,0,0,0-4.45,2.64,9.35,9.35,0,0,0-3.49,6.2,7.91,7.91,0,0,0,.11,1.63,0.94,0.94,0,0,0,1.08.57c1,0,2,0,2.94,0a59.78,59.78,0,0,0,6.89-.08,0.42,0.42,0,0,0,.46-0.41,11.33,11.33,0,0,1,.22-1.36c0.1-.72.25-1.42,0.39-2.13s0.3-1.41.44-2.12,0.26-1.39.4-2.09c0.2-1,.42-2,0.6-2.94S648,2412,648.18,2411Zm-29.92-45.38a14.78,14.78,0,0,1,.22,3.51,5,5,0,0,1-1.46,3.06c0-.57,0-1,0-1.52a0.28,0.28,0,0,0-.17-0.3,0.14,0.14,0,0,0-.21,0,2,2,0,0,0-.44.7,14.08,14.08,0,0,0-.26,2.76,0.71,0.71,0,0,0,.75.78,0.76,0.76,0,0,1,.6.33,10.42,10.42,0,0,1,1.15,1.75,2.11,2.11,0,0,1,.14,1.43,0.88,0.88,0,0,1-.78.6,0.53,0.53,0,0,1-.59-0.37c-0.23-.36-0.45-0.74-0.65-1.12-0.09-.17-0.16-0.15-0.32-0.08a1.11,1.11,0,0,0-.5,1.08c-0.24,1.77.15,3.08,2.23,3.67a11.55,11.55,0,0,0,5,.26,2.58,2.58,0,0,0,2.27-2.8,3.15,3.15,0,0,0-.64-1.61,0.8,0.8,0,0,1,.25-1.34l0.31-.22a2.14,2.14,0,0,0,.87-1.57,12.9,12.9,0,0,0-.08-3.31,1.86,1.86,0,0,1,.33-1.67,0.91,0.91,0,0,0,.23-0.81l-0.6-3.93a0.57,0.57,0,0,0-.28.28c-0.89,1.16-1.75,2.33-2.66,3.47a0.9,0.9,0,0,1-1.48.18,11.16,11.16,0,0,1-1.51-1.4Zm2.4,44a1.16,1.16,0,0,0-1.18.44,9.83,9.83,0,0,1-4.93,3.94l-0.31.13a0.22,0.22,0,0,0-.11.25c0,0.15.15,0.09,0.23,0.08l1.37-.2c0.66-.1.66-0.1,0.52,0.57a4.2,4.2,0,0,1-.12.57,0.51,0.51,0,0,0,.19.62,41.45,41.45,0,0,1,3,3,3.15,3.15,0,0,0,2.64,1.23,4.14,4.14,0,0,0,2.15-1,51.74,51.74,0,0,1,5.42-4.1c0.17-.1.15-0.18,0-0.32a13.45,13.45,0,0,1-1.23-1.85c-0.62-1-1-2.16-1.59-3.19a4.25,4.25,0,0,0-3.39-2.32c-1.17-.1-2.33-0.33-3.49-0.46-1.74-.19-2.74.37-3.33,1.81a1.36,1.36,0,0,0,0,1.18c0.11,0.23.19,0.34,0.43,0.08a7,7,0,0,1,2.26-1.71,3.74,3.74,0,0,1,3.58.12c0.27,0.16.25,0.26,0,.43A3.46,3.46,0,0,1,620.66,2409.61Zm27.25-42.27a0.4,0.4,0,0,0-.47,0c-0.53.29-1.06,0.57-1.57,0.89a18.23,18.23,0,0,0-4.39,3.87,25.67,25.67,0,0,0-2.93,4.47,37.72,37.72,0,0,0-2.26,5.32c-0.39,1.14-.75,2.28-1.07,3.45s-0.63,2.06-.85,3.12a1.07,1.07,0,0,0,.86,1.38,13.41,13.41,0,0,1,1.59.47,1.25,1.25,0,0,1,.79,1.08c0.09,0.68.13,1.36,0.16,2s0,0.82.81,0.61c1-.26,1-0.26,1.07-1.21,0-.06,0-0.11,0-0.17,0.16-1.18.33-2.35,0.46-3.53s0.2-2.4.37-3.58c0.21-1.45.33-2.92,0.45-4.38A20.66,20.66,0,0,1,642,2376a18.47,18.47,0,0,1,3.59-6C646.4,2369.12,647.15,2368.23,647.91,2367.34Zm5.2,13.22a8.74,8.74,0,0,0,.41,2.55c0.16,0.87.4,1.73,0.59,2.6a20.5,20.5,0,0,0,.66,2.74c0.13,0.35.26,0.38,0.53,0.14l0.17-.18c1.38-1.39,2.75-2.79,4.07-4.24a7.31,7.31,0,0,0,.8-0.88,1.87,1.87,0,0,0,0-1.65c-0.41-1.45-.87-2.88-1.32-4.32a1.7,1.7,0,0,0-1.09-1.26,8.38,8.38,0,0,0-1.44-.26,1.69,1.69,0,0,0-1.66.66,7.17,7.17,0,0,0-.61.94C653.67,2378.39,653,2379.34,653.11,2380.56Zm19.74-12a2.69,2.69,0,0,0,1.08-.38,0.5,0.5,0,0,0,.25-0.31,56.9,56.9,0,0,0,2.38-9.25,12.08,12.08,0,0,0,.17-3.1,7.15,7.15,0,0,0-1.77-3.74,6.46,6.46,0,0,1-1.79-3.54c0-.13-0.13-0.29.12-0.37s0.23,0.1.29,0.21c0.36,0.64.72,1.29,1.08,1.94l2.36,4.3c0.06,0.11.09,0.29,0.23,0.26s0.1-.23.1-0.36c0-.46,0-0.93,0-1.39a9.1,9.1,0,0,0-2.57-6.5,1.46,1.46,0,0,0-1.63-.47,2.69,2.69,0,0,0-1.46,3.85,8.69,8.69,0,0,0,1.17,1.48c0.48,0.5.93,1,1.44,1.5a3.39,3.39,0,0,1-3.09-2.58,2.31,2.31,0,0,0,0,2.46,3.62,3.62,0,0,0,1.7,1.38,4.7,4.7,0,0,1,2.24,6.6,4.82,4.82,0,0,1-3.51,2.41c-0.29.05-.38,0.13-0.26,0.46a7,7,0,0,1,.25,4.25c-0.12.46-.31,0.91-0.47,1.38l0.7-.22a0.4,0.4,0,0,0,.3-0.31,23.13,23.13,0,0,1,1.58-3.69c0.09-.17.09-0.53,0.41-0.42a0.67,0.67,0,0,1,.29.65,0.72,0.72,0,0,1-.08.28A17.05,17.05,0,0,1,672.85,2368.59Zm-45.1,3.67c-0.32,1.37-.62,2.69-0.93,4a56.4,56.4,0,0,0-1.32,7.76c-0.14,1.57-.31,3.15-0.47,4.72a0.24,0.24,0,0,0,.12.32c0.17,0.06.22-.08,0.29-0.18l1.87-2.48c0.56-.74,1.12-1.47,1.66-2.22a0.9,0.9,0,0,0-.09-1.41c-0.21-.22-0.46-0.41-0.66-0.64a1.19,1.19,0,0,1-.42-1,1,1,0,0,1,.84-0.53l0.17,0,2.32-.35c0.72-.12.89-0.44,0.56-1.08l-2.9-5.58A5.85,5.85,0,0,0,627.74,2372.26Zm27.75,17.4a0.79,0.79,0,0,0,.47-0.06l1.54-.79,6.95-3.71c0.91-.49,1-1,0.45-1.78l-0.22-.35a0.87,0.87,0,0,1,.2-1.26,2.64,2.64,0,0,1,1.89-.45,0.94,0.94,0,0,0,1-1c0-.36,0-0.73,0-1.09,0.09-1.5.19-3,.29-4.49,0-.11.07-0.28-0.1-0.32s-0.18.12-.26,0.22c-1.21,1.72-2.35,3.48-3.59,5.18a76,76,0,0,1-5.1,6.33C657.93,2387.35,656.74,2388.5,655.49,2389.66Zm-40.57-17.92-4.74,5.12a5,5,0,0,0,2.2.14,6.28,6.28,0,0,1,1.25-.13,0.6,0.6,0,0,1,.64.71,1.24,1.24,0,0,1-.66,1.09q-1.27.86-2.52,1.74c-0.68.48-.7,0.87-0.06,1.39a8.15,8.15,0,0,1,2.56,3.72,14.89,14.89,0,0,0,.76,2.39c0.06,0.1,0,.32.26,0.25s0.11-.21.11-0.32q0-2.37.09-4.75,0.06-4,.11-8C614.94,2374,614.93,2372.87,614.93,2371.73Zm40.38,1.7c-0.27.15-.5,0.29-0.74,0.4s-0.27.06-.24,0.23,0.2,0.12.31,0.15l3.28,0.62a1.73,1.73,0,0,0,2-1,3.36,3.36,0,0,0,.27-2.5,2.2,2.2,0,0,0-3.12-1.62,8.4,8.4,0,0,0-2.25,1.52,1.21,1.21,0,0,0,.12,1.92Zm-18.25,21.91a14,14,0,0,0-.18-2.31,3.13,3.13,0,0,0-1.91-2.52,0.74,0.74,0,0,0-1.13.48,7.47,7.47,0,0,0-.3,1.34,5.39,5.39,0,0,0,2.47,5.86c0.44,0.31.71,0.19,0.78-.33A23.77,23.77,0,0,0,637.05,2395.34Zm37.18-36.79c0-.29,0-0.59,0-0.88a2.57,2.57,0,0,0-2.44-2.67,0.73,0.73,0,0,0-1,.77,19.45,19.45,0,0,0,0,3.77c0,0.45.1,0.89,0.15,1.33a0.74,0.74,0,0,0,.64.76,2.43,2.43,0,0,0,2.45-1.47A4,4,0,0,0,674.23,2358.55Zm-44.14,37.06-0.12-.09a1.77,1.77,0,0,1-1-2,2.78,2.78,0,0,0-.71-2.57c-0.07.16-.13,0.28-0.18,0.41a1.71,1.71,0,0,1-1.8,1.31c-1.6,0-3.19-.12-4.78-0.14a1.86,1.86,0,0,0-.88.21,0.26,0.26,0,0,0-.17.39,1.08,1.08,0,0,0,1.35.88c1.2-.06,2.4-0.14,3.6-0.18a1.52,1.52,0,0,1,1.81,1.44c0,0.12,0,.25,0,0.38a0.62,0.62,0,0,0,.84.64A15,15,0,0,0,630.09,2395.62Zm9,0.48c-0.83-.48-1.26-0.3-1.44.56a8.78,8.78,0,0,0-.05,1.3,0.91,0.91,0,0,1-.65,1,2.33,2.33,0,0,1-2.42-.64c-0.22-.24-0.41-0.49-0.6-0.75a2.43,2.43,0,0,0-1.41-1c-0.59-.13-1.22-0.39-1.71.26a1,1,0,0,0,.77.28c1.31,0.06,1.72.65,1.31,1.89,0,0,0,0,0,0-0.1.31,0.07,0.57,0.38,0.48a1.87,1.87,0,0,1,1.85.61,1.38,1.38,0,0,0,.8.32,5.39,5.39,0,0,1,1.56.3,0.35,0.35,0,0,0,.53-0.23,7.38,7.38,0,0,0,.37-2.63A1.59,1.59,0,0,1,639.12,2396.1Zm11.06-20.41a1.66,1.66,0,0,0-.8.12,1.15,1.15,0,0,0-.23,1.53c0.71,1.47,1.41,2.95,2.11,4.43q0.43,0.91.86,1.83a0.29,0.29,0,0,0,.33.19c0.2,0,.16-0.15.17-0.27a2.38,2.38,0,0,0-.2-1.38,4,4,0,0,1-.45-1.42c-0.17-1.16-.24-2.33-0.37-3.5a4.77,4.77,0,0,0-.22-1.06A1,1,0,0,0,650.18,2375.69Zm-22,32.84a2.7,2.7,0,0,0,.21,1.12c0.38,1,.82,2.07,1.28,3.08,0.3,0.64.58,1.28,0.89,1.91a0.69,0.69,0,0,0,.74.42c0.3-.07.19-0.44,0.2-0.69a0.44,0.44,0,0,0,0-.16c-0.21-.6-0.4-1.2-0.65-1.78a28.39,28.39,0,0,1-1.66-5.55,0.21,0.21,0,0,0-.14-0.23,0.2,0.2,0,0,0-.19.13A3.87,3.87,0,0,0,628.22,2408.53Zm-6.49-46.68c0,0.5,0,1,0,1.51a0.63,0.63,0,0,0,.37.61,0.54,0.54,0,0,0,.62-0.23A1.14,1.14,0,0,0,623,2363c0.14-1.41.23-2.82,0.42-4.22a2.13,2.13,0,0,0-.55-1.75c-0.05-.06-0.09-0.22-0.21-0.1a1.62,1.62,0,0,0-.68,1C621.91,2359.25,621.81,2360.55,621.73,2361.85Zm2,1.6c0,0.1,0,.2,0,0.29s0.13,0.16.22,0.2a0.15,0.15,0,0,0,.23-0.07,5.27,5.27,0,0,0,.82-1.77c0.22-1.48.34-3,.5-4.46a1.31,1.31,0,0,0-.27-0.86c-0.06-.1-0.11-0.14-0.23-0.06a1.2,1.2,0,0,0-.62.79C624.1,2359.5,624,2361.48,623.75,2363.45Zm26.64,4.51a5.52,5.52,0,0,0-1.12,2.22,4.05,4.05,0,0,0,1.5,4.23,0.22,0.22,0,0,0,.25.11c0.12-.07,0-0.2,0-0.31-0.09-.85-0.22-1.69-0.28-2.54C650.68,2370.45,650.55,2369.24,650.39,2368Zm-22-12a1.12,1.12,0,0,0-.12-0.64,0.35,0.35,0,0,0-.36-0.24,1.78,1.78,0,0,0-1.33,1.34c-0.1,1.41-.35,2.8-0.5,4.2,0,0.21-.21.54,0,0.62s0.38-.25.51-0.46a1,1,0,0,0,.07-0.15c0.5-1.27,1-2.54,1.48-3.82A1.72,1.72,0,0,0,628.38,2356Zm5.2,48.49c0.2-1.14.4-2.25,0.59-3.36a0.64,0.64,0,0,0-.19-0.69,0.66,0.66,0,0,0-.71.05,2,2,0,0,0-1.25,2A2.27,2.27,0,0,0,633.58,2404.48Zm-1.72-5.46-0.19-.62c0-.07,0-0.14-0.13-0.11a1.05,1.05,0,0,0-.81.45c-0.24.5-.51,1-0.75,1.49a1.6,1.6,0,0,0-.27,1.35,2.82,2.82,0,0,0,.62,1.15c0.14,0.14.2,0.1,0.32,0a2.12,2.12,0,0,0,.5-1Zm-10.81-36c0-1.59,0-3.09,0-4.58a1.49,1.49,0,0,0-.44-1.08,0.15,0.15,0,0,0-.15-0.1,1,1,0,0,0-.7,1.05,10.18,10.18,0,0,1,.37,2.85A2.56,2.56,0,0,0,621.05,2363Zm13.66,40.64a1.27,1.27,0,0,0,.68,1.16,1,1,0,0,0,.9-0.64,9.12,9.12,0,0,0,.5-2.11,0.63,0.63,0,0,0-.28-0.66,0.65,0.65,0,0,0-.71.13A2.69,2.69,0,0,0,634.71,2403.65Zm-7.27-3.56c0,0.06,0,.11,0,0.17a0.84,0.84,0,0,0,.67.71,0.61,0.61,0,0,0,.63-0.54c0.34-1.09.69-2.18,1-3.27a0.3,0.3,0,0,0-.18-0.42c-0.24-.13-0.29,0-0.37.17l-1.59,2.47A1.16,1.16,0,0,0,627.44,2400.09Zm2.43-8.78c0,0.07,0,.14,0,0.21,0,0.31.06,0.45,0.42,0.4,0.51-.07,1-0.09,1.54-0.12a0.32,0.32,0,0,0,.35-0.31,1.94,1.94,0,0,0-.77-1.83,0.85,0.85,0,0,0-1.3.42A3.64,3.64,0,0,0,629.87,2391.31Zm-11-31.51a3.55,3.55,0,0,0-.38-3.1,1.26,1.26,0,0,0-1.29-.52c-0.08,0-.14,0-0.14.11a1.39,1.39,0,0,0,0,.74C617.59,2358,618.2,2358.85,618.83,2359.79Zm35.59,31.88-0.25.19a3.36,3.36,0,0,0-1.21,2.86,0.22,0.22,0,1,0,.39.2c0.48-.29.84-0.71,1.29-1s0.41-.32,0-0.69a1.09,1.09,0,0,1-.4-1A0.57,0.57,0,0,0,654.42,2391.67Zm-2.73-7.73c-0.34,0-.28.26-0.22,0.46a9.07,9.07,0,0,0,.31.94,31.77,31.77,0,0,0,1.62,3.32c0.12,0.23.22,0.11,0.35,0s0.21-.09.12-0.29c-0.66-1.42-1.3-2.86-1.94-4.29A0.23,0.23,0,0,0,651.69,2383.94Zm-51.37.73a0.88,0.88,0,0,0,.72.84,1.14,1.14,0,0,0,1-1.19,1.19,1.19,0,0,0-.82-0.8A1.1,1.1,0,0,0,600.32,2384.67Zm1.36-2.16c1-.87.8-1.92,0.72-3A4.24,4.24,0,0,0,601.67,2382.52Z" transform="translate(-536.62 -2291.35)"/><path class="d" d="M638.65,2439c-0.2-.84-0.34-1.69-0.48-2.53s-0.28-1.7-.4-2.56-0.17-1.44-.26-2.16-0.16-1.67-.21-2.51,0-1.68,0-2.52c0-.26,0-0.36.34-0.37a32.45,32.45,0,0,0,4.18-.35,19.45,19.45,0,0,0,4.07-1,0.77,0.77,0,0,0,.52-0.63c0.17-.86.41-1.7,0.61-2.55s0.37-1.65.56-2.47,0.36-1.6.55-2.4,0.4-1.7.63-2.54a5.54,5.54,0,0,1,.39-1.33c0.1,0.35.2,0.65,0.27,1,0.29,1.28.64,2.54,1,3.8a17.55,17.55,0,0,1,.66,2.78,1.8,1.8,0,0,0,1.4,1.53c1.53,0.58,3,1.22,4.58,1.78,0.94,0.35,1.92.61,2.88,0.92a29.56,29.56,0,0,0,2.89.77q1.67,0.36,3.37.58a21.88,21.88,0,0,0,2.68.17c0.25,0,.29.1,0.22,0.31-0.49,1.56-1,3.12-1.45,4.68s-0.92,3.13-1.39,4.69q-0.42,1.43-.86,2.86a1.12,1.12,0,0,1-.15.25l-10.29-.05a1.13,1.13,0,0,1-.5,0A0.41,0.41,0,0,0,654,2439h-3.49c-0.24,0-.35,0-0.35-0.32,0-4.27,0-8.55,0-12.82,0-.11,0-0.16-0.13-0.15a2.75,2.75,0,0,1-.38,0c-0.36-.05-0.45.1-0.45,0.45q0,6.33,0,12.66c0,0.19-.17.19-0.31,0.18s-0.58,0-.87,0a4.67,4.67,0,0,0-1.35.07Z" transform="translate(-536.62 -2291.35)"/><path class="e" d="M614.11,2417.72l-3.27,4.83a0.9,0.9,0,0,0-.23.52l2.77-2.64a8.18,8.18,0,0,1-.18,1.55c-0.43,2.88-.86,5.76-1.13,8.65-0.18,1.87-.3,3.74-0.44,5.61-0.06.85-.12,1.7-0.17,2.56l-9.53,0a1.47,1.47,0,0,0-.12-0.86,0.25,0.25,0,0,1,0-.24,2.44,2.44,0,0,0,.14-1.36c0-1.88-.1-3.75-0.15-5.63q-0.16-5.59-.33-11.18a8.65,8.65,0,0,0-.17-1.06,23.71,23.71,0,0,0,3.05,1.55,5.49,5.49,0,0,0,2.54.38,0.45,0.45,0,0,0,.38-0.32,53,53,0,0,0,3.62-7.91,42.49,42.49,0,0,0,2.28-9.6,24.58,24.58,0,0,1,.74-3.74,2.78,2.78,0,0,1,3.71-2.22,6.18,6.18,0,0,0,1.28.22,1.42,1.42,0,0,0,1.65-1.36,0.49,0.49,0,0,1,.63-0.51c1.33,0,2.66,0,4,0a1.07,1.07,0,0,1,1.2,1,8.15,8.15,0,0,1,.23,2.21,5.44,5.44,0,0,0,2.85,5.28c0.71,0.44,1.44.84,2.25,1.31-1.6.18-3.17,0.22-4.18,1.61a0.22,0.22,0,0,1-.16-0.23c-0.05-.19-0.14-0.19-0.3-0.1-0.44.25-.88,0.49-1.32,0.73l-0.06-.07a8.1,8.1,0,0,0,.2-2.5,5.06,5.06,0,0,0-1-2.32c-0.25,1.48-.5,2.86-0.72,4.25a0.31,0.31,0,0,1-.4.33c-0.67-.06-1.34-0.12-2-0.16a0.28,0.28,0,0,1-.3-0.26c-0.15-.7-0.33-1.39-0.49-2.08a0.27,0.27,0,0,0-.19-0.29c-0.15,0-.15.14-0.22,0.22l0,0a2.42,2.42,0,0,1-.71,1.19,7.37,7.37,0,0,1-2,.06c-0.22,0-.21-0.19-0.25-0.33l-1.69-5.14a1,1,0,0,0-.44,1.18,31.72,31.72,0,0,0,1,3.32,4.7,4.7,0,0,1,.38,1.79,1.49,1.49,0,0,1-.22.75,0.87,0.87,0,0,1-.63.51c-0.2,0-.2-0.35-0.28-0.55a4.74,4.74,0,0,0-.81-1.46,1.06,1.06,0,0,0-1.4-.24c-0.2.1-.24,0.17-0.07,0.36,0.45,0.5.9,1,1.32,1.52a1.37,1.37,0,0,1,.15,1.9,2.18,2.18,0,0,0,0,1.87,3.07,3.07,0,0,0,.38.79c0.25,0.36.08,0.42-.25,0.45a3.76,3.76,0,0,0-1.33.36,1.92,1.92,0,0,0-.25,3.36c0.28,0.19.57,0.35,0.9,0.55l-1.75,1-2.4,1.38c-0.1.06-.29,0.08-0.22,0.25s0.21,0.05.33,0a12,12,0,0,0,3.74-1.16Zm-0.2-7c0.12,0,.32.08,0.39-0.08a0.45,0.45,0,0,0-.21-0.34q-0.44-.58-0.91-1.15c-0.06-.07-0.09-0.2-0.25-0.15a0.61,0.61,0,0,0-.44.78A1.4,1.4,0,0,0,613.91,2410.71Z" transform="translate(-536.62 -2291.35)"/><path class="e" d="M625.1,2438.89a4.85,4.85,0,0,0,.14-1.43,67.13,67.13,0,0,0-.07-7.31,75,75,0,0,0-.94-7.66c-0.05-.29,0-0.28.24-0.23l1.55,0.36c-0.44-.81-0.82-1.54-1.22-2.25a0.36,0.36,0,0,1,.14-0.6,20.71,20.71,0,0,0,4.82-4.28c0.18-.22.26-0.19,0.44,0a2.84,2.84,0,0,0,2.79.71,0.23,0.23,0,0,1,.35.19,13.32,13.32,0,0,1-.45,9.54,1.1,1.1,0,0,1-.32.44,2.15,2.15,0,0,0-.82,1.66c-0.14,2.12-.39,4.24-0.34,6.38,0,1.54.22,3.07,0.34,4.61H625.7a0.87,0.87,0,0,0-.52.07C625,2439.14,625.12,2438.94,625.1,2438.89Z" transform="translate(-536.62 -2291.35)"/><path class="f" d="M650.08,2425.69c0.11,0,.14,0,0.13.15-0.08,4.27,0,8.55,0,12.82,0,0.28.11,0.32,0.35,0.32H654a0.41,0.41,0,0,1,.43.09l-7.71,0a4.67,4.67,0,0,1,1.35-.07c0.29,0,.58,0,0.87,0s0.28,0,.31-0.18c0.69,0.27.83,0.17,0.83-.55q0-4.3,0-8.6C650.09,2428.32,650.08,2427,650.08,2425.69Z" transform="translate(-536.62 -2291.35)"/><path class="e" d="M611.62,2438.83l0.09,0C611.7,2438.88,611.67,2438.9,611.62,2438.83Z" transform="translate(-536.62 -2291.35)"/><path class="d" d="M651.49,2408.75a14,14,0,0,0-1.91.86l-6.13,3-5.63,2.76a14.54,14.54,0,0,1-2,.87,2.2,2.2,0,0,1-2.2-.74A16.64,16.64,0,0,1,631,2411a5.15,5.15,0,0,1-.09-3.8,3,3,0,0,1,1.88-1.67,3.65,3.65,0,0,1,2.1,0,2.52,2.52,0,0,0,2.38-.69,27.22,27.22,0,0,1,6.49-4.43,26.65,26.65,0,0,1,6.54-2.05,5.74,5.74,0,0,0,2.58-1,15.34,15.34,0,0,0,1.59-1.54,25.24,25.24,0,0,1,7.25-5,34.5,34.5,0,0,1,4-1.46,11.62,11.62,0,0,0,1.11-.35,13.18,13.18,0,0,0-1.64,0,16,16,0,0,0-4,.95,15.25,15.25,0,0,0-4.45,2.75c-0.29.26-.43,0.29-0.58-0.1-0.08-.2-0.21-0.38-0.3-0.57a0.84,0.84,0,0,0-1.06-.59c0.58-.43,1.1-0.82,1.62-1.2a24.62,24.62,0,0,1,3.74-1.93c2.17-1,4.38-2,6.55-3a0.37,0.37,0,0,0,.22-0.52c-0.15-.54-0.33-1.08-0.5-1.62a0.6,0.6,0,0,1,.56-0.91c0.49-.08,1-0.2,1.47-0.29a0.33,0.33,0,0,0,.29-0.37c0.07-1.1.15-2.21,0.22-3.31s0.14-2.49.26-3.73a19.39,19.39,0,0,1,.27-3,5.75,5.75,0,0,1,1.94,1.76,8.46,8.46,0,0,1,1.52,3.1,10.54,10.54,0,0,1,.28,3.16,13.1,13.1,0,0,1-.57,3.28,18.09,18.09,0,0,1-1.43,3.28c-0.69,1.26-1.52,2.41-2.29,3.61,0,0.07-.2.14-0.1,0.23a0.22,0.22,0,0,0,.32-0.07c0.42-.45.89-0.86,1.28-1.34a15.63,15.63,0,0,0,2.48-3.94,16.37,16.37,0,0,0,.78-2.4,16.06,16.06,0,0,0,.32-3.83,15.39,15.39,0,0,0-.27-2.15c-0.12-.86-0.37-1.68-0.57-2.51a0.74,0.74,0,0,1-.14-0.56,4.8,4.8,0,0,1,2.15,3.44,46.6,46.6,0,0,1,.21,9.72c-0.06,1.12-.12,2.24-0.23,3.35s-0.25,2.27-.43,3.41c-0.13.84-.28,1.68-0.4,2.52-0.08.59-.24,1.18-0.31,1.77a5.22,5.22,0,0,0,.68,2.87,13,13,0,0,1,.64,2.23c0.22,0.79.39,1.58,0.58,2.38s0.41,1.58.6,2.37,0.4,1.69.63,2.53,0.35,1.42.54,2.13c0.29,1.11.61,2.2,1,3.28a23.42,23.42,0,0,0,1.51,3.39,15.38,15.38,0,0,0,2.7,3.58,1.43,1.43,0,0,1,.53,1.62,1.83,1.83,0,0,1-1.31,1.08,19.58,19.58,0,0,1-3.93.53,75.94,75.94,0,0,1-13.13-.16c-1.05-.12-2.12-0.2-3.16-0.39a8.5,8.5,0,0,1-2.11-.84c-2.81-1.36-5.55-2.86-8.31-4.32a0.24,0.24,0,0,1-.2-0.21,29.24,29.24,0,0,0-1-4.64,8,8,0,0,1,0-3.82,5.55,5.55,0,0,1,.89-1.8Zm1.74-.93a1.57,1.57,0,0,0,.65,0c0.84-.28,1.7-0.5,2.54-0.77a34.61,34.61,0,0,0,3.72-1.44,35.38,35.38,0,0,0,4.25-2.3c1-.62,1.94-1.3,2.88-2a0.21,0.21,0,0,0,.12-0.27c-0.07-.16-0.19,0-0.28,0l-4.46,2.2-5.08,2.45Zm-16.5,6.58a1,1,0,0,0-.61-0.57,0.79,0.79,0,0,0-1.08.07,0.91,0.91,0,0,0-.07,1.18,1.1,1.1,0,0,0,1.12.46,4.87,4.87,0,0,1,1.66-.88,1,1,0,0,0,.49-1.51,0.74,0.74,0,0,0-.71-0.41,0.71,0.71,0,0,0-.58.51A3.77,3.77,0,0,0,636.73,2414.4Zm2.86-.81a1,1,0,0,0,.85-1.13,1.82,1.82,0,0,0-.29-0.64,1,1,0,0,0-1-.27,0.64,0.64,0,0,0-.42.65,2.64,2.64,0,0,0,.24,1A0.65,0.65,0,0,0,639.59,2413.59Zm2-3.08a0.68,0.68,0,0,0-.69,1,5,5,0,0,0,.71,1.1c0.09,0.12.16,0.21,0.31,0,0.31-.36.65-0.69,1-1,0.05-.05.18-0.11,0.08-0.18A3.31,3.31,0,0,0,641.56,2410.51Z" transform="translate(-536.62 -2291.35)"/><path class="g" d="M612.64,2356.59a2.46,2.46,0,0,1-2.46-2.11,5,5,0,0,0-2.12-3,2.42,2.42,0,0,1-.92-2.73,9.91,9.91,0,0,0,.38-2.65,5.77,5.77,0,0,0-.31-1.6,6.22,6.22,0,0,1,1-6.5,2.25,2.25,0,0,0,.57-1.42,6.68,6.68,0,0,1,2.83-5.5,14.11,14.11,0,0,1,6.07-2.61,1.36,1.36,0,0,1,1.71,1,4.62,4.62,0,0,1,.15.57,0.87,0.87,0,0,0,1.28.76,4.48,4.48,0,0,0,.93-0.48,7.74,7.74,0,0,1,3.24-1.18,3.89,3.89,0,0,1,2.61.59,4.19,4.19,0,0,0,2.85.57,3.85,3.85,0,0,1,1.5.13,1.17,1.17,0,0,1,.82.88,1.46,1.46,0,0,0,1.57,1.23c0.32,0,.64,0,1,0a2.21,2.21,0,0,1,2.32,1.89c0.25,1.29.35,1.39,1.57,1.08a1.92,1.92,0,0,1,2.15,1.85,20,20,0,0,1-.13,2.6c-0.08,1.26-.22,2.51-0.29,3.77a2.32,2.32,0,0,1-1.55,2.31,1.15,1.15,0,0,0-.72,1.4c0,0.3.09,0.61,0.17,0.91a1.45,1.45,0,0,1-.27,1.31,0.31,0.31,0,0,0,.08.5,0.33,0.33,0,0,0,.49-0.16,2.29,2.29,0,0,0,.26-0.92,0.83,0.83,0,0,1,.45-0.87,1.06,1.06,0,0,1,1.14.35,0.92,0.92,0,0,1,.19,1.08,5,5,0,0,1-1.42,1.74,5.52,5.52,0,0,0-.81.66,0.9,0.9,0,0,0,.33,1.58c0.16,0.08.34,0.14,0.5,0.22a1.67,1.67,0,0,1,.91,1.74,1.61,1.61,0,0,1-1,1.42l-0.12,0a1.2,1.2,0,0,0-.78,1.62,1.16,1.16,0,0,1-1,1.67,19.64,19.64,0,0,1-2.17.22c-0.74.1-.94,0.29-0.86,1,0,0.34-.09.4-0.38,0.41a3.11,3.11,0,0,1-3-4.46,2,2,0,0,1,.29-0.41,5.49,5.49,0,0,0,1.2-4.08,29.83,29.83,0,0,1-.4-3.24,36.86,36.86,0,0,1,.48-3.83,32.87,32.87,0,0,0,.18-5.66,3,3,0,0,0-.6-1.59,2.55,2.55,0,0,1-.25-2.55c0.09-.23.15-0.48,0.23-0.72a1.56,1.56,0,0,0,.07-0.58,1.32,1.32,0,0,0-.69-1.13,1.13,1.13,0,0,0-1.09.5,21,21,0,0,1-4.69,4.42,11.83,11.83,0,0,1-6.71,2.12,8.91,8.91,0,0,1-2.85-.47,2.7,2.7,0,0,0-2.93.7,6.28,6.28,0,0,0-1.91,3.74,29.51,29.51,0,0,0-.44,5.44,13.28,13.28,0,0,0,1,5.32C612.39,2355.9,612.51,2356.25,612.64,2356.59Z" transform="translate(-536.62 -2291.35)"/><path class="h" d="M658,2347.79l-3.46-.28c-0.19,0-.31,0-0.32-0.26s0.15-.22.3-0.24l2.94-.36a2.45,2.45,0,0,0-1.83-.81,3.54,3.54,0,0,0-2.25.68c-0.08.06-.15,0.13-0.23,0.18a1.05,1.05,0,0,1-.91.26,1,1,0,0,1-.14-1.07,6.3,6.3,0,0,1,1.43-2.26,2,2,0,0,1,2.11-.46,3.93,3.93,0,0,0,1.61.09,4.07,4.07,0,0,0-.65-0.62c-0.08-.08-0.25-0.14-0.15-0.3s0.2,0,.31,0l4.95,1.11c2.45,0.55,4.91,1.1,7.36,1.63a0.52,0.52,0,0,1,.51.6c0,2.43.07,4.85,0.11,7.27q0.08,5.32.17,10.64c0,0.7,0,1.4,0,2.1a0.81,0.81,0,0,1-.68,1,3.46,3.46,0,0,0-1.24.58c-0.08.08-.29,0.08-0.19,0.3s0.24,0.11.36,0.1c0.67-.08,1.33-0.16,2-0.26,0.29,0,.33,0,0.32.33a2.5,2.5,0,0,1-1.08,2.06,7.83,7.83,0,0,0-2.24,3.06,37.39,37.39,0,0,1-2.53,4.92,28,28,0,0,1-3.17,3.94,1.51,1.51,0,0,1-.28-0.6,13.71,13.71,0,0,1-.9-4,4.27,4.27,0,0,1,.66-2.78,3.81,3.81,0,0,0-2.1-5.9,3.89,3.89,0,0,0-3.85,1.09,12.62,12.62,0,0,0-1.59,1.95,4.15,4.15,0,0,0-.6,3.45,7,7,0,0,1,.31,1.56,1.76,1.76,0,0,1-.49,1.33,40.16,40.16,0,0,1-.87-5.61c-0.09-1.65-.16-3.3-0.26-5a1.77,1.77,0,0,0-1-1.52,4.24,4.24,0,0,1-2.33-4.07,34.39,34.39,0,0,1,.53-4.63c0.3-1.92.55-3.85,1-5.74a4.82,4.82,0,0,1,.76-1.72,2.38,2.38,0,0,1,2.71-1,6.43,6.43,0,0,0,4.6-.58l0.18-.11A0.37,0.37,0,0,0,658,2347.79Zm-2.44,12.69a0.61,0.61,0,0,1,.3.26,9.49,9.49,0,0,0,7.83,3.34,4.26,4.26,0,0,1,.5,0,0.62,0.62,0,0,1,.68.71,4.26,4.26,0,0,1-.15,1,1,1,0,0,0,0,.66,0.53,0.53,0,0,0,.45.33,0.36,0.36,0,0,0,.36-0.29,1.37,1.37,0,0,0,.16-0.69,3.91,3.91,0,0,1,1.9-3.56,2.34,2.34,0,0,0,1-1.24,1.84,1.84,0,0,0-.45-1.74,1.26,1.26,0,0,0-1.35,0,12.25,12.25,0,0,1-8.76.62c-2-.57-3.88-1.33-5.88-1.83a4.68,4.68,0,0,0-2.12-.05,0.71,0.71,0,0,0-.57.92,0.6,0.6,0,0,0,.74.5,26.11,26.11,0,0,1,3.19.19c0.81,0.09,1,.39.72,1.15-0.19.5-.38,1-0.55,1.49a22.66,22.66,0,0,0-1,3.37,1.25,1.25,0,0,0,.94,1.59,5.9,5.9,0,0,0,1,.22c2.29,0.36,4.58.72,6.88,1.06a8.27,8.27,0,0,0,1.83.2,0.86,0.86,0,0,0,.74-0.68,0.58,0.58,0,0,0-.67-0.34,18.88,18.88,0,0,1-4-.33c-1.54-.21-3.08-0.42-4.61-0.67a1.12,1.12,0,0,1-1-1.69C654.19,2363.46,654.93,2362,655.6,2360.49Zm5.41-2.86,0.34,0.27a1.63,1.63,0,0,0,2,0,1.57,1.57,0,0,0,.62-1.85,9.43,9.43,0,0,0-.62-1.42,22.89,22.89,0,0,1-1.33-2.94c-0.17-.56,0-0.8.62-0.74a4.24,4.24,0,0,1,.57.12,7.33,7.33,0,0,0,3.57,0,1.62,1.62,0,0,0,1-.83,1.69,1.69,0,0,0-1.11-.05,6,6,0,0,1-2.25.17,4.26,4.26,0,0,1-1.62-.44c1.81-.8,3.7-0.53,5.6-0.57a2.15,2.15,0,0,0-2.1-1.22,7.7,7.7,0,0,0-1.07.19,10.08,10.08,0,0,1-2.14.38,0.54,0.54,0,0,1-.61-0.59,4.67,4.67,0,0,1,.06-1,1,1,0,0,0-.46-0.82,0.67,0.67,0,0,0-.54.56c-0.1.45-.25,0.89-0.36,1.33a8.36,8.36,0,0,0,1.43,7.54c0.47,0.59.36,1-.33,1.33C661.92,2357.26,661.49,2357.42,661,2357.63Zm-1.29-13a1.17,1.17,0,0,0-.63.71c-0.14.84-.26,1.69-0.35,2.53a4,4,0,0,1-1,2.55,2,2,0,0,0-.46.78,5.74,5.74,0,0,1-1.16,2.11,3.26,3.26,0,0,0-.76,1.34,2,2,0,0,0,.12,1.62,0.57,0.57,0,0,0,.55.31,0.4,0.4,0,0,0,.37-0.38,2.55,2.55,0,0,0,.12-0.53,5,5,0,0,1,.72-2.12c0.49-.8.95-1.62,1.41-2.43a7.6,7.6,0,0,0,1-2.22,24,24,0,0,0,.43-2.65A2,2,0,0,0,659.72,2344.66Zm6.61,24.5a1.4,1.4,0,0,0,1.64.64,2.79,2.79,0,0,0,1.74-1.89C668.71,2368.69,667.4,2368.55,666.34,2369.16Z" transform="translate(-536.62 -2291.35)"/><path class="e" d="M596.23,2413.47a1.54,1.54,0,0,1,.16-0.57,70.16,70.16,0,0,0,3.54-10.74c0.4-1.6.72-3.22,1-4.84a2.87,2.87,0,0,0,0-1.21c-0.06-.23,0-0.33.25-0.29,2.06,0.31,4.14.54,6.22,0.69,1.73,0.12,3.47.23,5.2,0.32,0.38,0,.51.06,0.45,0.52a101.69,101.69,0,0,1-5.27,20.51c-0.21.61-.45,1.2-0.65,1.81-0.09.27-.2,0.32-0.48,0.2a60.78,60.78,0,0,1-6.45-3.38l-3.12-1.8A1.32,1.32,0,0,1,596.23,2413.47Z" transform="translate(-536.62 -2291.35)"/><path class="d" d="M638.59,2402c0.18-.49.3-0.86,0.44-1.23a22.28,22.28,0,0,0,.81-3c0.18-.83.27-1.68,0.43-2.51,0.11-.55.1-1.11,0.18-1.67,0.12-.84.14-1.7,0.22-2.55s0.16-1.67.27-2.5c0.13-1.05.27-2.1,0.41-3.15s0.31-2.32.46-3.49c0.07-.58.13-1.17,0.17-1.75s0.15-1.31.23-2a5.29,5.29,0,0,1,1.28-3,7.38,7.38,0,0,0,1.23-2,15.41,15.41,0,0,1,4-5.22c0.16-.14.34-0.43,0.57-0.27s0,0.42-.12.62a7.83,7.83,0,0,1-1.45,2.15,1.41,1.41,0,0,0,.18,2.22,9.29,9.29,0,0,1,1.44,1.44,0.23,0.23,0,0,1,.13.2c0,0.13-.15.09-0.24,0.11a5,5,0,0,0-1.18.22,0.93,0.93,0,0,0-.56,1.17c0.21,0.67.44,1.33,0.69,2,0.42,1.13.87,2.25,1.29,3.38s0.84,2.34,1.26,3.5c0.29,0.8.57,1.61,0.92,2.39a11.9,11.9,0,0,0,1.08,1.69,3.14,3.14,0,0,1,.54,2.25,23.34,23.34,0,0,1-1.06,4.15,4.91,4.91,0,0,0-.18.63,1.32,1.32,0,0,1-1.08,1.06,58,58,0,0,0-7.95,2.93A47.08,47.08,0,0,0,638.59,2402Z" transform="translate(-536.62 -2291.35)"/><path class="i" d="M627.94,2360.87c0.49-1.45,1-2.9,1.48-4.35a15.11,15.11,0,0,0,.5-1.59,1.84,1.84,0,0,0,0-.71c-0.18-1-.61-1.42-1.57-0.93s-2.16,1.18-3.24,1.75a7.38,7.38,0,0,1-3.69.95,6.15,6.15,0,0,1-5.25-2.73,1.6,1.6,0,0,0-.76-0.63,1,1,0,0,0-1.09.22,0.79,0.79,0,0,0,0,.94c0.79,1.68,1.63,3.33,2.57,4.94,0.84,1.45,1.77,2.85,2.75,4.22a7,7,0,0,0,2.42,2.16,0.56,0.56,0,0,1,.35.62c0,0.26,0,.53,0,0.91,0.48-.54.92-1,1.32-1.48,0.2-.24.31-0.14,0.46,0a0.2,0.2,0,0,1,0,.26,5.14,5.14,0,0,1-1.88,2,0.83,0.83,0,0,1-1-.17c-2.79-3.33-5.55-6.68-7.32-10.7a19,19,0,0,1-1.8-8.24,10.76,10.76,0,0,1,1.34-5.26,3.18,3.18,0,0,1,2.23-1.75,4.6,4.6,0,0,1,1.66.15,11.92,11.92,0,0,0,10.65-2.86c1.35-1.18,2.55-.7,3.19.69a8.94,8.94,0,0,1,.71,4.42c-0.2,3.1-.61,6.19-0.56,9.31a10.47,10.47,0,0,1-3.39,7.9Zm-7.6-12.48c0,0.16,0,.26-0.07.35l-0.93,3.43a2.29,2.29,0,0,0,1,2.33,0.52,0.52,0,0,0,.75-0.11,5.85,5.85,0,0,0,.66-1.35,0.65,0.65,0,0,0-.3-0.68,0.39,0.39,0,0,0-.56,0,2.36,2.36,0,0,0-.72.8c0,0.08-.08.25-0.23,0.18s0-.22,0-0.32a15.21,15.21,0,0,0,.6-1.69,55.89,55.89,0,0,0,1.1-6.31c0.25-1.46-.36-1.78-1.35-2.09a9.5,9.5,0,0,0-3.66-.3,3.5,3.5,0,0,0-1.71.51,0.72,0.72,0,0,0-.28.86,0.51,0.51,0,0,0,.58.21,3.34,3.34,0,0,0,.5-0.05,2,2,0,0,1,.75,0c0.6,0.13,1.2.24,1.79,0.41a5.82,5.82,0,0,1,2,.67c0.09,0.06.26,0.08,0.2,0.26s-0.19.13-.31,0.13c-0.62,0-1.23,0-1.85,0a8.9,8.9,0,0,0-2.21.25,1.29,1.29,0,0,0-.91,1.67,2.38,2.38,0,0,0,3.14,1.67C619,2349,619.62,2348.71,620.34,2348.39Zm4.78,0.41a4.64,4.64,0,0,0,1.55.57,4.41,4.41,0,0,0,3.25-1.3c0.58-.48.52-1-0.17-1.29a4.29,4.29,0,0,0-3.25-.31,1.63,1.63,0,0,1-1.23,0,0.19,0.19,0,0,1-.16-0.23,1.37,1.37,0,0,1,1-1.32c1-.33,2-0.72,3-1.09a2.11,2.11,0,0,0,.94-0.6c0.09-.1.3-0.14,0.21-0.35a0.44,0.44,0,0,0-.42-0.22c-0.37-.05-0.75-0.11-1.12-0.15a6.77,6.77,0,0,0-3.62.43,2.82,2.82,0,0,0-1.53,4,3.42,3.42,0,0,1,.31,1.21q0.08,1.47.17,2.94c0,0.7.09,1.4,0.14,2.1a0.64,0.64,0,0,0,.34.61,0.72,0.72,0,0,0,.41-0.47,1.11,1.11,0,0,0,.1-0.53c0-.45,0-0.9,0-1.35C625.12,2350.57,625.12,2349.71,625.12,2348.8Zm-2.73,5.19a1.19,1.19,0,0,0,.23.74,0.59,0.59,0,0,0,.52.37,0.56,0.56,0,0,0,.46-0.43,5.74,5.74,0,0,0,.32-1.46,0.6,0.6,0,0,0-.41-0.69,0.56,0.56,0,0,0-.7.21A1.9,1.9,0,0,0,622.39,2354Z" transform="translate(-536.62 -2291.35)"/><path class="j" d="M677.15,2348.53l-1.79-2.51c-0.12-.17-0.05-0.22.11-0.29,0.35-.15.68-0.32,1-0.47,0.14-.06.3-0.08,0.24-0.31a0.3,0.3,0,0,0-.38-0.22,41.3,41.3,0,0,1-5-.13,37.36,37.36,0,0,1-5.68-1.1c-1.83-.5-3.65-1.07-5.48-1.56a9.25,9.25,0,0,0-6.6.44,5.2,5.2,0,0,0-2.56,2.5,4,4,0,0,1-1.35,1.62c-0.52.37-1,.77-1.58,1.15a6.28,6.28,0,0,0,.26-2c0-.3-0.08-0.42-0.37-0.33a5.11,5.11,0,0,0-1.06.22c-0.18.1-.25-0.08-0.34-0.17a1.08,1.08,0,0,0-1.69-.18,1.05,1.05,0,0,1-.77.1l-2.31-.41a0.31,0.31,0,0,1,.13-0.3,37.27,37.27,0,0,1,4.63-5.7,13.66,13.66,0,0,1,7.74-3.88,12.13,12.13,0,0,1,4,.21,55.1,55.1,0,0,1,8.2,2.09,25.58,25.58,0,0,1,3.42,1.48,14.25,14.25,0,0,0,3.22,1.05,6.49,6.49,0,0,1,1.41.53,2.89,2.89,0,0,1,1.58,2,34.67,34.67,0,0,0,1,3.45A4.55,4.55,0,0,1,677.15,2348.53Z" transform="translate(-536.62 -2291.35)"/><path class="e" d="M598.46,2387.45a0.84,0.84,0,0,0,.72-0.36,1.05,1.05,0,0,1,1.08-.41l6,0.91c1.93,0.3,3.87.61,5.8,0.9a1.94,1.94,0,0,1,1.93,1.66,1.31,1.31,0,0,0,.59,1,1.42,1.42,0,0,0,.89-0.46,3.49,3.49,0,0,0,.64-0.72,0.77,0.77,0,0,1,1.06-.29c2.82,0.87,2.77,3.67,1.95,5.38a2,2,0,0,1-1.84,1,15.65,15.65,0,0,1-2.55-.25c0.25-.33.51-0.62,0.71-0.94a0.83,0.83,0,0,0-.36-1.3,0.77,0.77,0,0,0-1.19.48c-0.14.39-.21,0.81-0.33,1.21a0.84,0.84,0,0,1-1,.72c-1.21-.07-2.43-0.18-3.64-0.28l-4.22-.38-3.51-.33a0.44,0.44,0,0,1-.37-0.16,2.22,2.22,0,0,0-1.79-.85l-6.46-1.06c-1.06-.18-2.12-0.35-3.18-0.55a3.62,3.62,0,0,1-2.06-1,2.14,2.14,0,0,1-.34-2.57,5.66,5.66,0,0,1,4.11-3,1.63,1.63,0,0,1,1.73.56,1.41,1.41,0,0,0,1.76.43,9,9,0,0,1,2.65-.62,2,2,0,0,1,.5,0,0.76,0.76,0,0,1,.75,1C598.5,2387.23,598.48,2387.33,598.46,2387.45Zm18.84,6.16c-0.52,0-.69.38-0.78,1.13a1,1,0,0,0,.82.75,1,1,0,0,0,.93-0.92A1.16,1.16,0,0,0,617.3,2393.61Zm-5.21-.61c-0.33.42-.63,0.81-0.92,1.2a0.34,0.34,0,0,0-.07.42,0.94,0.94,0,0,0,1.25.44,1,1,0,0,0,.28-1.33C612.47,2393.5,612.29,2393.28,612.09,2393Z" transform="translate(-536.62 -2291.35)"/><path class="e" d="M589.09,2385c1.34-1,2.67-2.08,4-3.11a44.61,44.61,0,0,0,5.07-4.14,11.19,11.19,0,0,0,3.15-5.82,9.63,9.63,0,0,0,.12-1.92,2.81,2.81,0,0,1,.24-1.27,1.81,1.81,0,0,1,1.54-1.08,4.48,4.48,0,0,1,2.67.53,16.53,16.53,0,0,0,6.34,1.91c0.65,0.07,1.31.11,2,.17a3.25,3.25,0,0,1,.37.08,18.12,18.12,0,0,1-1.54,1.91,25.77,25.77,0,0,1-4.87,4.24,3,3,0,0,0-.91.86c-0.12.18-.12,0.26,0.08,0.38a3.11,3.11,0,0,0,1.62.34l2.77,0.1a0.74,0.74,0,0,1,.48.1l-3.15,2.25a2.37,2.37,0,0,0-.77.76,0.47,0.47,0,0,0,.22.76,3.07,3.07,0,0,0,.59.22,5,5,0,0,1,3.63,4.72c0,0.29,0,.58,0,0.93l-2.12-.43-6.52-1.41c-0.18,0-.35-0.08-0.53-0.14a1.14,1.14,0,0,1-.92-1.49q0.8-5.35,1.61-10.7c0.08-.5.16-1,0.24-1.49a0.64,0.64,0,0,0-.42-0.81,0.61,0.61,0,0,0-.81.47c-0.31,1.08-.57,2.16-0.85,3.24q-1,3.73-1.93,7.47a5.13,5.13,0,0,1-.74,1.64,2.23,2.23,0,0,1-2.48,1,22.56,22.56,0,0,0-7.61-.23l-0.58.05Z" transform="translate(-536.62 -2291.35)"/><path class="e" d="M636.26,2379.61a11.88,11.88,0,0,1-.17-3.63c0.1-1,.25-2.06.37-3.08,0-.14.1-0.32-0.14-0.37s-0.25.11-.35,0.23a2.57,2.57,0,0,0-.34,1.36,20.6,20.6,0,0,0-.07,5.23,12.88,12.88,0,0,1-.73,5.33c-0.34,1-.7,2-1.13,3-0.08.18-.16,0.36-0.25,0.53a1,1,0,0,1-1.64.38,1.88,1.88,0,0,0-2.83.37l-1,1.21a5.73,5.73,0,0,1-6.26,1.48,2.1,2.1,0,0,1-1.22-1.19,1.86,1.86,0,0,0-1.76-1.15c-0.32,0-.64,0-1,0a2.17,2.17,0,0,1-2.22-2.08,15.58,15.58,0,0,1,0-2.81c0-.71.11-1.42,0.17-2.16a15.31,15.31,0,0,0,3.3,1,14.85,14.85,0,0,0,5,0c0.41-.06.43,0,0.39,0.39-0.23,1.93-.44,3.87-0.65,5.8a5.08,5.08,0,0,1-.2.94,0.6,0.6,0,0,0,.22.78,0.74,0.74,0,0,0,.9,0,2,2,0,0,0,.33-0.33l5.72-7.05c0.68-.85.66-0.95-0.34-1.36a4.7,4.7,0,0,1-.84-0.47,5.06,5.06,0,0,1,3.18-.73l0.33,0c0.64,0,.78-0.19.59-0.82a2.75,2.75,0,0,0-.27-0.57c-0.9-1.57-1.81-3.12-2.69-4.69a11.45,11.45,0,0,1-1.26-3.45c0-.24,0-0.33.26-0.37,2-.26,3.93-0.54,5.9-0.81l1.42-.17a1,1,0,0,1,1,.62,5.08,5.08,0,0,1-.1,5.23,22.94,22.94,0,0,0-1.4,2.9C636.46,2379.22,636.38,2379.37,636.26,2379.61Z" transform="translate(-536.62 -2291.35)"/><path class="d" d="M648.18,2411c-0.16,1-.29,1.89-0.46,2.79s-0.41,2-.6,2.94c-0.14.69-.26,1.39-0.4,2.09s-0.3,1.41-.44,2.12-0.29,1.42-.39,2.13a11.33,11.33,0,0,0-.22,1.36,0.42,0.42,0,0,1-.46.41,59.78,59.78,0,0,1-6.89.08c-1,0-2,0-2.94,0a0.94,0.94,0,0,1-1.08-.57,7.91,7.91,0,0,1-.11-1.63,9.35,9.35,0,0,1,3.49-6.2,18.06,18.06,0,0,1,4.45-2.64c1-.46,1.95-1,2.93-1.42Z" transform="translate(-536.62 -2291.35)"/><path class="i" d="M618.26,2365.64l1.73,1.84a11.16,11.16,0,0,0,1.51,1.4,0.9,0.9,0,0,0,1.48-.18c0.9-1.14,1.77-2.31,2.66-3.47a0.57,0.57,0,0,1,.28-0.28l0.6,3.93a0.91,0.91,0,0,1-.23.81,1.86,1.86,0,0,0-.33,1.67,12.9,12.9,0,0,1,.08,3.31,2.14,2.14,0,0,1-.87,1.57l-0.31.22a0.8,0.8,0,0,0-.25,1.34,3.15,3.15,0,0,1,.64,1.61,2.58,2.58,0,0,1-2.27,2.8,11.55,11.55,0,0,1-5-.26c-2.08-.6-2.47-1.9-2.23-3.67a1.11,1.11,0,0,1,.5-1.08c0.16-.07.23-0.09,0.32,0.08,0.21,0.38.42,0.76,0.65,1.12a0.53,0.53,0,0,0,.59.37,0.88,0.88,0,0,0,.78-0.6,2.11,2.11,0,0,0-.14-1.43,10.42,10.42,0,0,0-1.15-1.75,0.76,0.76,0,0,0-.6-0.33,0.71,0.71,0,0,1-.75-0.78,14.08,14.08,0,0,1,.26-2.76,2,2,0,0,1,.44-0.7,0.14,0.14,0,0,1,.21,0,0.28,0.28,0,0,1,.17.3c0,0.48,0,1,0,1.52a5,5,0,0,0,1.46-3.06A14.78,14.78,0,0,0,618.26,2365.64Zm1.89,11.83a1.43,1.43,0,0,0-1.11,1.48,1.14,1.14,0,0,0,.91.79,1.52,1.52,0,0,0,1.24-1.2A1.3,1.3,0,0,0,620.15,2377.47Zm1.85,1.07a0.92,0.92,0,0,0,.84,1,1.63,1.63,0,0,0,1.27-1,1.55,1.55,0,0,0-1.28-.95A0.84,0.84,0,0,0,622,2378.55Z" transform="translate(-536.62 -2291.35)"/><path class="h" d="M620.66,2409.61a3.46,3.46,0,0,0,2.2-.68c0.23-.18.25-0.28,0-0.43a3.74,3.74,0,0,0-3.58-.12,7,7,0,0,0-2.26,1.71c-0.23.26-.31,0.15-0.43-0.08a1.36,1.36,0,0,1,0-1.18c0.59-1.44,1.59-2,3.33-1.81,1.17,0.13,2.32.36,3.49,0.46a4.25,4.25,0,0,1,3.39,2.32c0.6,1,1,2.17,1.59,3.19a13.45,13.45,0,0,0,1.23,1.85c0.12,0.14.14,0.22,0,.32a51.74,51.74,0,0,0-5.42,4.1,4.14,4.14,0,0,1-2.15,1,3.15,3.15,0,0,1-2.64-1.23,41.45,41.45,0,0,0-3-3,0.51,0.51,0,0,1-.19-0.62,4.2,4.2,0,0,0,.12-0.57c0.13-.67.13-0.67-0.52-0.57l-1.37.2c-0.09,0-.21.08-0.23-0.08a0.22,0.22,0,0,1,.11-0.25l0.31-.13a9.83,9.83,0,0,0,4.93-3.94A1.16,1.16,0,0,1,620.66,2409.61Zm-2.41,4.79a1.68,1.68,0,0,0,1.25,0c1.52-1.1,3-2.22,4.52-3.34a1.62,1.62,0,0,0,.35-0.3c0.13-.17.14-0.35-0.15-0.37a1.48,1.48,0,0,0-1,.18c-1.41.9-2.84,1.79-4.27,2.67A1.35,1.35,0,0,0,618.25,2414.4Zm5.35,2.21a1,1,0,0,0,.54-0.2l2.89-1.79c0.25-.16.48-0.34,0.71-0.52s0.19-.28,0-0.37a0.74,0.74,0,0,0-.75-0.09l-3.68,2.1a0.45,0.45,0,0,0-.25.53A0.51,0.51,0,0,0,623.6,2416.61Zm-1.87-2.15a0.71,0.71,0,0,0,.52-0.17c0.9-.65,1.74-1.37,2.58-2.08a1,1,0,0,0,.22-0.25,0.34,0.34,0,0,0,.1-0.38c-0.11-.19-0.27-0.05-0.37,0a15.48,15.48,0,0,0-3.36,2.11,0.71,0.71,0,0,0-.32.6A0.84,0.84,0,0,0,621.73,2414.46Z" transform="translate(-536.62 -2291.35)"/><path class="d" d="M647.91,2367.34c-0.76.89-1.51,1.78-2.28,2.65a18.47,18.47,0,0,0-3.59,6,20.66,20.66,0,0,0-1.08,5.17c-0.12,1.46-.24,2.92-0.45,4.38-0.17,1.19-.24,2.39-0.37,3.58s-0.31,2.35-.46,3.53c0,0.06,0,.11,0,0.17-0.09.95-.09,0.95-1.07,1.21-0.78.21-.77,0.21-0.81-0.61s-0.07-1.37-.16-2a1.25,1.25,0,0,0-.79-1.08,13.41,13.41,0,0,0-1.59-.47,1.07,1.07,0,0,1-.86-1.38c0.21-1.06.57-2.08,0.85-3.12s0.68-2.31,1.07-3.45a37.72,37.72,0,0,1,2.26-5.32,25.67,25.67,0,0,1,2.93-4.47,18.23,18.23,0,0,1,4.39-3.87c0.51-.32,1-0.6,1.57-0.89A0.4,0.4,0,0,1,647.91,2367.34Z" transform="translate(-536.62 -2291.35)"/><path class="k" d="M653.11,2380.56c-0.13-1.22.56-2.17,1.09-3.17a7.17,7.17,0,0,1,.61-0.94,1.69,1.69,0,0,1,1.66-.66,8.38,8.38,0,0,1,1.44.26,1.7,1.7,0,0,1,1.09,1.26c0.45,1.44.9,2.88,1.32,4.32a1.87,1.87,0,0,1,0,1.65,7.31,7.31,0,0,1-.8.88c-1.32,1.45-2.69,2.85-4.07,4.24l-0.17.18c-0.27.24-.4,0.21-0.53-0.14a20.5,20.5,0,0,1-.66-2.74c-0.19-.87-0.43-1.73-0.59-2.6A8.74,8.74,0,0,1,653.11,2380.56Z" transform="translate(-536.62 -2291.35)"/><path class="l" d="M672.85,2368.59a17.05,17.05,0,0,0,1.5-3.21,0.72,0.72,0,0,0,.08-0.28,0.67,0.67,0,0,0-.29-0.65c-0.32-.12-0.32.24-0.41,0.42a23.13,23.13,0,0,0-1.58,3.69,0.4,0.4,0,0,1-.3.31l-0.7.22c0.16-.47.35-0.91,0.47-1.38a7,7,0,0,0-.25-4.25c-0.12-.33,0-0.4.26-0.46a4.82,4.82,0,0,0,3.51-2.41,4.7,4.7,0,0,0-2.24-6.6,3.62,3.62,0,0,1-1.7-1.38,2.31,2.31,0,0,1,0-2.46,3.39,3.39,0,0,0,3.09,2.58c-0.52-.47-1-1-1.44-1.5a8.69,8.69,0,0,1-1.17-1.48,2.69,2.69,0,0,1,1.46-3.85,1.46,1.46,0,0,1,1.63.47,9.1,9.1,0,0,1,2.57,6.5c0,0.46,0,.93,0,1.39,0,0.12.09,0.32-.1,0.36s-0.17-.16-0.23-0.26l-2.36-4.3c-0.36-.65-0.71-1.3-1.08-1.94-0.06-.1-0.06-0.28-0.29-0.21s-0.13.24-.12,0.37a6.46,6.46,0,0,0,1.79,3.54,7.15,7.15,0,0,1,1.77,3.74,12.08,12.08,0,0,1-.17,3.1,56.9,56.9,0,0,1-2.38,9.25,0.5,0.5,0,0,1-.25.31A2.69,2.69,0,0,1,672.85,2368.59Z" transform="translate(-536.62 -2291.35)"/><path class="e" d="M627.74,2372.26a5.85,5.85,0,0,1,1,1.32l2.9,5.58c0.33,0.64.16,1-.56,1.08l-2.32.35-0.17,0a1,1,0,0,0-.84.53,1.19,1.19,0,0,0,.42,1c0.2,0.23.45,0.42,0.66,0.64a0.9,0.9,0,0,1,.09,1.41c-0.54.75-1.1,1.48-1.66,2.22l-1.87,2.48c-0.07.1-.12,0.24-0.29,0.18a0.24,0.24,0,0,1-.12-0.32c0.16-1.57.33-3.14,0.47-4.72a56.4,56.4,0,0,1,1.32-7.76C627.12,2375,627.43,2373.63,627.74,2372.26Z" transform="translate(-536.62 -2291.35)"/><path class="d" d="M655.49,2389.66c1.25-1.15,2.43-2.31,3.54-3.53a76,76,0,0,0,5.1-6.33c1.24-1.7,2.38-3.46,3.59-5.18,0.07-.1.1-0.26,0.26-0.22s0.11,0.21.1,0.32c-0.09,1.5-.19,3-0.29,4.49,0,0.36,0,.73,0,1.09a0.94,0.94,0,0,1-1,1,2.64,2.64,0,0,0-1.89.45,0.87,0.87,0,0,0-.2,1.26l0.22,0.35c0.57,0.83.46,1.3-.45,1.78l-6.95,3.71-1.54.79A0.79,0.79,0,0,1,655.49,2389.66Z" transform="translate(-536.62 -2291.35)"/><path class="e" d="M614.93,2371.73c0,1.14,0,2.26,0,3.37q0,4-.11,8,0,2.38-.09,4.75c0,0.12.06,0.27-.11,0.32s-0.2-.15-0.26-0.25a14.89,14.89,0,0,1-.76-2.39,8.15,8.15,0,0,0-2.56-3.72c-0.63-.52-0.62-0.91.06-1.39q1.25-.89,2.52-1.74a1.24,1.24,0,0,0,.66-1.09,0.6,0.6,0,0,0-.64-0.71,6.28,6.28,0,0,0-1.25.13,5,5,0,0,1-2.2-.14Z" transform="translate(-536.62 -2291.35)"/><path class="k" d="M655.31,2373.43l-0.35-.25a1.21,1.21,0,0,1-.12-1.92,8.4,8.4,0,0,1,2.25-1.52,2.2,2.2,0,0,1,3.12,1.62,3.36,3.36,0,0,1-.27,2.5,1.73,1.73,0,0,1-2,1l-3.28-.62c-0.11,0-.28,0-0.31-0.15s0.13-.18.24-0.23S655,2373.58,655.31,2373.43Z" transform="translate(-536.62 -2291.35)"/><path class="h" d="M637.05,2395.34a23.77,23.77,0,0,1-.26,2.53c-0.07.52-.34,0.65-0.78,0.33a5.39,5.39,0,0,1-2.47-5.86,7.47,7.47,0,0,1,.3-1.34,0.74,0.74,0,0,1,1.13-.48,3.13,3.13,0,0,1,1.91,2.52A14,14,0,0,1,637.05,2395.34Z" transform="translate(-536.62 -2291.35)"/><path class="h" d="M674.23,2358.55a4,4,0,0,1-.17,1.62,2.43,2.43,0,0,1-2.45,1.47,0.74,0.74,0,0,1-.64-0.76c-0.05-.44-0.11-0.89-0.15-1.33a19.45,19.45,0,0,1,0-3.77,0.73,0.73,0,0,1,1-.77,2.57,2.57,0,0,1,2.44,2.67C674.25,2358,674.23,2358.26,674.23,2358.55Z" transform="translate(-536.62 -2291.35)"/><path class="i" d="M630.09,2395.62a15,15,0,0,1-2,.64,0.62,0.62,0,0,1-.84-0.64c0-.13,0-0.25,0-0.38a1.52,1.52,0,0,0-1.81-1.44c-1.2,0-2.4.12-3.6,0.18a1.08,1.08,0,0,1-1.35-.88,0.26,0.26,0,0,1,.17-0.39,1.86,1.86,0,0,1,.88-0.21c1.59,0,3.18.15,4.78,0.14a1.71,1.71,0,0,0,1.8-1.31c0-.13.11-0.25,0.18-0.41a2.78,2.78,0,0,1,.71,2.57,1.77,1.77,0,0,0,1,2Z" transform="translate(-536.62 -2291.35)"/><path class="i" d="M639.12,2396.1a1.59,1.59,0,0,0-.72,1.77,7.38,7.38,0,0,1-.37,2.63,0.35,0.35,0,0,1-.53.23,5.39,5.39,0,0,0-1.56-.3,1.38,1.38,0,0,1-.8-0.32,1.87,1.87,0,0,0-1.85-.61c-0.31.09-.49-0.17-0.38-0.48,0,0,0,0,0,0,0.4-1.24,0-1.83-1.31-1.89a1,1,0,0,1-.77-0.28c0.49-.65,1.12-0.39,1.71-0.26a2.43,2.43,0,0,1,1.41,1c0.19,0.26.39,0.51,0.6,0.75a2.33,2.33,0,0,0,2.42.64,0.91,0.91,0,0,0,.65-1,8.78,8.78,0,0,1,.05-1.3C637.87,2395.8,638.3,2395.62,639.12,2396.1Z" transform="translate(-536.62 -2291.35)"/><path class="d" d="M650.18,2375.69a1,1,0,0,1,1.2.46,4.77,4.77,0,0,1,.22,1.06c0.13,1.17.2,2.34,0.37,3.5a4,4,0,0,0,.45,1.42,2.38,2.38,0,0,1,.2,1.38c0,0.12,0,.26-0.17.27a0.29,0.29,0,0,1-.33-0.19q-0.42-.92-0.86-1.83c-0.7-1.48-1.4-3-2.11-4.43a1.15,1.15,0,0,1,.23-1.53A1.66,1.66,0,0,1,650.18,2375.69Z" transform="translate(-536.62 -2291.35)"/><path class="m" d="M628.22,2408.53a3.87,3.87,0,0,1,.65-1.76,0.2,0.2,0,0,1,.19-0.13,0.21,0.21,0,0,1,.14.23,28.39,28.39,0,0,0,1.66,5.55c0.25,0.58.43,1.19,0.65,1.78a0.44,0.44,0,0,1,0,.16c0,0.25.1,0.62-.2,0.69a0.69,0.69,0,0,1-.74-0.42c-0.31-.63-0.59-1.27-0.89-1.91-0.47-1-.91-2-1.28-3.08A2.7,2.7,0,0,1,628.22,2408.53Z" transform="translate(-536.62 -2291.35)"/><path class="n" d="M621.73,2361.85c0.08-1.3.18-2.6,0.25-3.9a1.62,1.62,0,0,1,.68-1c0.12-.13.16,0,0.21,0.1a2.13,2.13,0,0,1,.55,1.75c-0.19,1.4-.29,2.81-0.42,4.22a1.14,1.14,0,0,1-.28.73,0.54,0.54,0,0,1-.62.23,0.63,0.63,0,0,1-.37-0.61C621.74,2362.85,621.73,2362.35,621.73,2361.85Z" transform="translate(-536.62 -2291.35)"/><path class="n" d="M623.75,2363.45c0.24-2,.35-4,0.64-5.92a1.2,1.2,0,0,1,.62-0.79c0.12-.09.17,0,0.23,0.06a1.31,1.31,0,0,1,.27.86c-0.16,1.49-.28,3-0.5,4.46a5.27,5.27,0,0,1-.82,1.77,0.15,0.15,0,0,1-.23.07c-0.1,0-.23,0-0.22-0.2S623.75,2363.55,623.75,2363.45Z" transform="translate(-536.62 -2291.35)"/><path class="m" d="M650.39,2368c0.15,1.27.29,2.49,0.38,3.71,0.06,0.85.19,1.69,0.28,2.54,0,0.1.09,0.23,0,.31a0.22,0.22,0,0,1-.25-0.11,4.05,4.05,0,0,1-1.5-4.23A5.52,5.52,0,0,1,650.39,2368Z" transform="translate(-536.62 -2291.35)"/><path class="n" d="M628.38,2356a1.72,1.72,0,0,1-.2.86c-0.48,1.28-1,2.55-1.48,3.82a1,1,0,0,1-.07.15c-0.13.21-.26,0.55-0.51,0.46s-0.06-.41,0-0.62c0.15-1.4.4-2.79,0.5-4.2a1.78,1.78,0,0,1,1.33-1.34,0.35,0.35,0,0,1,.36.24A1.12,1.12,0,0,1,628.38,2356Z" transform="translate(-536.62 -2291.35)"/><path class="o" d="M633.58,2404.48a2.27,2.27,0,0,1-1.56-2,2,2,0,0,1,1.25-2,0.66,0.66,0,0,1,.71-0.05,0.64,0.64,0,0,1,.19.69C634,2402.23,633.78,2403.33,633.58,2404.48Z" transform="translate(-536.62 -2291.35)"/><path class="o" d="M631.86,2399l-0.71,2.7a2.12,2.12,0,0,1-.5,1c-0.12.13-.18,0.16-0.32,0a2.82,2.82,0,0,1-.62-1.15,1.6,1.6,0,0,1,.27-1.35c0.24-.5.51-1,0.75-1.49a1.05,1.05,0,0,1,.81-0.45c0.1,0,.11,0,0.13.11Z" transform="translate(-536.62 -2291.35)"/><path class="n" d="M621.05,2363a2.56,2.56,0,0,1-.91-1.86,10.18,10.18,0,0,0-.37-2.85,1,1,0,0,1,.7-1.05,0.15,0.15,0,0,1,.15.1,1.49,1.49,0,0,1,.44,1.08C621,2359.92,621.05,2361.42,621.05,2363Z" transform="translate(-536.62 -2291.35)"/><path class="o" d="M634.71,2403.65a2.69,2.69,0,0,1,1.1-2.12,0.65,0.65,0,0,1,.71-0.13,0.63,0.63,0,0,1,.28.66,9.12,9.12,0,0,1-.5,2.11,1,1,0,0,1-.9.64A1.26,1.26,0,0,1,634.71,2403.65Z" transform="translate(-536.62 -2291.35)"/><path class="o" d="M627.44,2400.09a1.16,1.16,0,0,1,.22-0.71l1.59-2.47c0.09-.13.14-0.3,0.37-0.17a0.3,0.3,0,0,1,.18.42c-0.36,1.09-.71,2.17-1,3.27a0.61,0.61,0,0,1-.63.54,0.84,0.84,0,0,1-.67-0.71C627.45,2400.2,627.44,2400.15,627.44,2400.09Z" transform="translate(-536.62 -2291.35)"/><path class="o" d="M629.87,2391.31a3.64,3.64,0,0,1,.24-1.22,0.85,0.85,0,0,1,1.3-.42,1.94,1.94,0,0,1,.77,1.83,0.32,0.32,0,0,1-.35.31c-0.52,0-1,0-1.54.12-0.36,0-.45-0.09-0.42-0.4C629.88,2391.45,629.87,2391.38,629.87,2391.31Z" transform="translate(-536.62 -2291.35)"/><path class="n" d="M618.83,2359.79c-0.63-.95-1.24-1.83-1.76-2.76a1.39,1.39,0,0,1,0-.74c0-.09.06-0.11,0.14-0.11a1.26,1.26,0,0,1,1.29.52A3.55,3.55,0,0,1,618.83,2359.79Z" transform="translate(-536.62 -2291.35)"/><path class="m" d="M654.42,2391.67a0.57,0.57,0,0,1-.13.49,1.09,1.09,0,0,0,.4,1c0.36,0.37.37,0.39,0,.69s-0.82.74-1.29,1a0.22,0.22,0,1,1-.39-0.2,3.36,3.36,0,0,1,1.21-2.86Z" transform="translate(-536.62 -2291.35)"/><path class="m" d="M651.69,2383.94a0.22,0.22,0,0,1,.24.18c0.64,1.43,1.28,2.87,1.94,4.29,0.09,0.2,0,.22-0.12.29s-0.23.19-.35,0a31.77,31.77,0,0,1-1.62-3.32,9.07,9.07,0,0,1-.31-0.94C651.41,2384.2,651.34,2384,651.69,2383.94Z" transform="translate(-536.62 -2291.35)"/><path class="p" d="M673.68,2369.1l0.1-.07c0,0.05,0,.1,0,0.12Z" transform="translate(-536.62 -2291.35)"/><path class="i" d="M628,2360.93l-0.1.06a0.08,0.08,0,0,1,0-.12Z" transform="translate(-536.62 -2291.35)"/><path class="e" d="M625.72,2406.72s-0.08,0-.1,0a0.16,0.16,0,0,1,0-.06Z" transform="translate(-536.62 -2291.35)"/><path class="e" d="M614,2417.66l0.1,0,0,0.09Z" transform="translate(-536.62 -2291.35)"/><path class="q" d="M650.08,2425.69c0,1.31,0,2.63,0,3.94q0,4.3,0,8.6c0,0.73-.15.82-0.83,0.55q0-6.33,0-12.66c0-.34.09-0.5,0.45-0.45A2.75,2.75,0,0,0,650.08,2425.69Z" transform="translate(-536.62 -2291.35)"/><path class="r" d="M613.91,2410.71a1.4,1.4,0,0,1-1.41-.94,0.61,0.61,0,0,1,.44-0.78c0.16-.05.19,0.08,0.25,0.15q0.46,0.57.91,1.15a0.45,0.45,0,0,1,.21.34C614.23,2410.79,614,2410.67,613.91,2410.71Z" transform="translate(-536.62 -2291.35)"/><path class="q" d="M653.23,2407.82l4.35-2.15,5.08-2.45,4.46-2.2c0.09,0,.21-0.15.28,0a0.21,0.21,0,0,1-.12.27c-0.94.69-1.9,1.36-2.88,2a35.38,35.38,0,0,1-4.25,2.3,34.61,34.61,0,0,1-3.72,1.44c-0.84.27-1.7,0.49-2.54,0.77A1.57,1.57,0,0,1,653.23,2407.82Z" transform="translate(-536.62 -2291.35)"/><path class="q" d="M636.73,2414.4a3.77,3.77,0,0,1,.22-1.15,0.71,0.71,0,0,1,.58-0.51,0.74,0.74,0,0,1,.71.41,1,1,0,0,1-.49,1.51,4.87,4.87,0,0,0-1.66.88,1.1,1.1,0,0,1-1.12-.46,0.91,0.91,0,0,1,.07-1.18,0.79,0.79,0,0,1,1.08-.07A1,1,0,0,1,636.73,2414.4Z" transform="translate(-536.62 -2291.35)"/><path class="q" d="M639.59,2413.59a0.65,0.65,0,0,1-.66-0.39,2.64,2.64,0,0,1-.24-1,0.64,0.64,0,0,1,.42-0.65,1,1,0,0,1,1,.27,1.82,1.82,0,0,1,.29.64A1,1,0,0,1,639.59,2413.59Z" transform="translate(-536.62 -2291.35)"/><path class="q" d="M641.56,2410.51a3.31,3.31,0,0,1,1.4.88c0.1,0.08,0,.13-0.08.18-0.33.34-.68,0.67-1,1-0.15.18-.21,0.09-0.31,0a5,5,0,0,1-.71-1.1A0.68,0.68,0,0,1,641.56,2410.51Z" transform="translate(-536.62 -2291.35)"/><path class="r" d="M655.6,2360.49c-0.67,1.5-1.41,3-2,4.52a1.12,1.12,0,0,0,1,1.69c1.53,0.25,3.07.46,4.61,0.67a18.88,18.88,0,0,0,4,.33,0.58,0.58,0,0,1,.67.34,0.86,0.86,0,0,1-.74.68,8.27,8.27,0,0,1-1.83-.2c-2.29-.34-4.59-0.7-6.88-1.06a5.9,5.9,0,0,1-1-.22,1.25,1.25,0,0,1-.94-1.59,22.66,22.66,0,0,1,1-3.37c0.17-.5.37-1,0.55-1.49,0.28-.76.1-1.06-0.72-1.15a26.11,26.11,0,0,0-3.19-.19,0.6,0.6,0,0,1-.74-0.5,0.71,0.71,0,0,1,.57-0.92,4.68,4.68,0,0,1,2.12.05c2,0.5,3.91,1.26,5.88,1.83a12.25,12.25,0,0,0,8.76-.62,1.26,1.26,0,0,1,1.35,0,1.84,1.84,0,0,1,.45,1.74,2.34,2.34,0,0,1-1,1.24,3.91,3.91,0,0,0-1.9,3.56,1.37,1.37,0,0,1-.16.69,0.36,0.36,0,0,1-.36.29,0.53,0.53,0,0,1-.45-0.33,1,1,0,0,1,0-.66,4.26,4.26,0,0,0,.15-1,0.62,0.62,0,0,0-.68-0.71,4.26,4.26,0,0,0-.5,0,9.49,9.49,0,0,1-7.83-3.34A0.61,0.61,0,0,0,655.6,2360.49Zm4.63,2.26a2,2,0,0,0-2.74-1.64Zm3.56-.88a10.72,10.72,0,0,1,1,.59,0.52,0.52,0,0,0,.83-0.11c0.16-.2.38-0.34,0.13-0.62s-0.35-.71-0.87-0.51A6.35,6.35,0,0,0,663.79,2361.86Zm-1.37,1.05c0.61,0,.66-0.08.39-0.6a1.08,1.08,0,0,0-.86-0.58,0.44,0.44,0,0,0-.49.22,0.46,0.46,0,0,0,0,.55A1,1,0,0,0,662.42,2362.91Zm4.16-2.22c0.57,0.53.64,0.52,1.24-.19C667.12,2360.13,667.11,2360.13,666.58,2360.69Z" transform="translate(-536.62 -2291.35)"/><path class="r" d="M661,2357.63c0.48-.2.91-0.37,1.32-0.57,0.68-.33.8-0.75,0.33-1.33a8.36,8.36,0,0,1-1.43-7.54c0.1-.45.25-0.89,0.36-1.33a0.67,0.67,0,0,1,.54-0.56,1,1,0,0,1,.46.82,4.67,4.67,0,0,0-.06,1,0.54,0.54,0,0,0,.61.59,10.08,10.08,0,0,0,2.14-.38,7.7,7.7,0,0,1,1.07-.19,2.15,2.15,0,0,1,2.1,1.22c-1.9,0-3.79-.23-5.6.57a4.26,4.26,0,0,0,1.62.44,6,6,0,0,0,2.25-.17,1.69,1.69,0,0,1,1.11.05,1.62,1.62,0,0,1-1,.83,7.33,7.33,0,0,1-3.57,0,4.24,4.24,0,0,0-.57-0.12c-0.59-.05-0.79.18-0.62,0.74a22.89,22.89,0,0,0,1.33,2.94,9.43,9.43,0,0,1,.62,1.42,1.57,1.57,0,0,1-.62,1.85,1.63,1.63,0,0,1-2,0Z" transform="translate(-536.62 -2291.35)"/><path class="r" d="M659.72,2344.66a2,2,0,0,1,.28,1.63,24,24,0,0,1-.43,2.65,7.6,7.6,0,0,1-1,2.22c-0.47.81-.93,1.63-1.41,2.43a5,5,0,0,0-.72,2.12,2.55,2.55,0,0,1-.12.53,0.4,0.4,0,0,1-.37.38,0.57,0.57,0,0,1-.55-0.31,2,2,0,0,1-.12-1.62,3.26,3.26,0,0,1,.76-1.34,5.74,5.74,0,0,0,1.16-2.11,2,2,0,0,1,.46-0.78,4,4,0,0,0,1-2.55c0.09-.85.21-1.69,0.35-2.53A1.17,1.17,0,0,1,659.72,2344.66Z" transform="translate(-536.62 -2291.35)"/><path class="r" d="M666.34,2369.16c1.06-.62,2.37-0.48,3.38-1.26a2.79,2.79,0,0,1-1.74,1.89A1.4,1.4,0,0,1,666.34,2369.16Z" transform="translate(-536.62 -2291.35)"/><path class="r" d="M620.34,2348.39c-0.71.31-1.33,0.64-2,.87a2.38,2.38,0,0,1-3.14-1.67,1.29,1.29,0,0,1,.91-1.67,8.9,8.9,0,0,1,2.21-.25c0.62,0,1.23,0,1.85,0,0.12,0,.26,0,0.31-0.13s-0.11-.2-0.2-0.26a5.82,5.82,0,0,0-2-.67c-0.59-.17-1.19-0.28-1.79-0.41a2,2,0,0,0-.75,0,3.34,3.34,0,0,1-.5.05,0.51,0.51,0,0,1-.58-0.21,0.72,0.72,0,0,1,.28-0.86,3.5,3.5,0,0,1,1.71-.51,9.5,9.5,0,0,1,3.66.3c1,0.31,1.6.63,1.35,2.09a55.89,55.89,0,0,1-1.1,6.31,15.21,15.21,0,0,1-.6,1.69c0,0.1-.19.23,0,0.32s0.18-.1.23-0.18a2.36,2.36,0,0,1,.72-0.8,0.39,0.39,0,0,1,.56,0,0.65,0.65,0,0,1,.3.68,5.85,5.85,0,0,1-.66,1.35,0.52,0.52,0,0,1-.75.11,2.29,2.29,0,0,1-1-2.33l0.93-3.43C620.29,2348.65,620.3,2348.56,620.34,2348.39Zm-1.41-2a5.57,5.57,0,0,0-1.7.2,0.83,0.83,0,0,0-.63.47,1.05,1.05,0,0,0,.15,1.07,1.09,1.09,0,0,0,1,.4,4.93,4.93,0,0,0,2.77-1.64c0.15-.14.14-0.23-0.09-0.32A4.69,4.69,0,0,0,618.93,2346.4Z" transform="translate(-536.62 -2291.35)"/><path class="r" d="M625.12,2348.8c0,0.91,0,1.77,0,2.64,0,0.45,0,.9,0,1.35a1.11,1.11,0,0,1-.1.53,0.72,0.72,0,0,1-.41.47,0.64,0.64,0,0,1-.34-0.61c-0.05-.7-0.1-1.4-0.14-2.1q-0.09-1.47-.17-2.94a3.42,3.42,0,0,0-.31-1.21,2.82,2.82,0,0,1,1.53-4,6.77,6.77,0,0,1,3.62-.43c0.38,0,.75.1,1.12,0.15a0.44,0.44,0,0,1,.42.22c0.09,0.21-.13.25-0.21,0.35a2.11,2.11,0,0,1-.94.6c-1,.36-2,0.76-3,1.09a1.37,1.37,0,0,0-1,1.32,0.19,0.19,0,0,0,.16.23,1.63,1.63,0,0,0,1.23,0,4.29,4.29,0,0,1,3.25.31c0.69,0.3.75,0.82,0.17,1.29a4.41,4.41,0,0,1-3.25,1.3A4.64,4.64,0,0,1,625.12,2348.8Zm3.83-1.27a11.8,11.8,0,0,0-2.23-.09,0.55,0.55,0,0,0-.54.49,0.45,0.45,0,0,0,.4.5A2.16,2.16,0,0,0,628.95,2347.53Z" transform="translate(-536.62 -2291.35)"/><path class="r" d="M622.39,2354a1.9,1.9,0,0,1,.41-1.26,0.56,0.56,0,0,1,.7-0.21,0.6,0.6,0,0,1,.41.69,5.74,5.74,0,0,1-.32,1.46,0.56,0.56,0,0,1-.46.43,0.59,0.59,0,0,1-.52-0.37A1.19,1.19,0,0,1,622.39,2354Z" transform="translate(-536.62 -2291.35)"/><path class="c" d="M617.3,2393.61a1.16,1.16,0,0,1,1,1,1,1,0,0,1-.93.92,1,1,0,0,1-.82-0.75C616.61,2394,616.78,2393.58,617.3,2393.61Z" transform="translate(-536.62 -2291.35)"/><path class="c" d="M612.09,2393c0.2,0.28.38,0.5,0.53,0.73a1,1,0,0,1-.28,1.33,0.94,0.94,0,0,1-1.25-.44,0.34,0.34,0,0,1,.07-0.42C611.46,2393.81,611.76,2393.42,612.09,2393Z" transform="translate(-536.62 -2291.35)"/><path class="r" d="M620.15,2377.47a1.3,1.3,0,0,1,1,1.06,1.52,1.52,0,0,1-1.24,1.2,1.14,1.14,0,0,1-.91-0.79A1.43,1.43,0,0,1,620.15,2377.47Z" transform="translate(-536.62 -2291.35)"/><path class="r" d="M622,2378.55a0.84,0.84,0,0,1,.83-0.91,1.55,1.55,0,0,1,1.28.95,1.63,1.63,0,0,1-1.27,1A0.92,0.92,0,0,1,622,2378.55Z" transform="translate(-536.62 -2291.35)"/><path class="r" d="M618.25,2414.4a1.35,1.35,0,0,1,.7-1.18c1.43-.87,2.85-1.76,4.27-2.67a1.48,1.48,0,0,1,1-.18c0.28,0,.28.2,0.15,0.37a1.62,1.62,0,0,1-.35.3c-1.51,1.12-3,2.24-4.52,3.34A1.68,1.68,0,0,1,618.25,2414.4Z" transform="translate(-536.62 -2291.35)"/><path class="r" d="M623.6,2416.61a0.51,0.51,0,0,1-.53-0.34,0.45,0.45,0,0,1,.25-0.53l3.68-2.1a0.74,0.74,0,0,1,.75.09c0.18,0.09.14,0.25,0,.37s-0.46.37-.71,0.52l-2.89,1.79A1,1,0,0,1,623.6,2416.61Z" transform="translate(-536.62 -2291.35)"/><path class="r" d="M621.73,2414.46a0.84,0.84,0,0,1-.62-0.18,0.71,0.71,0,0,1,.32-0.6,15.48,15.48,0,0,1,3.36-2.11c0.1,0,.26-0.17.37,0a0.34,0.34,0,0,1-.1.38,1,1,0,0,1-.22.25c-0.85.71-1.69,1.43-2.58,2.08A0.71,0.71,0,0,1,621.73,2414.46Z" transform="translate(-536.62 -2291.35)"/><path class="n" d="M660.22,2362.74l-2.74-1.64A2,2,0,0,1,660.22,2362.74Z" transform="translate(-536.62 -2291.35)"/><path class="n" d="M663.79,2361.86a6.35,6.35,0,0,1,1.11-.66c0.51-.2.63,0.25,0.87,0.51s0,0.43-.13.62a0.52,0.52,0,0,1-.83.11A10.72,10.72,0,0,0,663.79,2361.86Z" transform="translate(-536.62 -2291.35)"/><path class="n" d="M662.42,2362.91a1,1,0,0,1-.95-0.42,0.46,0.46,0,0,1,0-.55,0.44,0.44,0,0,1,.49-0.22,1.08,1.08,0,0,1,.86.58C663.08,2362.83,663,2362.91,662.42,2362.91Z" transform="translate(-536.62 -2291.35)"/><path class="n" d="M666.58,2360.69c0.53-.56.53-0.56,1.24-0.19C667.22,2361.21,667.15,2361.22,666.58,2360.69Z" transform="translate(-536.62 -2291.35)"/><path class="k" d="M618.93,2346.4a4.69,4.69,0,0,1,1.53.19c0.23,0.09.23,0.18,0.09,0.32a4.93,4.93,0,0,1-2.77,1.64,1.09,1.09,0,0,1-1-.4,1.05,1.05,0,0,1-.15-1.07,0.83,0.83,0,0,1,.63-0.47A5.57,5.57,0,0,1,618.93,2346.4Z" transform="translate(-536.62 -2291.35)"/><path class="k" d="M628.95,2347.53a2.16,2.16,0,0,1-2.36.9,0.45,0.45,0,0,1-.4-0.5,0.55,0.55,0,0,1,.54-0.49A11.8,11.8,0,0,1,628.95,2347.53Z" transform="translate(-536.62 -2291.35)"/><line class="s" x1="88.48" y1="147.54" x2="95.13" y2="147.62"/><line class="s" x1="64.83" y1="147.13" x2="75.01" y2="147.19"/></svg>