<?xml version="1.0" encoding="utf-8"?>
<!-- Generator: Adobe Illustrator 16.0.0, SVG Export Plug-In . SVG Version: 6.00 Build 0)  -->
<!DOCTYPE svg PUBLIC "-//W3C//DTD SVG 1.1//EN" "http://www.w3.org/Graphics/SVG/1.1/DTD/svg11.dtd">
<svg version="1.1" id="Layer_1" xmlns="http://www.w3.org/2000/svg" xmlns:xlink="http://www.w3.org/1999/xlink" x="0px" y="0px"
	 width="1920px" height="1080px" viewBox="0 0 1920 1080" style="enable-background:new 0 0 1920 1080;" xml:space="preserve">
<g id="Hills">
	<path style="fill:none;stroke:#000000;stroke-miterlimit:10;" d="M0.7,996.3c129.6-20.6,232.7-122.8,445.9,42.3"/>
	<path style="fill:none;stroke:#000000;stroke-miterlimit:10;" d="M358,979.6c27.5-39.3,277.7-25.6,541.9,30.5"/>
	<path style="fill:none;stroke:#000000;stroke-miterlimit:10;" d="M832.8,1048.4c103.8-114.5,383.8,32.9,604.5,32.9"/>
	<path style="fill:none;stroke:#000000;stroke-miterlimit:10;" d="M0.2,911.2c-9-30.1,104.1-3.6,184.4,37.5"/>
	<path style="fill:none;stroke:#000000;stroke-miterlimit:10;" d="M233.4,946.1c105.1-59.4,109.4,11.1,244.7,11.1"/>
</g>
<g id="Mountains">
	<polyline style="fill:none;stroke:#000000;stroke-miterlimit:10;" points="0.7,889.3 36.2,809.1 44.5,823.4 56.6,804.2 59,779.6 
		64.2,794.2 71.8,779.6 89.1,827.6 114.4,897 104.2,916.2 165.8,804.2 173.3,831.8 195.8,818 216.5,788.6 244.5,841.2 282.2,883.9 
		325,924.2 	"/>
	<polyline style="fill:none;stroke:#000000;stroke-miterlimit:10;" points="89.1,827.6 96.4,809.1 104.2,798.5 108.4,829.6 
		131.6,795.8 141.8,786.5 154.5,824.8 	"/>
	<polyline style="fill:none;stroke:#000000;stroke-miterlimit:10;" points="265.1,860.2 305.4,824.9 304.7,842.5 318.9,809.1 
		358,876.4 478,957.2 	"/>
</g>
<g id="Wave">
	<path style="fill:none;stroke:#000000;stroke-miterlimit:10;" d="M1293.5,1065.8c30.4-47.1,311.8-127.9,628.7-93.6"/>
	<path style="fill:none;stroke:#000000;stroke-miterlimit:10;" d="M1586,975.4c139.8-13.8,160.5-5.9,176.1,19.4"/>
	<path style="fill-rule:evenodd;clip-rule:evenodd;" d="M1744.5,1036.8c0.2,0.5-0.4,1.3-0.7,2c0,0-0.1,0.1-0.2,0.1
		c-0.9,1.4-2.6,3-2.4,4.3c0.3,1.9,2.5,2.6,4.6,2.8c1,0.1,2.1-0.1,1.9,1.4c-0.2,1.4,1.6,3.4-1.2,4.2c-1.2,0.3-1.8,1.2-1.9,2.6
		c-0.1,2.8-1.2,3.7-4,4.6c-3,0.9-6,2.1-8.9,3.4c-1.3,0.6-2.2,1.7-1.3,3.3c0.7,1.4,2.3,2.1,4,1.2c2.9-1.6,6-1.7,9.2-1.6
		c1.8,0.1,3.7,0.2,5.5,0.6c1.1,0.3,2.3,0.9,3.1,1.7c1.9,1.9,4,2.2,6.3,0.9c1.1-0.6,2.3-1.2,3.4-1.8c2.2-1.2,4.2-1,5.9,0.9
		c1,1.1,1.7,2.4,2.5,3.7c1.5,2.5,3.3,2.8,5.3,0.7c1.1-1.2,2-2.7,2.9-4.1c1-1.7,1.6-1.9,3.4-0.9c3.8,2.1,6.1,5.1,7.2,9.2
		c0.5,1.9,2,3.7,3.5,5c0.8,0.7,2.7,0.5,3.9,0.2c1.5-0.5,2.7-1.5,2.3-3.5c-0.3-1.2-0.4-2.5-0.4-3.8c0.1-3,2.6-4.3,5.3-3
		c1.9,1,2.9,0.6,4.1-1.5c-0.1-0.1-0.2-0.3-0.2-0.3c-2,1.1-3.8,0.1-5.7-0.3c-2.6-0.6-5.3,2.9-4.9,6.1c0.1,0.8,0.5,1.6,0.3,2.4
		c-0.2,0.9-0.7,2.2-1.4,2.5c-0.7,0.4-2.2,0.2-2.9-0.2c-2.6-1.6-3.1-4.5-3.9-7.1c-0.7-2.4-1.8-4.1-4.1-5.2c-1.5-0.7-2.8-1.8-4.4-2.5
		c-1.3-0.6-2.4-0.2-3,1.5c-0.5,1.5-1.5,2.9-2.4,4.2c-1.4,1.9-2.8,1.7-4-0.3c-0.9-1.4-1.9-2.8-3-4.1c-1.5-1.8-4.4-2.1-6.4-1
		c-1.6,0.9-3.2,1.9-4.9,2.5c-0.8,0.3-2.2,0.2-2.6-0.3c-3.9-4.2-9.1-3.5-14-3.3c-2.2,0.1-4.3,1.1-6.5,1.5c-0.8,0.1-1.6-0.3-2.4-0.5
		c0.5-0.6,0.9-1.5,1.6-1.7c3-1.2,6.1-2.2,9.1-3.3c2.3-0.8,3.6-2.4,3.6-4.6c0.1-1.5,0.6-2.1,2-2.3c2.8-0.4,6.3-3.3,6-6.6
		c-0.2-1.9-0.5-2.3-2.5-2.1c-2.8,0.3-5.6,0.9-8.2-0.6c-0.2-0.1-0.4-0.3-0.7-0.6c0.9-2.9,3.5-3.6,5.9-4c2.7-0.5,5.6-0.3,8.4-0.4
		c0.5,0,1.2,0.2,1.6,0c1-0.4,1.9-1,2.8-1.6c-0.6-0.9-1-2-1.8-2.6c-1.5-1.2-3.2-2.2-5.1-3.4c2.2-2.3,4.7-3,7.1-3.8
		c2.5-0.7,4.9-4.3,4.4-6.8c-0.2-1-0.8-2-1.5-2.8c-3.3-3.4-3.7-4.9-1.8-9.1c0.5-1.2,0.4-2.2-0.8-2.8c-3.2-1.7-3-5.1-4.1-7.8
		c-0.5-1.2,1.8-2.8,4-2.6c4.3,0.4,7.5,3.1,9.4,6.9c1.5,3.1,1.3,5.5-0.7,8.1c-0.3,0.4-0.3,1-0.4,1.6c-0.8,3.5-0.4,4.8,1.9,6.1
		c2.6,1.4,5.9,0.8,7.9-1.2c0.9-0.9,1.1-1.5,0-2.3c-0.5-0.3-1-0.8-1.4-1.2c-0.9-1-1.8-2.1-3.1-3.6c1.5-0.3,2.7-0.5,3.9-0.6
		c0.9-0.1,1.9,0.3,2.8,0.1c0.6-0.1,1.5-0.6,1.7-1.1c0.2-0.5-0.4-1.3-0.8-1.8c-0.6-0.7-1.4-1.1-2-1.7c-0.3-0.4-0.6-1.4-0.3-1.7
		c0.3-0.5,1.3-1.1,1.8-0.9c1.3,0.4,2.6,1.1,3.8,1.8c1.6,0.9,3.1,2,4.7,2.8c0.7,0.3,2,0.2,2.4-0.3c0.5-0.5,0.3-1.6,0.3-2.4
		c0-0.4-0.4-0.9-0.4-1.3c0-0.4,0.1-1,0.4-1.2c0.3-0.2,0.9,0.1,1.2,0.3c0.4,0.2,0.6,0.8,1,1c0.8,0.5,1.8,0.8,2.7,1.2
		c0.4-0.9,1.1-1.8,1-2.7c-0.1-1.5-0.6-3-1.1-4.5c-1.1-3-2.4-5.9-3.4-8.8c-0.9-2.5-0.3-3.8,1.8-5.4c0.5-0.4,0.9-0.8,1.4-1.2
		c1.9-1.6,1.9-1.6,2.7,0.7c0,0.1,0.1,0.1,0.1,0.2c2.8,1.8,2.1,3.8,0.8,6.3c-1.1,2.3,0.6,5.4,3.1,7c2.1,1.4,2.7,3.1,1.7,5.5
		c-0.9,2.2-1.8,4.5-2.6,6.3c-1.2-0.2-2.6-0.9-3.6-0.5c-1.6,0.7-2.3,2.3-2,4.1c0.1,0.8,0.6,1.6,1.2,2.3c0.2-2.1-0.4-4.2,2.3-5.4
		c1.3,2.5,1.3,5.7,4.4,7.1c-0.7-1.6-1.5-3.3-2.3-5.2c3.7,1.1,5.5,0.4,5.5-2.3c-0.6,0.4-1,0.9-1.5,1.1c-0.7,0.2-1.5,0.4-2.1,0.3
		c-0.3-0.1-0.5-1.2-0.3-1.7c0.6-1.7,1.3-3.4,2.1-5c1.5-3.1,0.7-5.9-2.3-7.7c-2.5-1.4-3.2-4.4-1.7-6.8c1.6-2.5,1.6-2.9-0.6-5.1
		c-0.3-0.3-0.6-0.8-0.7-1.2c-0.9-2.7-2.2-3.2-4.6-1.8c-4.6,2.7-5.5,5.2-3.7,10.2c0.9,2.5,2,4.9,3,7.3c0.7,1.7,1.6,3.4,0.6,5.6
		c-0.8-0.8-1.4-1.5-2.2-1.9c-0.8-0.4-2-0.9-2.7-0.6c-0.5,0.2-0.8,1.5-0.9,2.4c0,0.9,0.4,1.8,0.6,2.7c-2.2,0.6-3.5-0.8-4.9-1.7
		c-1.5-0.9-3-1.9-4.5-2.7c-1.2-0.6-2.6-0.7-3.4,0.7c-0.9,1.4-0.8,2.7,0.4,3.9c0.7,0.7,1.5,1.4,2.1,2.6c-0.9,0-1.9,0-2.8,0
		c-0.9,0-2-0.4-2.8-0.1c-0.8,0.2-1.7,0.9-2.1,1.6c-0.2,0.4,0.4,1.5,0.8,2c1.1,1.4,2.3,2.7,3.4,4c-1.5,2-5,2.6-6.7,1
		c-0.7-0.6-1.2-1.9-1-2.8c0.3-1.5,1-3.1,1.8-4.5c1.1-2,1.5-3.7,0.2-6c-1.6-2.8-2.8-5.8-5.7-7.5c-2.8-1.7-5.9-2.6-9.2-1
		c-1.6,0.8-2.4,1.9-1.7,3.8c1,3,1.3,6.4,4.4,8.4c0.3,0.2,0.2,1.2,0,1.6c-2.1,3.9-0.4,6.8,2.3,9.6c2.5,2.6,1.2,6.7-2.3,7.8
		c-2.1,0.6-4.1,1.5-6,2.5c-1.8,0.9-2,2.4-0.4,3.7c1.6,1.5,3.5,2.7,5.6,4.4c-0.9,0.3-1.6,0.7-2.3,0.7c-3.5,0.2-7.1,0.3-10.7,0.4
		 M1752.1,1045.7c0.5,2.4-0.1,3.3-2.9,4.4c-0.1-0.7-0.2-1.3-0.3-1.9c-0.1-0.7-0.3-1.4-0.4-2.2
		C1749.9,1045.9,1751,1045.8,1752.1,1045.7z"/>
</g>
<g id="clouds">
	<g id="Cloud3">
		<line style="fill:none;stroke:#000000;stroke-miterlimit:10;" x1="213.1" y1="65.4" x2="356.7" y2="66.2"/>
		<path style="fill:none;stroke:#000000;stroke-miterlimit:10;" d="M356.7,66.2c0-3.7-12.1-6.7-27-6.7"/>
		<path style="fill:none;stroke:#000000;stroke-miterlimit:10;" d="M329.7,59.5c0-6.9-3.2-12.5-7.1-12.5"/>
		<path style="fill:none;stroke:#000000;stroke-miterlimit:10;" d="M322.7,47c0-2.1-4.4-3.8-9.8-3.8"/>
		<path style="fill:none;stroke:#000000;stroke-miterlimit:10;" d="M312.8,43.2c0-4.1-6.2-7.3-13.9-7.3"/>
		<path style="fill:none;stroke:#000000;stroke-miterlimit:10;" d="M299,35.9c0-3.2-10.1-5.8-22.5-5.8"/>
		<path style="fill:none;stroke:#000000;stroke-miterlimit:10;" d="M255.5,47"/>
		<path style="fill:none;stroke:#000000;stroke-miterlimit:10;" d="M276.4,30"/>
		<path style="fill:none;stroke:#000000;stroke-miterlimit:10;" d="M255.5,47c-6.1,0-11.1,2.7-11.1,6.1"/>
		<path style="fill:none;stroke:#000000;stroke-miterlimit:10;" d="M244.5,53.1c-4.4,0-8.1,2.9-8.1,6.4"/>
		<path style="fill:none;stroke:#000000;stroke-miterlimit:10;" d="M236.4,59.5c-12.9,0-23.3,2.6-23.3,5.9"/>
		<path style="fill:none;stroke:#000000;stroke-miterlimit:10;" d="M276.4,30c-11.6,0-20.9,7.6-20.9,17"/>
	</g>
	<g id="Cloud2">
		<line style="fill:none;stroke:#000000;stroke-miterlimit:10;" x1="990.7" y1="158.3" x2="1134.4" y2="159.1"/>
		<path style="fill:none;stroke:#000000;stroke-miterlimit:10;" d="M1134.4,159.1c0-3.7-12.1-6.7-27-6.7"/>
		<path style="fill:none;stroke:#000000;stroke-miterlimit:10;" d="M1107.4,152.4c0-6.9-3.2-12.5-7.1-12.5"/>
		<path style="fill:none;stroke:#000000;stroke-miterlimit:10;" d="M1100.3,139.9c0-2.1-4.4-3.8-9.8-3.8"/>
		<path style="fill:none;stroke:#000000;stroke-miterlimit:10;" d="M1090.5,136.1c0-4.1-6.2-7.3-13.9-7.3"/>
		<path style="fill:none;stroke:#000000;stroke-miterlimit:10;" d="M1076.6,128.7c0-3.2-10.1-5.8-22.5-5.8"/>
		<path style="fill:none;stroke:#000000;stroke-miterlimit:10;" d="M1033.1,139.9"/>
		<path style="fill:none;stroke:#000000;stroke-miterlimit:10;" d="M1054,122.9"/>
		<path style="fill:none;stroke:#000000;stroke-miterlimit:10;" d="M1033.1,139.9c-6.1,0-11.1,2.7-11.1,6.1"/>
		<path style="fill:none;stroke:#000000;stroke-miterlimit:10;" d="M1022.1,146c-4.5,0-8.1,2.9-8.1,6.4"/>
		<path style="fill:none;stroke:#000000;stroke-miterlimit:10;" d="M1014,152.4c-12.9,0-23.3,2.6-23.3,5.9"/>
		<path style="fill:none;stroke:#000000;stroke-miterlimit:10;" d="M1054,122.9c-11.6,0-20.9,7.6-20.9,17"/>
	</g>
	<g id="Cloud1">
		<line style="fill:none;stroke:#000000;stroke-miterlimit:10;" x1="1564.2" y1="121.4" x2="1707.8" y2="122.2"/>
		<path style="fill:none;stroke:#000000;stroke-miterlimit:10;" d="M1707.8,122.2c0-3.7-12.1-6.7-27-6.7"/>
		<path style="fill:none;stroke:#000000;stroke-miterlimit:10;" d="M1680.8,115.5c0-6.9-3.2-12.5-7.1-12.5"/>
		<path style="fill:none;stroke:#000000;stroke-miterlimit:10;" d="M1673.7,103c0-2.1-4.4-3.8-9.8-3.8"/>
		<path style="fill:none;stroke:#000000;stroke-miterlimit:10;" d="M1663.9,99.2c0-4.1-6.2-7.3-13.9-7.3"/>
		<path style="fill:none;stroke:#000000;stroke-miterlimit:10;" d="M1650.1,91.9c0-3.2-10.1-5.8-22.5-5.8"/>
		<path style="fill:none;stroke:#000000;stroke-miterlimit:10;" d="M1606.6,103"/>
		<path style="fill:none;stroke:#000000;stroke-miterlimit:10;" d="M1627.5,86.1"/>
		<path style="fill:none;stroke:#000000;stroke-miterlimit:10;" d="M1606.6,103c-6.1,0-11.1,2.7-11.1,6.1"/>
		<path style="fill:none;stroke:#000000;stroke-miterlimit:10;" d="M1595.5,109.1c-4.4,0-8,2.9-8,6.4"/>
		<path style="fill:none;stroke:#000000;stroke-miterlimit:10;" d="M1587.5,115.5c-12.9,0-23.3,2.6-23.3,5.9"/>
		<path style="fill:none;stroke:#000000;stroke-miterlimit:10;" d="M1627.5,86.1c-11.6,0-20.9,7.6-20.9,17"/>
	</g>
</g>
</svg>
