<svg xmlns="http://www.w3.org/2000/svg" viewBox="0 0 180.28 252.28"><defs><style>.a,.d{fill:none;stroke:#fff;stroke-miterlimit:10;}.a{stroke-width:0.28px;}.b{font-size:10px;fill:#fff;font-family:Transport;}.c{font-family:Futura;}.d{stroke-width:0.85px;}</style></defs><title>card-alliance</title><rect class="a" x="0.14" y="0.14" width="180" height="252"/><text class="b" transform="translate(16.52 155.74)">You find evidence of <tspan x="0" y="12">corruption and spend </tspan><tspan class="c" x="108.59" y="12">$</tspan><tspan x="114.77" y="12">1m </tspan><tspan x="0" y="24">causing a public outcry </tspan><tspan x="0" y="36">forcing leaders to split their </tspan><tspan x="0" y="48">alliance.</tspan></text><path class="d" d="M159.7,2028c0.28,0,3.6-.28,5.32-0.42a42.7,42.7,0,0,1,6.18-.07,54.39,54.39,0,0,1,5.82.73c2.56,0.46,4,1.6,6.08,2.68a26.63,26.63,0,0,0,6.4,2.37c2.38,0.47,3.7,1.39,6,2.52,2,1,10.52,1.61,8.25-1" transform="translate(-69.26 -1955.69)"/><path class="d" d="M191.58,2030.63c3.11,1.27,4.57,2.68,6.76,3.32,2.42,0.71,4.51.65,6.5,1.12,0.81,0.19,4.62,1.57,5.26,1.18,1.25-.77-0.15-2.69-1-3" transform="translate(-69.26 -1955.69)"/><path class="d" d="M192.79,2026.36c1.81,1,3.56,2.63,5.48,3.48a17.37,17.37,0,0,0,3.72,1.66c3.26,0.72,8,2.55,11.35,1.72,0.84-2.76-3.41-3.25-5.09-3.53-2.29-.37-9.06-2.76-10.67-4.38" transform="translate(-69.26 -1955.69)"/><path class="d" d="M192.42,2023.77c1.67,0.24,3.4,1.18,5.15,1.54,1.9,0.39,3.84.61,5.78,0.85a69.53,69.53,0,0,1,9.13,1.27c1.7-4.81-15.24-5.29-18-6.5-3-1.33-6.45-2.81-7.73-6-0.76-1.87.13-2.27,1.85-2.71s3.68-.43,5.5-0.92c1.21-.33,3.19-1.08,2.44-2.94-0.49-1.21-3.25-1.69-4.82-1.28a16.45,16.45,0,0,1-5.31.74,8.86,8.86,0,0,0-3.38.86,6.3,6.3,0,0,0-2.47,1.25c-1.62,1.62-3.55,3.39-5.7,3.85" transform="translate(-69.26 -1955.69)"/><path class="d" d="M158.75,2015a142.12,142.12,0,0,0,16.33-1.22" transform="translate(-69.26 -1955.69)"/><path class="d" d="M180.39,2015.4" transform="translate(-69.26 -1955.69)"/><path class="d" d="M202.77,2024" transform="translate(-69.26 -1955.69)"/><path class="d" d="M159.06,2015c-0.29,0-3.31.32-5.11,0.56a41.89,41.89,0,0,1-6.18.34,53.28,53.28,0,0,1-5.84-.48c-2.58-.35-4-1.45-6.19-2.46a26.21,26.21,0,0,0-6.49-2.13c-2.4-.37-3.75-1.25-6.06-2.3-2.06-.94-10.58-1.18-8.21,1.37" transform="translate(-69.26 -1955.69)"/><path class="d" d="M127.28,2013.67c-3.16-1.15-4.68-2.52-6.88-3.08-2.44-.62-4.53-0.46-6.54-0.85-0.82-.16-4.69-1.39-5.31-1-1.22.84,0.26,2.73,1.14,3" transform="translate(-69.26 -1955.69)"/><path class="d" d="M126.24,2018.06c-1.85-.94-3.67-2.52-5.61-3.3a17.11,17.11,0,0,0-3.78-1.52c-3.28-.59-8.1-2.24-11.41-1.25-0.73,2.84,3.54,3.16,5.22,3.36,2.3,0.28,9.17,2.41,10.84,4" transform="translate(-69.26 -1955.69)"/><path class="d" d="M126.71,2020.68c-1.68-.17-3.45-1-5.21-1.34-1.92-.31-3.86-0.45-5.81-0.61a68.33,68.33,0,0,1-9.17-.89c-1.5,5,15.44,4.71,18.24,5.83,3.05,1.22,6.55,2.58,8,5.72,0.84,1.87,0,2.32-1.74,2.84s-3.66.6-5.46,1.18c-1.2.38-3.15,1.24-2.32,3.1,0.54,1.21,3.31,1.58,4.87,1.09a16.21,16.21,0,0,1,5.28-1,8.77,8.77,0,0,0,3.34-1,6.3,6.3,0,0,0,2.42-1.38c1.55-1.72,3.41-3.6,5.54-4.16" transform="translate(-69.26 -1955.69)"/><path class="d" d="M159.7,2028a136.83,136.83,0,0,0-15.25,2.07" transform="translate(-69.26 -1955.69)"/><path class="d" d="M139.07,2028.67" transform="translate(-69.26 -1955.69)"/><path class="d" d="M116.36,2020.88" transform="translate(-69.26 -1955.69)"/></svg>