<svg xmlns="http://www.w3.org/2000/svg" viewBox="0 0 180.28 252.28"><defs><style>.a{font-size:10px;font-family:Transport;}.a,.c{fill:#fff;}.b{fill:none;stroke:#fff;stroke-miterlimit:10;stroke-width:0.28px;}</style></defs><title>card-warning</title><text class="a" transform="translate(16.52 151.33)">Any players who have paid <tspan x="0" y="12">off of the media in the last </tspan><tspan x="0" y="24">two rounds lose 2 FP.</tspan></text><rect class="b" x="0.14" y="0.14" width="180" height="252"/><path class="c" d="M173.08,2395.79h0l-35.82-62.08c-0.35-.53-0.47-0.8-1,0l-17.66,30.6-18.19,31.55h0a0.53,0.53,0,0,0,.45.81h71.66A0.61,0.61,0,0,0,173.08,2395.79Zm-6.8-1.48H107.15a0.45,0.45,0,0,1-.37-0.69h0l15-26.87,14.57-26.07c0.4-.72.5-0.49,0.79,0l29.55,52.89h0A0.52,0.52,0,0,1,166.28,2394.31Z" transform="translate(-57.02 -2310.39)"/><path class="c" d="M134.77,2373.95l-0.68-10.15q-0.19-3-.19-4.26a3.86,3.86,0,0,1,.92-2.74,3.17,3.17,0,0,1,2.43-1,2.44,2.44,0,0,1,2.44,1.26,8.53,8.53,0,0,1,.61,3.63,27.71,27.71,0,0,1-.15,2.84L139.24,2374a8.19,8.19,0,0,1-.64,2.86,1.66,1.66,0,0,1-1.61,1,1.6,1.6,0,0,1-1.59-1A9.59,9.59,0,0,1,134.77,2373.95Zm2.35,13.94a3.33,3.33,0,0,1-2.26-.84,2.93,2.93,0,0,1-1-2.34,3.15,3.15,0,0,1,3.18-3.16,3.14,3.14,0,0,1,2.28.92,3,3,0,0,1,.94,2.23,3,3,0,0,1-1,2.33A3.24,3.24,0,0,1,137.12,2387.89Z" transform="translate(-57.02 -2310.39)"/></svg>